%TF.GenerationSoftware,KiCad,Pcbnew,(5.99.0-8361-gd4c36230d2)*%
%TF.CreationDate,2021-01-14T13:58:05+01:00*%
%TF.ProjectId,mp3,6d70332e-6b69-4636-9164-5f7063625858,rev?*%
%TF.SameCoordinates,PXae85bc0PY7459280*%
%TF.FileFunction,Copper,L2,Bot*%
%TF.FilePolarity,Positive*%
%FSLAX46Y46*%
G04 Gerber Fmt 4.6, Leading zero omitted, Abs format (unit mm)*
G04 Created by KiCad (PCBNEW (5.99.0-8361-gd4c36230d2)) date 2021-01-14 13:58:05*
%MOMM*%
%LPD*%
G01*
G04 APERTURE LIST*
G04 Aperture macros list*
%AMRoundRect*
0 Rectangle with rounded corners*
0 $1 Rounding radius*
0 $2 $3 $4 $5 $6 $7 $8 $9 X,Y pos of 4 corners*
0 Add a 4 corners polygon primitive as box body*
4,1,4,$2,$3,$4,$5,$6,$7,$8,$9,$2,$3,0*
0 Add four circle primitives for the rounded corners*
1,1,$1+$1,$2,$3*
1,1,$1+$1,$4,$5*
1,1,$1+$1,$6,$7*
1,1,$1+$1,$8,$9*
0 Add four rect primitives between the rounded corners*
20,1,$1+$1,$2,$3,$4,$5,0*
20,1,$1+$1,$4,$5,$6,$7,0*
20,1,$1+$1,$6,$7,$8,$9,0*
20,1,$1+$1,$8,$9,$2,$3,0*%
G04 Aperture macros list end*
%TA.AperFunction,ComponentPad*%
%ADD10C,2.000000*%
%TD*%
%TA.AperFunction,ComponentPad*%
%ADD11C,1.700000*%
%TD*%
%TA.AperFunction,ComponentPad*%
%ADD12C,1.500000*%
%TD*%
%TA.AperFunction,ComponentPad*%
%ADD13O,1.800000X2.800000*%
%TD*%
%TA.AperFunction,ComponentPad*%
%ADD14R,1.900000X1.900000*%
%TD*%
%TA.AperFunction,ComponentPad*%
%ADD15C,1.900000*%
%TD*%
%TA.AperFunction,ComponentPad*%
%ADD16C,2.100000*%
%TD*%
%TA.AperFunction,ComponentPad*%
%ADD17C,2.600000*%
%TD*%
%TA.AperFunction,ComponentPad*%
%ADD18RoundRect,0.250000X-0.620000X-0.845000X0.620000X-0.845000X0.620000X0.845000X-0.620000X0.845000X0*%
%TD*%
%TA.AperFunction,ComponentPad*%
%ADD19O,1.740000X2.190000*%
%TD*%
%TA.AperFunction,ViaPad*%
%ADD20C,0.800000*%
%TD*%
%TA.AperFunction,Conductor*%
%ADD21C,0.500000*%
%TD*%
%TA.AperFunction,Conductor*%
%ADD22C,1.000000*%
%TD*%
%TA.AperFunction,Conductor*%
%ADD23C,0.250000*%
%TD*%
G04 APERTURE END LIST*
D10*
%TO.P,SW1,*%
%TO.N,*%
X-8250000Y61000000D03*
X-2250000Y73000000D03*
X-2250000Y61000000D03*
X-8250000Y73000000D03*
D11*
%TO.P,SW1,1,A*%
%TO.N,GND*%
X-6500000Y63000000D03*
%TO.P,SW1,2,B*%
%TO.N,ON{slash}~OFF*%
X-6500000Y67000000D03*
%TO.P,SW1,3,C*%
%TO.N,+3V3*%
X-6500000Y71000000D03*
%TD*%
D12*
%TO.P,Y1,1,1*%
%TO.N,Net-(C2-Pad2)*%
X-31500000Y28000000D03*
%TO.P,Y1,2,2*%
%TO.N,Net-(C1-Pad2)*%
X-31500000Y23120000D03*
%TD*%
D13*
%TO.P,J4,R*%
%TO.N,Net-(C9-Pad2)*%
X-9900000Y34000000D03*
%TO.P,J4,S*%
%TO.N,GNDA*%
X-2000000Y36000000D03*
%TO.P,J4,T*%
%TO.N,Net-(C10-Pad2)*%
X-4400000Y34000000D03*
%TD*%
D14*
%TO.P,J6,1,TD+*%
%TO.N,/ETH_T+*%
X-39600000Y57500000D03*
D15*
%TO.P,J6,2,TCT*%
%TO.N,no_connect_47*%
X-37060000Y56230000D03*
%TO.P,J6,3,TD-*%
%TO.N,/ETH_T-*%
X-39600000Y54960000D03*
%TO.P,J6,4,RD+*%
%TO.N,/ETH_R+*%
X-37060000Y53690000D03*
%TO.P,J6,5,RCT*%
%TO.N,no_connect_48*%
X-39600000Y52420000D03*
%TO.P,J6,6,RD-*%
%TO.N,/ETH_R-*%
X-37060000Y51150000D03*
%TO.P,J6,7,NC*%
%TO.N,no_connect_64*%
X-39600000Y49880000D03*
%TO.P,J6,8,GND*%
%TO.N,GND*%
X-37060000Y48610000D03*
D16*
%TO.P,J6,L1,LEDY_A*%
%TO.N,Net-(J6-PadL1)*%
X-50010000Y59680000D03*
%TO.P,J6,L2,LEDY_K*%
%TO.N,GND*%
X-50010000Y57140000D03*
%TO.P,J6,L3,LEDG_A*%
%TO.N,Net-(J6-PadL3)*%
X-50010000Y48970000D03*
%TO.P,J6,L4,LEDG_K*%
%TO.N,GND*%
X-50010000Y46430000D03*
D17*
%TO.P,J6,SH,SHIELD*%
X-42900000Y45310000D03*
X-42900000Y60800000D03*
%TD*%
D12*
%TO.P,Y2,1,1*%
%TO.N,/ETH_OSC1*%
X-41576000Y21228000D03*
%TO.P,Y2,2,2*%
%TO.N,Net-(C17-Pad2)*%
X-46456000Y21228000D03*
%TD*%
D18*
%TO.P,J2,1,Pin_1*%
%TO.N,+24V*%
X-32500000Y35500000D03*
D19*
%TO.P,J2,2,Pin_2*%
%TO.N,GND*%
X-29960000Y35500000D03*
%TD*%
D18*
%TO.P,J3,1,Pin_1*%
%TO.N,Net-(C5-Pad1)*%
X-6000000Y54500000D03*
D19*
%TO.P,J3,2,Pin_2*%
%TO.N,GNDA*%
X-3460000Y54500000D03*
%TD*%
D20*
%TO.N,GND*%
X-37500000Y29500000D03*
X-25500000Y45000000D03*
X-21000000Y48500000D03*
X-4900000Y21500000D03*
X-40800000Y34100000D03*
X-45000000Y29000000D03*
X-25900000Y40000000D03*
X-18100000Y17900000D03*
X-26800000Y28000000D03*
X-21200000Y4200000D03*
X-35000000Y39800000D03*
X-47300000Y38800000D03*
X-27000000Y4800000D03*
X-31700000Y25600000D03*
X-29200000Y4800000D03*
X-47900000Y42600000D03*
X-27000000Y36500000D03*
X-21000000Y45000000D03*
X-17000000Y21500000D03*
X-22300000Y24100000D03*
X-38200000Y42200000D03*
X-11750000Y17250000D03*
X-23000000Y28000000D03*
X-43100000Y47900000D03*
X-36800000Y45200000D03*
X-21000000Y52500000D03*
X-15900000Y26600000D03*
X-25600000Y60800000D03*
X-14900000Y15900000D03*
X-14500000Y2000000D03*
X-17450000Y14050000D03*
X-34500000Y37000000D03*
X-40800000Y37500000D03*
X-26000000Y42600000D03*
X-30000000Y45000000D03*
X-25500000Y48500000D03*
X-30000000Y52500000D03*
X-13000000Y11000000D03*
X-20800000Y38700000D03*
X-25500000Y52500000D03*
X-47300000Y36200000D03*
X-1375000Y14625000D03*
X-30000000Y48500000D03*
X-16400000Y11000000D03*
X-23100000Y34000000D03*
X-6820000Y15820000D03*
X-24400000Y9200000D03*
%TO.N,+3V3*%
X-47700000Y33900000D03*
X-42100000Y43000000D03*
X-23760000Y71000000D03*
X-30300000Y38400000D03*
X-42100000Y42000000D03*
X-46300000Y31200000D03*
X-29400000Y38400000D03*
X-28500000Y38400000D03*
X-42100000Y41100000D03*
%TO.N,GNDA*%
X-2000000Y51500000D03*
X-9000000Y25200000D03*
X-3550000Y30250000D03*
X-9050000Y21200000D03*
X-3550000Y31550000D03*
X-10800000Y31550000D03*
X-8500000Y39500000D03*
X-950000Y22800000D03*
X-5250000Y30200000D03*
X-5250000Y31500000D03*
X-9000000Y30200000D03*
X-5400000Y18950000D03*
X-7650000Y47100000D03*
X-3200000Y19000000D03*
X-4870000Y15500000D03*
X-11000000Y22000000D03*
X-9100000Y31600000D03*
X-1350000Y30100000D03*
X-1500000Y47000000D03*
X-15000000Y40000000D03*
X-4650000Y43150000D03*
X-10800000Y30250000D03*
X-8000000Y20000000D03*
%TO.N,SPI_MOSI*%
X-20340000Y12870000D03*
X-21900000Y13800000D03*
%TO.N,SPI_CLK*%
X-23190000Y15260000D03*
X-23500000Y12000000D03*
%TO.N,+3.3VA*%
X-15500000Y46000000D03*
X-14500000Y45000000D03*
X-12500000Y49000000D03*
X-17000000Y53000000D03*
X-14500000Y47000000D03*
X-16500000Y47000000D03*
X-14500000Y49000000D03*
X-12500000Y45000000D03*
X-17000000Y57500000D03*
X-16500000Y45000000D03*
X-12000000Y57500000D03*
X-11500000Y48000000D03*
X-12500000Y47000000D03*
X-13500000Y46000000D03*
X-11500000Y46000000D03*
X-16500000Y49000000D03*
X-15500000Y48000000D03*
X-12000000Y53000000D03*
X-13500000Y48000000D03*
%TO.N,/I2S3_LRCK*%
X-14675000Y24275000D03*
X-12025000Y24275000D03*
%TO.N,/ETH_T+*%
X-40300000Y47700000D03*
X-42030000Y50310000D03*
%TO.N,Net-(U2-Pad18)*%
X-6997500Y18800000D03*
X-10900000Y18100000D03*
%TD*%
D21*
%TO.N,GND*%
X-4900000Y21500000D02*
X-4400000Y22000000D01*
X-1850000Y22000000D02*
X-1375000Y21525000D01*
X-1375000Y21525000D02*
X-1375000Y14625000D01*
X-4400000Y22000000D02*
X-1850000Y22000000D01*
D22*
%TO.N,+3V3*%
X-39500000Y38400000D02*
X-42100000Y41000000D01*
X-42100000Y42000000D02*
X-42100000Y42500000D01*
X-42100000Y42500000D02*
X-42100000Y43000000D01*
D23*
X-6500000Y71000000D02*
X-23760000Y71000000D01*
D22*
X-28500000Y38400000D02*
X-39500000Y38400000D01*
X-42100000Y41100000D02*
X-42100000Y41500000D01*
D23*
X-47700000Y32600000D02*
X-47700000Y33900000D01*
D22*
X-42100000Y41500000D02*
X-42100000Y42000000D01*
D23*
X-46300000Y31200000D02*
X-47700000Y32600000D01*
D22*
X-42100000Y41000000D02*
X-42100000Y41100000D01*
D23*
X-23760000Y71000000D02*
X-23800000Y71000000D01*
D21*
%TO.N,GNDA*%
X-4870000Y15500000D02*
X-4870000Y16270000D01*
D23*
%TO.N,SPI_MOSI*%
X-20340000Y12870000D02*
X-21270000Y13800000D01*
X-21270000Y13800000D02*
X-21900000Y13800000D01*
%TO.N,SPI_CLK*%
X-23190000Y15260000D02*
X-23500000Y14950000D01*
X-23500000Y14950000D02*
X-23500000Y12000000D01*
%TO.N,/I2S3_LRCK*%
X-14675000Y24275000D02*
X-12225000Y24275000D01*
X-12225000Y24275000D02*
X-12025000Y24275000D01*
%TO.N,/ETH_T+*%
X-42030000Y49430000D02*
X-40300000Y47700000D01*
X-42030000Y50310000D02*
X-42030000Y49430000D01*
%TO.N,Net-(U2-Pad18)*%
X-10900000Y18100000D02*
X-10200000Y18800000D01*
X-6997500Y18800000D02*
X-10000000Y18800000D01*
X-10200000Y18800000D02*
X-10000000Y18800000D01*
%TD*%
%TA.AperFunction,Conductor*%
%TO.N,GND*%
G36*
X-8572165Y74580315D02*
G01*
X-8526410Y74527511D01*
X-8516466Y74458353D01*
X-8545491Y74394797D01*
X-8604269Y74357023D01*
X-8613741Y74354643D01*
X-8648739Y74347300D01*
X-8648742Y74347299D01*
X-8653885Y74346220D01*
X-8658769Y74344291D01*
X-8658773Y74344290D01*
X-8760884Y74303964D01*
X-8874935Y74258923D01*
X-8879419Y74256202D01*
X-8879423Y74256200D01*
X-9058211Y74147708D01*
X-9078115Y74135630D01*
X-9257618Y73979866D01*
X-9408309Y73796084D01*
X-9410905Y73791523D01*
X-9410906Y73791522D01*
X-9523287Y73594098D01*
X-9523289Y73594093D01*
X-9525881Y73589540D01*
X-9606972Y73366139D01*
X-9649262Y73132269D01*
X-9651544Y72894617D01*
X-9613751Y72659979D01*
X-9536964Y72435062D01*
X-9534455Y72430451D01*
X-9438756Y72254562D01*
X-9423379Y72226299D01*
X-9420128Y72222176D01*
X-9420126Y72222172D01*
X-9325972Y72102739D01*
X-9276243Y72039659D01*
X-9272345Y72036143D01*
X-9272344Y72036142D01*
X-9237831Y72005012D01*
X-9099764Y71880477D01*
X-8947791Y71784218D01*
X-8900486Y71754255D01*
X-8854384Y71701753D01*
X-8843986Y71632661D01*
X-8872591Y71568916D01*
X-8931120Y71530755D01*
X-8966837Y71525500D01*
X-23102108Y71525500D01*
X-23169147Y71545185D01*
X-23190094Y71562125D01*
X-23250383Y71622836D01*
X-23250389Y71622841D01*
X-23255271Y71627757D01*
X-23406892Y71723979D01*
X-23426817Y71731074D01*
X-23569535Y71781894D01*
X-23569539Y71781895D01*
X-23576063Y71784218D01*
X-23754377Y71805480D01*
X-23761266Y71804756D01*
X-23761270Y71804756D01*
X-23926072Y71787435D01*
X-23926073Y71787435D01*
X-23932969Y71786710D01*
X-24014148Y71759074D01*
X-24096398Y71731074D01*
X-24096401Y71731073D01*
X-24102965Y71728838D01*
X-24146991Y71701753D01*
X-24248831Y71639101D01*
X-24255915Y71634743D01*
X-24384218Y71509100D01*
X-24481496Y71358154D01*
X-24483866Y71351642D01*
X-24528993Y71227656D01*
X-24542915Y71189407D01*
X-24565421Y71011247D01*
X-24547898Y70832527D01*
X-24491215Y70662131D01*
X-24398189Y70508528D01*
X-24273445Y70379352D01*
X-24123182Y70281022D01*
X-24116687Y70278607D01*
X-24116686Y70278606D01*
X-24093531Y70269995D01*
X-23954868Y70218427D01*
X-23776869Y70194677D01*
X-23769968Y70195305D01*
X-23769966Y70195305D01*
X-23663932Y70204955D01*
X-23598032Y70210952D01*
X-23591441Y70213094D01*
X-23591439Y70213094D01*
X-23433840Y70264301D01*
X-23427244Y70266444D01*
X-23421291Y70269993D01*
X-23421286Y70269995D01*
X-23278952Y70354844D01*
X-23278953Y70354844D01*
X-23272995Y70358395D01*
X-23186989Y70440297D01*
X-23124867Y70472274D01*
X-23101477Y70474500D01*
X-7711591Y70474500D01*
X-7644552Y70454815D01*
X-7603243Y70410805D01*
X-7538400Y70294304D01*
X-7456855Y70194677D01*
X-7404747Y70131014D01*
X-7397020Y70121573D01*
X-7392821Y70117987D01*
X-7231492Y69980197D01*
X-7231488Y69980194D01*
X-7227288Y69976607D01*
X-7222516Y69973819D01*
X-7222514Y69973817D01*
X-7117963Y69912723D01*
X-7034566Y69863990D01*
X-6824947Y69787280D01*
X-6605058Y69748903D01*
X-6473946Y69749590D01*
X-6387371Y69750043D01*
X-6387370Y69750043D01*
X-6381847Y69750072D01*
X-6376419Y69751078D01*
X-6167802Y69789742D01*
X-6167797Y69789743D01*
X-6162371Y69790749D01*
X-6157204Y69792701D01*
X-6157202Y69792702D01*
X-5958730Y69867699D01*
X-5953567Y69869650D01*
X-5948835Y69872482D01*
X-5948831Y69872484D01*
X-5873957Y69917296D01*
X-5762036Y69984279D01*
X-5593830Y70131014D01*
X-5542091Y70195594D01*
X-5457720Y70300907D01*
X-5454267Y70305217D01*
X-5451635Y70310064D01*
X-5451632Y70310069D01*
X-5350395Y70496526D01*
X-5347759Y70501381D01*
X-5277672Y70713305D01*
X-5261734Y70825292D01*
X-5246723Y70930763D01*
X-5246723Y70930767D01*
X-5246221Y70934292D01*
X-5244500Y71000000D01*
X-5264342Y71222330D01*
X-5323242Y71437632D01*
X-5354552Y71503276D01*
X-5416962Y71634120D01*
X-5416963Y71634122D01*
X-5419338Y71639101D01*
X-5435636Y71661782D01*
X-5546370Y71815885D01*
X-5546371Y71815886D01*
X-5549593Y71820370D01*
X-5709888Y71975707D01*
X-5714468Y71978785D01*
X-5714471Y71978787D01*
X-5890574Y72097123D01*
X-5890577Y72097124D01*
X-5895158Y72100203D01*
X-6099547Y72189923D01*
X-6316593Y72242031D01*
X-6322108Y72242349D01*
X-6533919Y72254562D01*
X-6533920Y72254562D01*
X-6539436Y72254880D01*
X-6642987Y72242349D01*
X-6755549Y72228728D01*
X-6755553Y72228727D01*
X-6761033Y72228064D01*
X-6849033Y72200992D01*
X-6918896Y72200095D01*
X-6978154Y72237111D01*
X-7007993Y72300289D01*
X-6997552Y72372601D01*
X-6935757Y72503034D01*
X-6935756Y72503038D01*
X-6933507Y72507784D01*
X-6869395Y72736636D01*
X-6844759Y72973018D01*
X-6844500Y73000000D01*
X-6864594Y73236812D01*
X-6924301Y73466852D01*
X-7021913Y73683544D01*
X-7154640Y73880692D01*
X-7249248Y73979866D01*
X-7315067Y74048862D01*
X-7315072Y74048866D01*
X-7318688Y74052657D01*
X-7509364Y74194524D01*
X-7630671Y74256200D01*
X-7716531Y74299854D01*
X-7716536Y74299856D01*
X-7721217Y74302236D01*
X-7726237Y74303795D01*
X-7726240Y74303796D01*
X-7866346Y74347300D01*
X-7899447Y74357578D01*
X-7957634Y74396257D01*
X-7985672Y74460254D01*
X-7974660Y74529250D01*
X-7928094Y74581340D01*
X-7862676Y74600000D01*
X-2639204Y74600000D01*
X-2572165Y74580315D01*
X-2526410Y74527511D01*
X-2516466Y74458353D01*
X-2545491Y74394797D01*
X-2604269Y74357023D01*
X-2613741Y74354643D01*
X-2648739Y74347300D01*
X-2648742Y74347299D01*
X-2653885Y74346220D01*
X-2658769Y74344291D01*
X-2658773Y74344290D01*
X-2760884Y74303964D01*
X-2874935Y74258923D01*
X-2879419Y74256202D01*
X-2879423Y74256200D01*
X-3058211Y74147708D01*
X-3078115Y74135630D01*
X-3257618Y73979866D01*
X-3408309Y73796084D01*
X-3410905Y73791523D01*
X-3410906Y73791522D01*
X-3523287Y73594098D01*
X-3523289Y73594093D01*
X-3525881Y73589540D01*
X-3606972Y73366139D01*
X-3649262Y73132269D01*
X-3651544Y72894617D01*
X-3613751Y72659979D01*
X-3536964Y72435062D01*
X-3534455Y72430451D01*
X-3438756Y72254562D01*
X-3423379Y72226299D01*
X-3420128Y72222176D01*
X-3420126Y72222172D01*
X-3325972Y72102739D01*
X-3276243Y72039659D01*
X-3272345Y72036143D01*
X-3272344Y72036142D01*
X-3237831Y72005012D01*
X-3099764Y71880477D01*
X-3095332Y71877670D01*
X-2903425Y71756116D01*
X-2903422Y71756114D01*
X-2898988Y71753306D01*
X-2894139Y71751283D01*
X-2894136Y71751281D01*
X-2799981Y71711992D01*
X-2679655Y71661782D01*
X-2581019Y71639101D01*
X-2453152Y71609698D01*
X-2453150Y71609698D01*
X-2448037Y71608522D01*
X-2210756Y71595048D01*
X-2205538Y71595638D01*
X-2205533Y71595638D01*
X-2056693Y71612465D01*
X-1974598Y71621746D01*
X-1746314Y71687853D01*
X-1741591Y71690141D01*
X-1741589Y71690142D01*
X-1599314Y71759074D01*
X-1532432Y71791478D01*
X-1498277Y71815885D01*
X-1343332Y71926610D01*
X-1343331Y71926611D01*
X-1339067Y71929658D01*
X-1253727Y72015746D01*
X-1175443Y72094716D01*
X-1175440Y72094720D01*
X-1171749Y72098443D01*
X-1035262Y72293005D01*
X-1033016Y72297746D01*
X-1033013Y72297751D01*
X-935757Y72503034D01*
X-935756Y72503038D01*
X-933507Y72507784D01*
X-869395Y72736636D01*
X-844759Y72973018D01*
X-844500Y73000000D01*
X-864594Y73236812D01*
X-924301Y73466852D01*
X-1021913Y73683544D01*
X-1154640Y73880692D01*
X-1249248Y73979866D01*
X-1315067Y74048862D01*
X-1315072Y74048866D01*
X-1318688Y74052657D01*
X-1509364Y74194524D01*
X-1630671Y74256200D01*
X-1716531Y74299854D01*
X-1716536Y74299856D01*
X-1721217Y74302236D01*
X-1726237Y74303795D01*
X-1726240Y74303796D01*
X-1866346Y74347300D01*
X-1899447Y74357578D01*
X-1957634Y74396257D01*
X-1985672Y74460254D01*
X-1974660Y74529250D01*
X-1928094Y74581340D01*
X-1862676Y74600000D01*
X-524000Y74600000D01*
X-456961Y74580315D01*
X-411206Y74527511D01*
X-400000Y74476000D01*
X-400000Y59124000D01*
X-419685Y59056961D01*
X-472489Y59011206D01*
X-524000Y59000000D01*
X-18500000Y59000000D01*
X-18500000Y30500000D01*
X-16517762Y27724867D01*
X-14755421Y25257589D01*
X-14732473Y25191595D01*
X-14748847Y25123671D01*
X-14799344Y25075382D01*
X-14834503Y25064849D01*
X-14834300Y25063924D01*
X-14841071Y25062435D01*
X-14847969Y25061710D01*
X-14932967Y25032774D01*
X-15011398Y25006074D01*
X-15011401Y25006073D01*
X-15017965Y25003838D01*
X-15170915Y24909743D01*
X-15299218Y24784100D01*
X-15347921Y24708528D01*
X-15364865Y24682235D01*
X-15396496Y24633154D01*
X-15457915Y24464407D01*
X-15480421Y24286247D01*
X-15462898Y24107527D01*
X-15406215Y23937131D01*
X-15313189Y23783528D01*
X-15188445Y23654352D01*
X-15038182Y23556022D01*
X-14869868Y23493427D01*
X-14691869Y23469677D01*
X-14684968Y23470305D01*
X-14684966Y23470305D01*
X-14578932Y23479955D01*
X-14513032Y23485952D01*
X-14506441Y23488094D01*
X-14506439Y23488094D01*
X-14395996Y23523979D01*
X-14342244Y23541444D01*
X-14336291Y23544993D01*
X-14336286Y23544995D01*
X-14193952Y23629844D01*
X-14193953Y23629844D01*
X-14187995Y23633395D01*
X-14101989Y23715297D01*
X-14039867Y23747274D01*
X-14016477Y23749500D01*
X-13742026Y23749500D01*
X-13674987Y23729815D01*
X-13641125Y23697575D01*
X-13548019Y23567227D01*
X-13523097Y23532336D01*
X-13500000Y23460263D01*
X-13500000Y17700000D01*
X-11663457Y17700000D01*
X-11596418Y17680315D01*
X-11557392Y17640235D01*
X-11538189Y17608528D01*
X-11413445Y17479352D01*
X-11263182Y17381022D01*
X-11094868Y17318427D01*
X-10916869Y17294677D01*
X-10909968Y17295305D01*
X-10909966Y17295305D01*
X-10803932Y17304955D01*
X-10738032Y17310952D01*
X-10731441Y17313094D01*
X-10731439Y17313094D01*
X-10573840Y17364301D01*
X-10567244Y17366444D01*
X-10561291Y17369993D01*
X-10561286Y17369995D01*
X-10418952Y17454844D01*
X-10418953Y17454844D01*
X-10412995Y17458395D01*
X-10282951Y17582235D01*
X-10261537Y17614465D01*
X-10241502Y17644620D01*
X-10188008Y17689566D01*
X-10138220Y17700000D01*
X-8151362Y17700000D01*
X-8084323Y17680315D01*
X-8063681Y17663681D01*
X-5900000Y15500000D01*
X-5786755Y15500000D01*
X-5719716Y15480315D01*
X-5673961Y15427511D01*
X-5663347Y15388100D01*
X-5658575Y15339430D01*
X-5657898Y15332527D01*
X-5601215Y15162131D01*
X-5579040Y15125516D01*
X-5540933Y15062595D01*
X-5508189Y15008528D01*
X-5383445Y14879352D01*
X-5233182Y14781022D01*
X-5064868Y14718427D01*
X-4886869Y14694677D01*
X-4879968Y14695305D01*
X-4879966Y14695305D01*
X-4773932Y14704955D01*
X-4708032Y14710952D01*
X-4701441Y14713094D01*
X-4701439Y14713094D01*
X-4543840Y14764301D01*
X-4537244Y14766444D01*
X-4531291Y14769993D01*
X-4531286Y14769995D01*
X-4388952Y14854844D01*
X-4388953Y14854844D01*
X-4382995Y14858395D01*
X-4252951Y14982235D01*
X-4153575Y15131808D01*
X-4148617Y15144858D01*
X-4092267Y15293201D01*
X-4092267Y15293202D01*
X-4089806Y15299680D01*
X-4085867Y15327703D01*
X-4079080Y15376000D01*
X-4076655Y15393258D01*
X-4047832Y15456905D01*
X-3989175Y15494866D01*
X-3953862Y15500000D01*
X-524000Y15500000D01*
X-456961Y15480315D01*
X-411206Y15427511D01*
X-400000Y15376000D01*
X-400000Y524000D01*
X-419685Y456961D01*
X-472489Y411206D01*
X-524000Y400000D01*
X-32476000Y400000D01*
X-32543039Y419685D01*
X-32588794Y472489D01*
X-32600000Y524000D01*
X-32600000Y5062994D01*
X-7004510Y5062994D01*
X-7004338Y5058612D01*
X-7004338Y5058606D01*
X-7002035Y5000000D01*
X-6993389Y4779928D01*
X-6942494Y4501252D01*
X-6852840Y4232528D01*
X-6726218Y3979117D01*
X-6723723Y3975507D01*
X-6723720Y3975502D01*
X-6614752Y3817839D01*
X-6565153Y3746076D01*
X-6562183Y3742864D01*
X-6562179Y3742858D01*
X-6431445Y3601431D01*
X-6372859Y3538053D01*
X-6153173Y3359201D01*
X-6149419Y3356941D01*
X-5985011Y3257959D01*
X-5910478Y3213086D01*
X-5772520Y3154669D01*
X-5653655Y3104336D01*
X-5653652Y3104335D01*
X-5649616Y3102626D01*
X-5645373Y3101501D01*
X-5380041Y3031149D01*
X-5380036Y3031148D01*
X-5375793Y3030023D01*
X-5371436Y3029507D01*
X-5371429Y3029506D01*
X-5205437Y3009860D01*
X-5094472Y2996726D01*
X-5090095Y2996829D01*
X-5090092Y2996829D01*
X-4915142Y3000952D01*
X-4811266Y3003400D01*
X-4806951Y3004118D01*
X-4806943Y3004119D01*
X-4536155Y3049191D01*
X-4536151Y3049192D01*
X-4531825Y3049912D01*
X-4527647Y3051233D01*
X-4527640Y3051235D01*
X-4359738Y3104336D01*
X-4261726Y3135333D01*
X-4006358Y3257959D01*
X-4002715Y3260393D01*
X-4002710Y3260396D01*
X-3850699Y3361967D01*
X-3770815Y3415344D01*
X-3559798Y3604347D01*
X-3377516Y3821197D01*
X-3227608Y4061567D01*
X-3113064Y4320661D01*
X-3036169Y4593310D01*
X-2998457Y4874074D01*
X-2994500Y5000000D01*
X-3014508Y5282577D01*
X-3074131Y5559517D01*
X-3172181Y5825292D01*
X-3200747Y5878235D01*
X-3304614Y6070736D01*
X-3304618Y6070742D01*
X-3306700Y6074601D01*
X-3475006Y6302468D01*
X-3524508Y6352754D01*
X-3670660Y6501221D01*
X-3670666Y6501226D01*
X-3673739Y6504348D01*
X-3898935Y6676212D01*
X-3962943Y6712058D01*
X-4142276Y6812490D01*
X-4142282Y6812493D01*
X-4146100Y6814631D01*
X-4410302Y6916843D01*
X-4414562Y6917830D01*
X-4414564Y6917831D01*
X-4548286Y6948826D01*
X-4686271Y6980809D01*
X-4898224Y6999166D01*
X-4964133Y7004875D01*
X-4964135Y7004875D01*
X-4968499Y7005253D01*
X-5251356Y6989686D01*
X-5255662Y6988830D01*
X-5255666Y6988829D01*
X-5389116Y6962284D01*
X-5529197Y6934420D01*
X-5796480Y6840557D01*
X-6047871Y6709970D01*
X-6278354Y6545264D01*
X-6281524Y6542240D01*
X-6281530Y6542235D01*
X-6480157Y6352754D01*
X-6483330Y6349727D01*
X-6658710Y6127258D01*
X-6800994Y5882298D01*
X-6802638Y5878239D01*
X-6802640Y5878235D01*
X-6825748Y5821183D01*
X-6907344Y5619734D01*
X-6908401Y5615480D01*
X-6908402Y5615476D01*
X-6921281Y5563626D01*
X-6975637Y5344804D01*
X-7004510Y5062994D01*
X-32600000Y5062994D01*
X-32600000Y12011247D01*
X-24305421Y12011247D01*
X-24287898Y11832527D01*
X-24231215Y11662131D01*
X-24138189Y11508528D01*
X-24013445Y11379352D01*
X-23863182Y11281022D01*
X-23694868Y11218427D01*
X-23516869Y11194677D01*
X-23509968Y11195305D01*
X-23509966Y11195305D01*
X-23403932Y11204955D01*
X-23338032Y11210952D01*
X-23331441Y11213094D01*
X-23331439Y11213094D01*
X-23173840Y11264301D01*
X-23167244Y11266444D01*
X-23161291Y11269993D01*
X-23161286Y11269995D01*
X-23018952Y11354844D01*
X-23018953Y11354844D01*
X-23012995Y11358395D01*
X-22882951Y11482235D01*
X-22783575Y11631808D01*
X-22719806Y11799680D01*
X-22715189Y11832527D01*
X-22695356Y11973652D01*
X-22695356Y11973653D01*
X-22694814Y11977509D01*
X-22694500Y12000000D01*
X-22696533Y12018128D01*
X-22713744Y12171569D01*
X-22713745Y12171572D01*
X-22714517Y12178457D01*
X-22773574Y12348045D01*
X-22868735Y12500335D01*
X-22873619Y12505253D01*
X-22873622Y12505257D01*
X-22938487Y12570577D01*
X-22971758Y12632016D01*
X-22974500Y12657951D01*
X-22974500Y13811247D01*
X-22705421Y13811247D01*
X-22704744Y13804345D01*
X-22692109Y13675480D01*
X-22687898Y13632527D01*
X-22673839Y13590264D01*
X-22641430Y13492840D01*
X-22631215Y13462131D01*
X-22538189Y13308528D01*
X-22413445Y13179352D01*
X-22263182Y13081022D01*
X-22094868Y13018427D01*
X-21916869Y12994677D01*
X-21909968Y12995305D01*
X-21909966Y12995305D01*
X-21803932Y13004955D01*
X-21738032Y13010952D01*
X-21731441Y13013094D01*
X-21731439Y13013094D01*
X-21622603Y13048457D01*
X-21567244Y13066444D01*
X-21469952Y13124442D01*
X-21402291Y13141860D01*
X-21335952Y13119932D01*
X-21318780Y13105611D01*
X-21180994Y12967825D01*
X-21147509Y12906502D01*
X-21145171Y12883226D01*
X-21145421Y12881247D01*
X-21144744Y12874342D01*
X-21144698Y12873878D01*
X-21127898Y12702527D01*
X-21071215Y12532131D01*
X-20978189Y12378528D01*
X-20853445Y12249352D01*
X-20703182Y12151022D01*
X-20534868Y12088427D01*
X-20356869Y12064677D01*
X-20349968Y12065305D01*
X-20349966Y12065305D01*
X-20243932Y12074955D01*
X-20178032Y12080952D01*
X-20171441Y12083094D01*
X-20171439Y12083094D01*
X-20013840Y12134301D01*
X-20007244Y12136444D01*
X-20001291Y12139993D01*
X-20001286Y12139995D01*
X-19858952Y12224844D01*
X-19858953Y12224844D01*
X-19852995Y12228395D01*
X-19722951Y12352235D01*
X-19623575Y12501808D01*
X-19618963Y12513947D01*
X-19562267Y12663201D01*
X-19562267Y12663202D01*
X-19559806Y12669680D01*
X-19555189Y12702527D01*
X-19535356Y12843652D01*
X-19535356Y12843653D01*
X-19534814Y12847509D01*
X-19534500Y12870000D01*
X-19545473Y12967825D01*
X-19553744Y13041569D01*
X-19553745Y13041572D01*
X-19554517Y13048457D01*
X-19613574Y13218045D01*
X-19708735Y13370335D01*
X-19835271Y13497757D01*
X-19986892Y13593979D01*
X-19995114Y13596907D01*
X-20149535Y13651894D01*
X-20149539Y13651895D01*
X-20156063Y13654218D01*
X-20334377Y13675480D01*
X-20341271Y13674755D01*
X-20348205Y13674804D01*
X-20348188Y13677245D01*
X-20405743Y13687763D01*
X-20437671Y13710841D01*
X-20887258Y14160428D01*
X-20890852Y14164176D01*
X-20926124Y14202534D01*
X-20926126Y14202536D01*
X-20931847Y14208757D01*
X-20939030Y14213211D01*
X-20939033Y14213213D01*
X-20966996Y14230551D01*
X-20976623Y14237167D01*
X-21002841Y14257068D01*
X-21002843Y14257069D01*
X-21009575Y14262179D01*
X-21022611Y14267340D01*
X-21042311Y14277248D01*
X-21042855Y14277585D01*
X-21054226Y14284636D01*
X-21093947Y14296176D01*
X-21104992Y14299957D01*
X-21143458Y14315187D01*
X-21151865Y14316071D01*
X-21151866Y14316071D01*
X-21155709Y14316475D01*
X-21157406Y14316653D01*
X-21179033Y14320896D01*
X-21192503Y14324809D01*
X-21199495Y14325322D01*
X-21199638Y14325333D01*
X-21199640Y14325333D01*
X-21201913Y14325500D01*
X-21235083Y14325500D01*
X-21248038Y14326179D01*
X-21255882Y14327003D01*
X-21320498Y14353583D01*
X-21330914Y14362949D01*
X-21390388Y14422840D01*
X-21390389Y14422841D01*
X-21395271Y14427757D01*
X-21546892Y14523979D01*
X-21566817Y14531074D01*
X-21709535Y14581894D01*
X-21709539Y14581895D01*
X-21716063Y14584218D01*
X-21894377Y14605480D01*
X-21901266Y14604756D01*
X-21901270Y14604756D01*
X-22066072Y14587435D01*
X-22066073Y14587435D01*
X-22072969Y14586710D01*
X-22157967Y14557774D01*
X-22236398Y14531074D01*
X-22236401Y14531073D01*
X-22242965Y14528838D01*
X-22263532Y14516185D01*
X-22346256Y14465293D01*
X-22395915Y14434743D01*
X-22524218Y14309100D01*
X-22621496Y14158154D01*
X-22682915Y13989407D01*
X-22705421Y13811247D01*
X-22974500Y13811247D01*
X-22974500Y14398254D01*
X-22954815Y14465293D01*
X-22902011Y14511048D01*
X-22888818Y14516185D01*
X-22876264Y14520264D01*
X-22857244Y14526444D01*
X-22851291Y14529993D01*
X-22851286Y14529995D01*
X-22708952Y14614844D01*
X-22708953Y14614844D01*
X-22702995Y14618395D01*
X-22572951Y14742235D01*
X-22473575Y14891808D01*
X-22456576Y14936556D01*
X-22412267Y15053201D01*
X-22412267Y15053202D01*
X-22409806Y15059680D01*
X-22406331Y15084402D01*
X-22385356Y15233652D01*
X-22385356Y15233653D01*
X-22384814Y15237509D01*
X-22384500Y15260000D01*
X-22397511Y15376000D01*
X-22403744Y15431569D01*
X-22403745Y15431572D01*
X-22404517Y15438457D01*
X-22463574Y15608045D01*
X-22558735Y15760335D01*
X-22685271Y15887757D01*
X-22836892Y15983979D01*
X-22856817Y15991074D01*
X-22999535Y16041894D01*
X-22999539Y16041895D01*
X-23006063Y16044218D01*
X-23184377Y16065480D01*
X-23191266Y16064756D01*
X-23191270Y16064756D01*
X-23356072Y16047435D01*
X-23356073Y16047435D01*
X-23362969Y16046710D01*
X-23447967Y16017774D01*
X-23526398Y15991074D01*
X-23526401Y15991073D01*
X-23532965Y15988838D01*
X-23685915Y15894743D01*
X-23814218Y15769100D01*
X-23911496Y15618154D01*
X-23913866Y15611642D01*
X-23961665Y15480315D01*
X-23972915Y15449407D01*
X-23995421Y15271247D01*
X-23992113Y15237509D01*
X-23987298Y15188398D01*
X-23991631Y15141700D01*
X-23996180Y15126044D01*
X-23999962Y15114997D01*
X-24015187Y15076542D01*
X-24016071Y15068135D01*
X-24016071Y15068134D01*
X-24016653Y15062595D01*
X-24020896Y15040967D01*
X-24024809Y15027497D01*
X-24025500Y15018087D01*
X-24025500Y14984917D01*
X-24026179Y14971957D01*
X-24030238Y14933336D01*
X-24028829Y14925006D01*
X-24028829Y14925003D01*
X-24027236Y14915587D01*
X-24025500Y14894908D01*
X-24025500Y12657896D01*
X-24045185Y12590857D01*
X-24062741Y12569302D01*
X-24124218Y12509100D01*
X-24221496Y12358154D01*
X-24282915Y12189407D01*
X-24289876Y12134301D01*
X-24298671Y12064677D01*
X-24305421Y12011247D01*
X-32600000Y12011247D01*
X-32600000Y14936556D01*
X-32599995Y14936615D01*
X-32599986Y14936644D01*
X-32599986Y15063356D01*
X-32606821Y15084392D01*
X-32611363Y15103312D01*
X-32614822Y15125152D01*
X-32619252Y15133847D01*
X-32619254Y15133852D01*
X-32624862Y15144858D01*
X-32632308Y15162832D01*
X-32632892Y15164632D01*
X-32639142Y15183866D01*
X-32652143Y15201761D01*
X-32662306Y15218346D01*
X-32667918Y15229359D01*
X-32672348Y15238053D01*
X-32761947Y15327652D01*
X-32761973Y15327665D01*
X-32762017Y15327703D01*
X-35172297Y17737983D01*
X-35172335Y17738027D01*
X-35172348Y17738053D01*
X-35261947Y17827652D01*
X-35270641Y17832082D01*
X-35281654Y17837694D01*
X-35298239Y17847857D01*
X-35308240Y17855123D01*
X-35308241Y17855124D01*
X-35316134Y17860858D01*
X-35337173Y17867694D01*
X-35355142Y17875138D01*
X-35366148Y17880746D01*
X-35366153Y17880748D01*
X-35374848Y17885178D01*
X-35396689Y17888637D01*
X-35415608Y17893179D01*
X-35427364Y17896999D01*
X-35427366Y17896999D01*
X-35436644Y17900014D01*
X-35563356Y17900014D01*
X-35563385Y17900005D01*
X-35563444Y17900000D01*
X-53476000Y17900000D01*
X-53543039Y17919685D01*
X-53588794Y17972489D01*
X-53600000Y18024000D01*
X-53600000Y21258247D01*
X-47611104Y21258247D01*
X-47597274Y21047240D01*
X-47545222Y20842286D01*
X-47542846Y20837132D01*
X-47460033Y20657498D01*
X-47456692Y20650250D01*
X-47420936Y20599656D01*
X-47356937Y20509100D01*
X-47334649Y20477563D01*
X-47183180Y20330008D01*
X-47178457Y20326852D01*
X-47178453Y20326849D01*
X-47107380Y20279360D01*
X-47007357Y20212527D01*
X-46813069Y20129054D01*
X-46712317Y20106256D01*
X-46612370Y20083640D01*
X-46612368Y20083640D01*
X-46606823Y20082385D01*
X-46483537Y20077542D01*
X-46401207Y20074307D01*
X-46401205Y20074307D01*
X-46395526Y20074084D01*
X-46389906Y20074899D01*
X-46389903Y20074899D01*
X-46191880Y20103611D01*
X-46191877Y20103612D01*
X-46186254Y20104427D01*
X-46083774Y20139214D01*
X-45991406Y20170568D01*
X-45991403Y20170570D01*
X-45986016Y20172398D01*
X-45981055Y20175176D01*
X-45981049Y20175179D01*
X-45874280Y20234973D01*
X-45801518Y20275722D01*
X-45638938Y20410938D01*
X-45503722Y20573518D01*
X-45442837Y20682235D01*
X-45403179Y20753049D01*
X-45403176Y20753055D01*
X-45400398Y20758016D01*
X-45391503Y20784218D01*
X-45334256Y20952867D01*
X-45332427Y20958254D01*
X-45331611Y20963880D01*
X-45302608Y21163910D01*
X-45302608Y21163915D01*
X-45302084Y21167526D01*
X-45301822Y21177509D01*
X-45300596Y21224339D01*
X-45300500Y21228000D01*
X-45303279Y21258247D01*
X-42731104Y21258247D01*
X-42717274Y21047240D01*
X-42665222Y20842286D01*
X-42662846Y20837132D01*
X-42580033Y20657498D01*
X-42576692Y20650250D01*
X-42540936Y20599656D01*
X-42476937Y20509100D01*
X-42454649Y20477563D01*
X-42303180Y20330008D01*
X-42298457Y20326852D01*
X-42298453Y20326849D01*
X-42227380Y20279360D01*
X-42127357Y20212527D01*
X-41933069Y20129054D01*
X-41832317Y20106256D01*
X-41732370Y20083640D01*
X-41732368Y20083640D01*
X-41726823Y20082385D01*
X-41603537Y20077542D01*
X-41521207Y20074307D01*
X-41521205Y20074307D01*
X-41515526Y20074084D01*
X-41509906Y20074899D01*
X-41509903Y20074899D01*
X-41311880Y20103611D01*
X-41311877Y20103612D01*
X-41306254Y20104427D01*
X-41203774Y20139214D01*
X-41111406Y20170568D01*
X-41111403Y20170570D01*
X-41106016Y20172398D01*
X-41101055Y20175176D01*
X-41101049Y20175179D01*
X-40994280Y20234973D01*
X-40921518Y20275722D01*
X-40758938Y20410938D01*
X-40623722Y20573518D01*
X-40562837Y20682235D01*
X-40523179Y20753049D01*
X-40523176Y20753055D01*
X-40520398Y20758016D01*
X-40511503Y20784218D01*
X-40454256Y20952867D01*
X-40452427Y20958254D01*
X-40451611Y20963880D01*
X-40422608Y21163910D01*
X-40422608Y21163915D01*
X-40422084Y21167526D01*
X-40421822Y21177509D01*
X-40420596Y21224339D01*
X-40420500Y21228000D01*
X-40439849Y21438573D01*
X-40497248Y21642094D01*
X-40499760Y21647188D01*
X-40499762Y21647193D01*
X-40588259Y21826647D01*
X-40590774Y21831747D01*
X-40717296Y22001180D01*
X-40872576Y22144720D01*
X-40877386Y22147755D01*
X-41046605Y22254524D01*
X-41046607Y22254525D01*
X-41051414Y22257558D01*
X-41247820Y22335916D01*
X-41253401Y22337026D01*
X-41253404Y22337027D01*
X-41397031Y22365596D01*
X-41455217Y22377170D01*
X-41460904Y22377244D01*
X-41460909Y22377245D01*
X-41660972Y22379864D01*
X-41660977Y22379864D01*
X-41666659Y22379938D01*
X-41875065Y22344127D01*
X-41880398Y22342159D01*
X-41880400Y22342159D01*
X-41971561Y22308528D01*
X-42073456Y22270937D01*
X-42255186Y22162819D01*
X-42414170Y22023394D01*
X-42459349Y21966084D01*
X-42541567Y21861792D01*
X-42541570Y21861788D01*
X-42545084Y21857330D01*
X-42643543Y21670191D01*
X-42645229Y21664760D01*
X-42645231Y21664756D01*
X-42693741Y21508528D01*
X-42706250Y21468242D01*
X-42706917Y21462605D01*
X-42706918Y21462601D01*
X-42730134Y21266444D01*
X-42731104Y21258247D01*
X-45303279Y21258247D01*
X-45319849Y21438573D01*
X-45377248Y21642094D01*
X-45379760Y21647188D01*
X-45379762Y21647193D01*
X-45468259Y21826647D01*
X-45470774Y21831747D01*
X-45597296Y22001180D01*
X-45752576Y22144720D01*
X-45757386Y22147755D01*
X-45926605Y22254524D01*
X-45926607Y22254525D01*
X-45931414Y22257558D01*
X-46127820Y22335916D01*
X-46133401Y22337026D01*
X-46133404Y22337027D01*
X-46277031Y22365596D01*
X-46335217Y22377170D01*
X-46340904Y22377244D01*
X-46340909Y22377245D01*
X-46540972Y22379864D01*
X-46540977Y22379864D01*
X-46546659Y22379938D01*
X-46755065Y22344127D01*
X-46760398Y22342159D01*
X-46760400Y22342159D01*
X-46851561Y22308528D01*
X-46953456Y22270937D01*
X-47135186Y22162819D01*
X-47294170Y22023394D01*
X-47339349Y21966084D01*
X-47421567Y21861792D01*
X-47421570Y21861788D01*
X-47425084Y21857330D01*
X-47523543Y21670191D01*
X-47525229Y21664760D01*
X-47525231Y21664756D01*
X-47573741Y21508528D01*
X-47586250Y21468242D01*
X-47586917Y21462605D01*
X-47586918Y21462601D01*
X-47610134Y21266444D01*
X-47611104Y21258247D01*
X-53600000Y21258247D01*
X-53600000Y23150247D01*
X-32655104Y23150247D01*
X-32641274Y22939240D01*
X-32589222Y22734286D01*
X-32500692Y22542250D01*
X-32497414Y22537612D01*
X-32384025Y22377170D01*
X-32378649Y22369563D01*
X-32374578Y22365597D01*
X-32374577Y22365596D01*
X-32341944Y22333806D01*
X-32227180Y22222008D01*
X-32222457Y22218852D01*
X-32222453Y22218849D01*
X-32178389Y22189407D01*
X-32051357Y22104527D01*
X-31857069Y22021054D01*
X-31788242Y22005480D01*
X-31656370Y21975640D01*
X-31656368Y21975640D01*
X-31650823Y21974385D01*
X-31527537Y21969542D01*
X-31445207Y21966307D01*
X-31445205Y21966307D01*
X-31439526Y21966084D01*
X-31433906Y21966899D01*
X-31433903Y21966899D01*
X-31235880Y21995611D01*
X-31235877Y21995612D01*
X-31230254Y21996427D01*
X-31127774Y22031214D01*
X-31035406Y22062568D01*
X-31035403Y22062570D01*
X-31030016Y22064398D01*
X-31025055Y22067176D01*
X-31025049Y22067179D01*
X-30918280Y22126973D01*
X-30845518Y22167722D01*
X-30682938Y22302938D01*
X-30547722Y22465518D01*
X-30501861Y22547408D01*
X-30447179Y22645049D01*
X-30447176Y22645055D01*
X-30444398Y22650016D01*
X-30376427Y22850254D01*
X-30375611Y22855880D01*
X-30346608Y23055910D01*
X-30346608Y23055915D01*
X-30346084Y23059526D01*
X-30344500Y23120000D01*
X-30363849Y23330573D01*
X-30421248Y23534094D01*
X-30423760Y23539188D01*
X-30423762Y23539193D01*
X-30512259Y23718647D01*
X-30514774Y23723747D01*
X-30641296Y23893180D01*
X-30796576Y24036720D01*
X-30856739Y24074680D01*
X-30970605Y24146524D01*
X-30970607Y24146525D01*
X-30975414Y24149558D01*
X-31171820Y24227916D01*
X-31177401Y24229026D01*
X-31177404Y24229027D01*
X-31295457Y24252509D01*
X-31379217Y24269170D01*
X-31384904Y24269244D01*
X-31384909Y24269245D01*
X-31584972Y24271864D01*
X-31584977Y24271864D01*
X-31590659Y24271938D01*
X-31799065Y24236127D01*
X-31804398Y24234159D01*
X-31804400Y24234159D01*
X-31938712Y24184609D01*
X-31997456Y24162937D01*
X-32179186Y24054819D01*
X-32338170Y23915394D01*
X-32352638Y23897041D01*
X-32465567Y23753792D01*
X-32465570Y23753788D01*
X-32469084Y23749330D01*
X-32567543Y23562191D01*
X-32569229Y23556760D01*
X-32569231Y23556756D01*
X-32628564Y23365672D01*
X-32630250Y23360242D01*
X-32630917Y23354605D01*
X-32630918Y23354601D01*
X-32636303Y23309100D01*
X-32655104Y23150247D01*
X-53600000Y23150247D01*
X-53600000Y28030247D01*
X-32655104Y28030247D01*
X-32641274Y27819240D01*
X-32589222Y27614286D01*
X-32500692Y27422250D01*
X-32378649Y27249563D01*
X-32227180Y27102008D01*
X-32222457Y27098852D01*
X-32222453Y27098849D01*
X-32151380Y27051360D01*
X-32051357Y26984527D01*
X-31857069Y26901054D01*
X-31756317Y26878256D01*
X-31656370Y26855640D01*
X-31656368Y26855640D01*
X-31650823Y26854385D01*
X-31527537Y26849542D01*
X-31445207Y26846307D01*
X-31445205Y26846307D01*
X-31439526Y26846084D01*
X-31433906Y26846899D01*
X-31433903Y26846899D01*
X-31235880Y26875611D01*
X-31235877Y26875612D01*
X-31230254Y26876427D01*
X-31127774Y26911214D01*
X-31035406Y26942568D01*
X-31035403Y26942570D01*
X-31030016Y26944398D01*
X-31025055Y26947176D01*
X-31025049Y26947179D01*
X-30918280Y27006973D01*
X-30845518Y27047722D01*
X-30682938Y27182938D01*
X-30547722Y27345518D01*
X-30501861Y27427408D01*
X-30447179Y27525049D01*
X-30447176Y27525055D01*
X-30444398Y27530016D01*
X-30376427Y27730254D01*
X-30375611Y27735880D01*
X-30346608Y27935910D01*
X-30346608Y27935915D01*
X-30346084Y27939526D01*
X-30344500Y28000000D01*
X-30363849Y28210573D01*
X-30421248Y28414094D01*
X-30423760Y28419188D01*
X-30423762Y28419193D01*
X-30512259Y28598647D01*
X-30514774Y28603747D01*
X-30641296Y28773180D01*
X-30796576Y28916720D01*
X-30975414Y29029558D01*
X-31171820Y29107916D01*
X-31177401Y29109026D01*
X-31177404Y29109027D01*
X-31275519Y29128543D01*
X-31379217Y29149170D01*
X-31384904Y29149244D01*
X-31384909Y29149245D01*
X-31584972Y29151864D01*
X-31584977Y29151864D01*
X-31590659Y29151938D01*
X-31799065Y29116127D01*
X-31804398Y29114159D01*
X-31804400Y29114159D01*
X-31938712Y29064609D01*
X-31997456Y29042937D01*
X-32179186Y28934819D01*
X-32338170Y28795394D01*
X-32352638Y28777041D01*
X-32465567Y28633792D01*
X-32465570Y28633788D01*
X-32469084Y28629330D01*
X-32567543Y28442191D01*
X-32569229Y28436760D01*
X-32569231Y28436756D01*
X-32628564Y28245672D01*
X-32630250Y28240242D01*
X-32630917Y28234605D01*
X-32630918Y28234601D01*
X-32654436Y28035893D01*
X-32655104Y28030247D01*
X-53600000Y28030247D01*
X-53600000Y33911247D01*
X-48505421Y33911247D01*
X-48487898Y33732527D01*
X-48431215Y33562131D01*
X-48338189Y33408528D01*
X-48333370Y33403538D01*
X-48260302Y33327874D01*
X-48227892Y33265976D01*
X-48225500Y33241736D01*
X-48225500Y32615783D01*
X-48225609Y32610591D01*
X-48228145Y32550075D01*
X-48226214Y32541842D01*
X-48226214Y32541841D01*
X-48218703Y32509815D01*
X-48216574Y32498332D01*
X-48210958Y32457338D01*
X-48205389Y32444470D01*
X-48198467Y32423540D01*
X-48195265Y32409886D01*
X-48181154Y32384218D01*
X-48175337Y32373637D01*
X-48170198Y32363147D01*
X-48158757Y32336710D01*
X-48153771Y32325187D01*
X-48148453Y32318620D01*
X-48148450Y32318615D01*
X-48144945Y32314287D01*
X-48132651Y32295991D01*
X-48129031Y32289406D01*
X-48129027Y32289400D01*
X-48125895Y32283703D01*
X-48119729Y32276560D01*
X-48096278Y32253109D01*
X-48087593Y32243464D01*
X-48063152Y32213282D01*
X-48048477Y32202853D01*
X-48032627Y32189458D01*
X-47140994Y31297825D01*
X-47107509Y31236502D01*
X-47105171Y31213226D01*
X-47105421Y31211247D01*
X-47104744Y31204342D01*
X-47104698Y31203878D01*
X-47087898Y31032527D01*
X-47031215Y30862131D01*
X-47009040Y30825516D01*
X-46954065Y30734743D01*
X-46938189Y30708528D01*
X-46813445Y30579352D01*
X-46663182Y30481022D01*
X-46494868Y30418427D01*
X-46316869Y30394677D01*
X-46309968Y30395305D01*
X-46309966Y30395305D01*
X-46203932Y30404955D01*
X-46138032Y30410952D01*
X-46131441Y30413094D01*
X-46131439Y30413094D01*
X-46023871Y30448045D01*
X-45967244Y30466444D01*
X-45961291Y30469993D01*
X-45961286Y30469995D01*
X-45818952Y30554844D01*
X-45818953Y30554844D01*
X-45812995Y30558395D01*
X-45682951Y30682235D01*
X-45583575Y30831808D01*
X-45576360Y30850800D01*
X-45522267Y30993201D01*
X-45522267Y30993202D01*
X-45519806Y30999680D01*
X-45518562Y31008528D01*
X-45495356Y31173652D01*
X-45495356Y31173653D01*
X-45494814Y31177509D01*
X-45494500Y31200000D01*
X-45514517Y31378457D01*
X-45573574Y31548045D01*
X-45668735Y31700335D01*
X-45795271Y31827757D01*
X-45946892Y31923979D01*
X-46014477Y31948045D01*
X-46109535Y31981894D01*
X-46109539Y31981895D01*
X-46116063Y31984218D01*
X-46294377Y32005480D01*
X-46301271Y32004755D01*
X-46308204Y32004804D01*
X-46308187Y32007243D01*
X-46365753Y32017767D01*
X-46397672Y32040841D01*
X-46766716Y32409886D01*
X-47138181Y32781351D01*
X-47171666Y32842674D01*
X-47174500Y32869032D01*
X-47174500Y33241908D01*
X-47154815Y33308947D01*
X-47136018Y33331700D01*
X-47082951Y33382235D01*
X-46983575Y33531808D01*
X-46919806Y33699680D01*
X-46915189Y33732527D01*
X-46895356Y33873652D01*
X-46895356Y33873653D01*
X-46894814Y33877509D01*
X-46894500Y33900000D01*
X-46899386Y33943558D01*
X-46913744Y34071569D01*
X-46913745Y34071572D01*
X-46914517Y34078457D01*
X-46973574Y34248045D01*
X-47068735Y34400335D01*
X-47195271Y34527757D01*
X-47346892Y34623979D01*
X-47366817Y34631074D01*
X-47509535Y34681894D01*
X-47509539Y34681895D01*
X-47516063Y34684218D01*
X-47694377Y34705480D01*
X-47701266Y34704756D01*
X-47701270Y34704756D01*
X-47866072Y34687435D01*
X-47866073Y34687435D01*
X-47872969Y34686710D01*
X-47948958Y34660841D01*
X-48036398Y34631074D01*
X-48036401Y34631073D01*
X-48042965Y34628838D01*
X-48195915Y34534743D01*
X-48324218Y34409100D01*
X-48421496Y34258154D01*
X-48438079Y34212593D01*
X-48479707Y34098220D01*
X-48482915Y34089407D01*
X-48505421Y33911247D01*
X-53600000Y33911247D01*
X-53600000Y36405592D01*
X-33770500Y36405592D01*
X-33770500Y34615421D01*
X-33770012Y34611559D01*
X-33770012Y34611557D01*
X-33763139Y34557152D01*
X-33754906Y34491984D01*
X-33694419Y34339210D01*
X-33597839Y34206279D01*
X-33562641Y34177161D01*
X-33477246Y34106516D01*
X-33477243Y34106514D01*
X-33471234Y34101543D01*
X-33464175Y34098221D01*
X-33464173Y34098220D01*
X-33343570Y34041468D01*
X-33322561Y34031582D01*
X-33314902Y34030121D01*
X-33314899Y34030120D01*
X-33277400Y34022967D01*
X-33180592Y34004500D01*
X-31840421Y34004500D01*
X-31836559Y34004988D01*
X-31836557Y34004988D01*
X-31724726Y34019116D01*
X-31716984Y34020094D01*
X-31564210Y34080581D01*
X-31431279Y34177161D01*
X-31359456Y34263981D01*
X-31331516Y34297754D01*
X-31331514Y34297757D01*
X-31326543Y34303766D01*
X-31267859Y34428474D01*
X-31221505Y34480751D01*
X-31154245Y34499668D01*
X-31087435Y34479219D01*
X-31052801Y34444926D01*
X-31034521Y34417774D01*
X-31027968Y34409624D01*
X-30874727Y34248985D01*
X-30866889Y34242051D01*
X-30688782Y34109536D01*
X-30679881Y34104017D01*
X-30481981Y34003399D01*
X-30472302Y33999469D01*
X-30260274Y33933632D01*
X-30250056Y33931386D01*
X-30227673Y33928419D01*
X-30213733Y33930581D01*
X-30210000Y33943558D01*
X-30210000Y35236668D01*
X-29710000Y35236668D01*
X-29710000Y33945375D01*
X-29706090Y33932058D01*
X-29695648Y33930556D01*
X-29570025Y33956914D01*
X-29559991Y33959924D01*
X-29353510Y34041468D01*
X-29344139Y34046120D01*
X-29154346Y34161289D01*
X-29145889Y34167456D01*
X-28978211Y34312959D01*
X-28970918Y34320459D01*
X-28830157Y34492129D01*
X-28824229Y34500753D01*
X-28714401Y34693695D01*
X-28710017Y34703183D01*
X-28634266Y34911872D01*
X-28631541Y34921973D01*
X-28591829Y35141582D01*
X-28590910Y35149683D01*
X-28590069Y35167517D01*
X-28590000Y35170418D01*
X-28590000Y35232170D01*
X-28594404Y35247169D01*
X-28595774Y35248356D01*
X-28603332Y35250000D01*
X-29692170Y35250000D01*
X-29707169Y35245596D01*
X-29708356Y35244226D01*
X-29710000Y35236668D01*
X-30210000Y35236668D01*
X-30210000Y37054625D01*
X-30210533Y37056442D01*
X-29710000Y37056442D01*
X-29710000Y35767830D01*
X-29705596Y35752831D01*
X-29704226Y35751644D01*
X-29696668Y35750000D01*
X-28607830Y35750000D01*
X-28592831Y35754404D01*
X-28591644Y35755774D01*
X-28590000Y35763332D01*
X-28590000Y35781300D01*
X-28590222Y35786543D01*
X-28604214Y35951440D01*
X-28605978Y35961757D01*
X-28661749Y36176636D01*
X-28665226Y36186510D01*
X-28756407Y36388924D01*
X-28761497Y36398069D01*
X-28885479Y36582226D01*
X-28892032Y36590376D01*
X-29045273Y36751015D01*
X-29053111Y36757949D01*
X-29231218Y36890464D01*
X-29240119Y36895983D01*
X-29438019Y36996601D01*
X-29447698Y37000531D01*
X-29659726Y37066368D01*
X-29669944Y37068614D01*
X-29692327Y37071581D01*
X-29706267Y37069419D01*
X-29710000Y37056442D01*
X-30210533Y37056442D01*
X-30213910Y37067942D01*
X-30224352Y37069444D01*
X-30349975Y37043086D01*
X-30360009Y37040076D01*
X-30566490Y36958532D01*
X-30575861Y36953880D01*
X-30765654Y36838711D01*
X-30774111Y36832544D01*
X-30941789Y36687041D01*
X-30949082Y36679541D01*
X-31060893Y36543179D01*
X-31118622Y36503819D01*
X-31188465Y36501919D01*
X-31248249Y36538080D01*
X-31272072Y36576155D01*
X-31274476Y36582226D01*
X-31305581Y36660790D01*
X-31402161Y36793721D01*
X-31456545Y36838711D01*
X-31522754Y36893484D01*
X-31522757Y36893486D01*
X-31528766Y36898457D01*
X-31535825Y36901779D01*
X-31535827Y36901780D01*
X-31670379Y36965096D01*
X-31670381Y36965096D01*
X-31677439Y36968418D01*
X-31685098Y36969879D01*
X-31685101Y36969880D01*
X-31744290Y36981171D01*
X-31819408Y36995500D01*
X-33159579Y36995500D01*
X-33163441Y36995012D01*
X-33163443Y36995012D01*
X-33242761Y36984992D01*
X-33283016Y36979906D01*
X-33435790Y36919419D01*
X-33568721Y36822839D01*
X-33592809Y36793721D01*
X-33668484Y36702246D01*
X-33668486Y36702243D01*
X-33673457Y36696234D01*
X-33676779Y36689175D01*
X-33676780Y36689173D01*
X-33687166Y36667102D01*
X-33743418Y36547561D01*
X-33770500Y36405592D01*
X-53600000Y36405592D01*
X-53600000Y43873235D01*
X-43977765Y43873235D01*
X-43969192Y43861899D01*
X-43860209Y43781989D01*
X-43852439Y43777134D01*
X-43623807Y43656846D01*
X-43615404Y43653192D01*
X-43371515Y43568022D01*
X-43362645Y43565645D01*
X-43108847Y43517460D01*
X-43099736Y43516422D01*
X-43045552Y43514294D01*
X-42979337Y43491994D01*
X-42935690Y43437434D01*
X-42928468Y43367939D01*
X-42932487Y43352074D01*
X-42985713Y43188264D01*
X-43000500Y43047573D01*
X-43000500Y41080880D01*
X-43002025Y41061495D01*
X-43004259Y41047390D01*
X-43003919Y41040902D01*
X-43003919Y41040901D01*
X-43000670Y40978906D01*
X-43000500Y40972417D01*
X-43000500Y40952427D01*
X-43000162Y40949207D01*
X-43000161Y40949197D01*
X-42998410Y40932542D01*
X-42997901Y40926080D01*
X-42994352Y40858349D01*
X-42992670Y40852073D01*
X-42992670Y40852072D01*
X-42990725Y40844814D01*
X-42987178Y40825677D01*
X-42985713Y40811736D01*
X-42964750Y40747217D01*
X-42962915Y40741025D01*
X-42945357Y40675498D01*
X-42942405Y40669704D01*
X-42942404Y40669702D01*
X-42938992Y40663005D01*
X-42931548Y40645035D01*
X-42927215Y40631700D01*
X-42893290Y40572941D01*
X-42890210Y40567266D01*
X-42859416Y40506829D01*
X-42855329Y40501782D01*
X-42850596Y40495937D01*
X-42839575Y40479901D01*
X-42832565Y40467760D01*
X-42828217Y40462931D01*
X-42787179Y40417353D01*
X-42782966Y40412420D01*
X-42772433Y40399414D01*
X-42770389Y40396890D01*
X-42756265Y40382766D01*
X-42751796Y40378057D01*
X-42710245Y40331909D01*
X-42710241Y40331905D01*
X-42705898Y40327082D01*
X-42700646Y40323266D01*
X-42700639Y40323260D01*
X-42694346Y40318688D01*
X-42679550Y40306051D01*
X-40193943Y37820443D01*
X-40181310Y37805653D01*
X-40172918Y37794102D01*
X-40168088Y37789753D01*
X-40121952Y37748212D01*
X-40117243Y37743743D01*
X-40103111Y37729611D01*
X-40087555Y37717014D01*
X-40082652Y37712826D01*
X-40032240Y37667435D01*
X-40026614Y37664187D01*
X-40020100Y37660426D01*
X-40004063Y37649404D01*
X-39993171Y37640584D01*
X-39987385Y37637636D01*
X-39987382Y37637634D01*
X-39932734Y37609790D01*
X-39927059Y37606710D01*
X-39868300Y37572785D01*
X-39858013Y37569443D01*
X-39854965Y37568452D01*
X-39836995Y37561008D01*
X-39830298Y37557596D01*
X-39830296Y37557595D01*
X-39824502Y37554643D01*
X-39758975Y37537085D01*
X-39752783Y37535250D01*
X-39688264Y37514287D01*
X-39681799Y37513608D01*
X-39681796Y37513607D01*
X-39674323Y37512822D01*
X-39655186Y37509275D01*
X-39641651Y37505648D01*
X-39573920Y37502099D01*
X-39567458Y37501590D01*
X-39550803Y37499839D01*
X-39550793Y37499838D01*
X-39547573Y37499500D01*
X-39527583Y37499500D01*
X-39521094Y37499330D01*
X-39459101Y37496081D01*
X-39459099Y37496081D01*
X-39452610Y37495741D01*
X-39438505Y37497975D01*
X-39419120Y37499500D01*
X-28452427Y37499500D01*
X-28371569Y37507998D01*
X-28318194Y37513608D01*
X-28318192Y37513608D01*
X-28311736Y37514287D01*
X-28192711Y37552961D01*
X-28137879Y37570777D01*
X-28137877Y37570778D01*
X-28131700Y37572785D01*
X-27967760Y37667435D01*
X-27898706Y37729611D01*
X-27831912Y37789753D01*
X-27827082Y37794102D01*
X-27715814Y37947250D01*
X-27638818Y38120185D01*
X-27637467Y38126539D01*
X-27600812Y38298986D01*
X-27600812Y38298991D01*
X-27599460Y38305349D01*
X-27599460Y38494651D01*
X-27600812Y38501009D01*
X-27600812Y38501014D01*
X-27637467Y38673461D01*
X-27637468Y38673465D01*
X-27638818Y38679815D01*
X-27715814Y38852750D01*
X-27827082Y39005898D01*
X-27967760Y39132565D01*
X-28131700Y39227215D01*
X-28137877Y39229222D01*
X-28137879Y39229223D01*
X-28252433Y39266444D01*
X-28311736Y39285713D01*
X-28318192Y39286392D01*
X-28318194Y39286392D01*
X-28371569Y39292002D01*
X-28452427Y39300500D01*
X-39075638Y39300500D01*
X-39142677Y39320185D01*
X-39163319Y39336819D01*
X-41163181Y41336680D01*
X-41196666Y41398003D01*
X-41199500Y41424361D01*
X-41199500Y43047573D01*
X-41214287Y43188264D01*
X-41272785Y43368300D01*
X-41367435Y43532240D01*
X-41494102Y43672918D01*
X-41647250Y43784186D01*
X-41774523Y43840852D01*
X-41811251Y43873718D01*
X-41814261Y43870708D01*
X-42887393Y44943840D01*
X-42901113Y44951332D01*
X-42902919Y44951203D01*
X-42909426Y44947021D01*
X-43971214Y43885233D01*
X-43977765Y43873235D01*
X-53600000Y43873235D01*
X-53600000Y45172435D01*
X-50908692Y45172435D01*
X-50899728Y45160765D01*
X-50810286Y45097202D01*
X-50801756Y45092117D01*
X-50586902Y44986397D01*
X-50577675Y44982743D01*
X-50348671Y44912730D01*
X-50338984Y44910600D01*
X-50101736Y44878101D01*
X-50091821Y44877547D01*
X-49852440Y44883396D01*
X-49842560Y44884435D01*
X-49607193Y44928483D01*
X-49597608Y44931087D01*
X-49372312Y45012199D01*
X-49363264Y45016303D01*
X-49153827Y45132395D01*
X-49145567Y45137883D01*
X-49118094Y45159502D01*
X-49109757Y45171218D01*
X-49116149Y45182596D01*
X-49997393Y46063840D01*
X-50011113Y46071332D01*
X-50012919Y46071203D01*
X-50019426Y46067021D01*
X-50902293Y45184154D01*
X-50908692Y45172435D01*
X-53600000Y45172435D01*
X-53600000Y46326509D01*
X-51561160Y46326509D01*
X-51560468Y46316607D01*
X-51524659Y46079832D01*
X-51522394Y46070177D01*
X-51449194Y45842185D01*
X-51445406Y45832994D01*
X-51336696Y45619640D01*
X-51331495Y45611185D01*
X-51279003Y45539463D01*
X-51268167Y45531167D01*
X-51255626Y45537927D01*
X-50376160Y46417393D01*
X-50369884Y46428887D01*
X-49651332Y46428887D01*
X-49651203Y46427081D01*
X-49647021Y46420574D01*
X-48763256Y45536809D01*
X-48751075Y45530158D01*
X-48742479Y45536593D01*
X-48650085Y45676714D01*
X-48645300Y45685418D01*
X-48547140Y45903835D01*
X-48543814Y45913176D01*
X-48481833Y46144490D01*
X-48480043Y46154243D01*
X-48455627Y46394623D01*
X-48455311Y46400261D01*
X-48455030Y46427179D01*
X-48455226Y46432806D01*
X-48474604Y46673653D01*
X-48476191Y46683450D01*
X-48533312Y46916006D01*
X-48536441Y46925411D01*
X-48630006Y47145838D01*
X-48634608Y47154641D01*
X-48739945Y47321914D01*
X-48750350Y47331099D01*
X-48759365Y47327082D01*
X-49643840Y46442607D01*
X-49651332Y46428887D01*
X-50369884Y46428887D01*
X-50368668Y46431113D01*
X-50368797Y46432919D01*
X-50372979Y46439426D01*
X-51256305Y47322752D01*
X-51268673Y47329505D01*
X-51279544Y47321453D01*
X-51314058Y47276310D01*
X-51319433Y47267970D01*
X-51432589Y47056935D01*
X-51436567Y47047829D01*
X-51514527Y46821417D01*
X-51516993Y46811814D01*
X-51557753Y46575839D01*
X-51558652Y46565953D01*
X-51561160Y46326509D01*
X-53600000Y46326509D01*
X-53600000Y49005561D01*
X-51465066Y49005561D01*
X-51464773Y49000479D01*
X-51464773Y49000478D01*
X-51462946Y48968797D01*
X-51451335Y48767434D01*
X-51428806Y48667463D01*
X-51401122Y48544621D01*
X-51398897Y48534746D01*
X-51309159Y48313748D01*
X-51184531Y48110373D01*
X-51181199Y48106527D01*
X-51181198Y48106525D01*
X-51031693Y47933932D01*
X-51031689Y47933928D01*
X-51028360Y47930085D01*
X-50974055Y47885000D01*
X-50934351Y47852037D01*
X-50895344Y47794069D01*
X-50893870Y47724215D01*
X-50909652Y47693632D01*
X-50909934Y47691239D01*
X-50901645Y47675198D01*
X-50022607Y46796160D01*
X-50008887Y46788668D01*
X-50007081Y46788797D01*
X-50000574Y46792979D01*
X-49311912Y47481641D01*
X-47975554Y47481641D01*
X-47975554Y47198359D01*
X-47974951Y47194072D01*
X-47974951Y47194065D01*
X-47951668Y47028398D01*
X-47936129Y46917835D01*
X-47928149Y46890006D01*
X-47882786Y46731808D01*
X-47858046Y46645528D01*
X-47856289Y46641582D01*
X-47856288Y46641579D01*
X-47850134Y46627757D01*
X-47742825Y46386738D01*
X-47592709Y46146502D01*
X-47589924Y46143183D01*
X-47498996Y46034820D01*
X-47410619Y45929496D01*
X-47200101Y45739944D01*
X-47196514Y45737524D01*
X-47196512Y45737523D01*
X-47021743Y45619640D01*
X-46965250Y45581535D01*
X-46710639Y45457353D01*
X-46706516Y45456013D01*
X-46706515Y45456013D01*
X-46445347Y45371155D01*
X-46445343Y45371154D01*
X-46441222Y45369815D01*
X-46325216Y45349360D01*
X-46166512Y45321375D01*
X-46166506Y45321374D01*
X-46162245Y45320623D01*
X-46033429Y45316125D01*
X-45883473Y45310888D01*
X-45883467Y45310888D01*
X-45879137Y45310737D01*
X-45597407Y45340348D01*
X-45593216Y45341393D01*
X-45593210Y45341394D01*
X-45326744Y45407832D01*
X-45326743Y45407832D01*
X-45322541Y45408880D01*
X-45059887Y45514999D01*
X-44875200Y45621628D01*
X-44807300Y45638101D01*
X-44741273Y45615248D01*
X-44698082Y45560327D01*
X-44689824Y45501818D01*
X-44703919Y45361835D01*
X-44704160Y45352645D01*
X-44691767Y45094631D01*
X-44690646Y45085503D01*
X-44640252Y44832153D01*
X-44637797Y44823302D01*
X-44550504Y44580168D01*
X-44546773Y44571788D01*
X-44424500Y44344227D01*
X-44419568Y44336486D01*
X-44347941Y44240566D01*
X-44336861Y44232250D01*
X-44324638Y44238915D01*
X-43254666Y45308887D01*
X-42541332Y45308887D01*
X-42541203Y45307081D01*
X-42537021Y45300574D01*
X-41471868Y44235421D01*
X-41458328Y44228028D01*
X-41453594Y44231294D01*
X-41316225Y44444857D01*
X-41311845Y44452923D01*
X-41205746Y44688456D01*
X-41202604Y44697090D01*
X-41132487Y44945705D01*
X-41130655Y44954708D01*
X-41097865Y45212458D01*
X-41097393Y45218643D01*
X-41095081Y45306890D01*
X-41095230Y45313098D01*
X-41114485Y45572202D01*
X-41115843Y45581291D01*
X-41172854Y45833242D01*
X-41175538Y45842019D01*
X-41269167Y46082787D01*
X-41273114Y46091063D01*
X-41401306Y46315352D01*
X-41406437Y46322958D01*
X-41451405Y46380001D01*
X-41463142Y46388337D01*
X-41474494Y46381953D01*
X-42533840Y45322607D01*
X-42541332Y45308887D01*
X-43254666Y45308887D01*
X-41827889Y46735664D01*
X-41821608Y46747167D01*
X-41830870Y46759085D01*
X-41980117Y46862621D01*
X-41988015Y46867274D01*
X-42219706Y46981531D01*
X-42228220Y46984971D01*
X-42474249Y47063725D01*
X-42483169Y47065867D01*
X-42738141Y47107391D01*
X-42747292Y47108191D01*
X-43005584Y47111573D01*
X-43014760Y47111011D01*
X-43270726Y47076176D01*
X-43279694Y47074270D01*
X-43527711Y47001979D01*
X-43536296Y46998770D01*
X-43772224Y46890006D01*
X-43841347Y46879816D01*
X-43905006Y46908614D01*
X-43942990Y46967257D01*
X-43945428Y47028396D01*
X-43939261Y47057409D01*
X-43919500Y47340000D01*
X-43939261Y47622591D01*
X-43955714Y47700000D01*
X-43997256Y47895439D01*
X-43997257Y47895441D01*
X-43998158Y47899682D01*
X-44008039Y47926831D01*
X-44093563Y48161806D01*
X-44093566Y48161813D01*
X-44095046Y48165879D01*
X-44140482Y48251332D01*
X-44226006Y48412180D01*
X-44226008Y48412184D01*
X-44228038Y48416001D01*
X-44394547Y48645180D01*
X-44470642Y48723979D01*
X-44588312Y48845831D01*
X-44588314Y48845833D01*
X-44591330Y48848956D01*
X-44814559Y49023361D01*
X-44830999Y49032853D01*
X-44947932Y49100364D01*
X-45059887Y49165001D01*
X-45322541Y49271120D01*
X-45356484Y49279583D01*
X-45593210Y49338606D01*
X-45593216Y49338607D01*
X-45597407Y49339652D01*
X-45879137Y49369263D01*
X-45883467Y49369112D01*
X-45883473Y49369112D01*
X-46033429Y49363875D01*
X-46162245Y49359377D01*
X-46166506Y49358626D01*
X-46166512Y49358625D01*
X-46305511Y49334115D01*
X-46441222Y49310185D01*
X-46445343Y49308846D01*
X-46445347Y49308845D01*
X-46664384Y49237676D01*
X-46710639Y49222647D01*
X-46714537Y49220746D01*
X-46714539Y49220745D01*
X-46751647Y49202646D01*
X-46965250Y49098465D01*
X-46968837Y49096046D01*
X-46968838Y49096045D01*
X-47111230Y49000000D01*
X-47200101Y48940056D01*
X-47410619Y48750504D01*
X-47413404Y48747185D01*
X-47413405Y48747184D01*
X-47501936Y48641677D01*
X-47592709Y48533498D01*
X-47742825Y48293262D01*
X-47858046Y48034472D01*
X-47859237Y48030318D01*
X-47859239Y48030313D01*
X-47887979Y47930085D01*
X-47936129Y47762165D01*
X-47941496Y47723979D01*
X-47973929Y47493201D01*
X-47975554Y47481641D01*
X-49311912Y47481641D01*
X-49115451Y47678102D01*
X-49107959Y47691822D01*
X-49108555Y47700152D01*
X-49125542Y47749032D01*
X-49109156Y47816953D01*
X-49077961Y47851342D01*
X-49078565Y47852056D01*
X-49074681Y47855339D01*
X-49070536Y47858295D01*
X-48901581Y48026661D01*
X-48762393Y48220362D01*
X-48672355Y48402539D01*
X-48658967Y48429628D01*
X-48658966Y48429630D01*
X-48656710Y48434195D01*
X-48587371Y48662417D01*
X-48563778Y48841627D01*
X-48556669Y48895624D01*
X-48556669Y48895627D01*
X-48556238Y48898899D01*
X-48554500Y48970000D01*
X-48557423Y49005561D01*
X-48565727Y49106560D01*
X-48574044Y49207721D01*
X-48632152Y49439058D01*
X-48647943Y49475376D01*
X-48714201Y49627757D01*
X-48727263Y49657798D01*
X-48796415Y49764691D01*
X-48854060Y49853797D01*
X-48854062Y49853799D01*
X-48856822Y49858066D01*
X-48878395Y49881775D01*
X-48927766Y49936032D01*
X-49017351Y50034485D01*
X-49021336Y50037632D01*
X-49021339Y50037635D01*
X-49200548Y50179165D01*
X-49204539Y50182317D01*
X-49208985Y50184771D01*
X-49208989Y50184774D01*
X-49408903Y50295132D01*
X-49413357Y50297591D01*
X-49480160Y50321247D01*
X-42835421Y50321247D01*
X-42817898Y50142527D01*
X-42761215Y49972131D01*
X-42739040Y49935516D01*
X-42681926Y49841211D01*
X-42668189Y49818528D01*
X-42635576Y49784757D01*
X-42590302Y49737874D01*
X-42557892Y49675976D01*
X-42555500Y49651736D01*
X-42555500Y49445783D01*
X-42555609Y49440591D01*
X-42558145Y49380075D01*
X-42556214Y49371842D01*
X-42556214Y49371841D01*
X-42548703Y49339815D01*
X-42546574Y49328332D01*
X-42540958Y49287338D01*
X-42535389Y49274470D01*
X-42528467Y49253540D01*
X-42525265Y49239886D01*
X-42521192Y49232478D01*
X-42505337Y49203637D01*
X-42500198Y49193147D01*
X-42498579Y49189407D01*
X-42483771Y49155187D01*
X-42478453Y49148620D01*
X-42478450Y49148615D01*
X-42474945Y49144287D01*
X-42462651Y49125991D01*
X-42459031Y49119406D01*
X-42459027Y49119400D01*
X-42455895Y49113703D01*
X-42449729Y49106560D01*
X-42426278Y49083109D01*
X-42417593Y49073464D01*
X-42393152Y49043282D01*
X-42378477Y49032853D01*
X-42362627Y49019458D01*
X-41140994Y47797825D01*
X-41107509Y47736502D01*
X-41105171Y47713226D01*
X-41105421Y47711247D01*
X-41104744Y47704342D01*
X-41094546Y47600335D01*
X-41087898Y47532527D01*
X-41031215Y47362131D01*
X-41009040Y47325516D01*
X-40941860Y47214590D01*
X-40938189Y47208528D01*
X-40813445Y47079352D01*
X-40663182Y46981022D01*
X-40494868Y46918427D01*
X-40316869Y46894677D01*
X-40309968Y46895305D01*
X-40309966Y46895305D01*
X-40203932Y46904955D01*
X-40138032Y46910952D01*
X-40131441Y46913094D01*
X-40131439Y46913094D01*
X-39973840Y46964301D01*
X-39967244Y46966444D01*
X-39961291Y46969993D01*
X-39961286Y46969995D01*
X-39818952Y47054844D01*
X-39818953Y47054844D01*
X-39812995Y47058395D01*
X-39805148Y47065867D01*
X-39754148Y47114435D01*
X-39682951Y47182235D01*
X-39583575Y47331808D01*
X-39550316Y47419363D01*
X-37891144Y47419363D01*
X-37887235Y47413857D01*
X-37693082Y47300403D01*
X-37683926Y47296017D01*
X-37470690Y47214590D01*
X-37460947Y47211759D01*
X-37237263Y47166249D01*
X-37227193Y47165049D01*
X-36999076Y47156684D01*
X-36988955Y47157144D01*
X-36762531Y47186149D01*
X-36752618Y47188256D01*
X-36533976Y47253852D01*
X-36524532Y47257554D01*
X-36319547Y47357975D01*
X-36310840Y47363164D01*
X-36241236Y47412813D01*
X-36232967Y47423346D01*
X-36239843Y47436289D01*
X-37047393Y48243840D01*
X-37061113Y48251332D01*
X-37062918Y48251203D01*
X-37069427Y48247020D01*
X-37884000Y47432446D01*
X-37891144Y47419363D01*
X-39550316Y47419363D01*
X-39519806Y47499680D01*
X-39517512Y47515998D01*
X-39495356Y47673652D01*
X-39495356Y47673653D01*
X-39494814Y47677509D01*
X-39494500Y47700000D01*
X-39503218Y47777724D01*
X-39513744Y47871569D01*
X-39513745Y47871572D01*
X-39514517Y47878457D01*
X-39573574Y48048045D01*
X-39668735Y48200335D01*
X-39673619Y48205253D01*
X-39673622Y48205257D01*
X-39789050Y48321493D01*
X-39822321Y48382933D01*
X-39817094Y48452606D01*
X-39775028Y48508394D01*
X-39709479Y48532582D01*
X-39690257Y48532396D01*
X-39605395Y48524972D01*
X-39600000Y48524500D01*
X-39364620Y48545093D01*
X-39324959Y48555720D01*
X-39141619Y48604846D01*
X-39141615Y48604848D01*
X-39136392Y48606247D01*
X-38922250Y48706103D01*
X-38863580Y48747184D01*
X-38733136Y48838521D01*
X-38733132Y48838525D01*
X-38728701Y48841627D01*
X-38713773Y48856555D01*
X-38652450Y48890040D01*
X-38582758Y48885056D01*
X-38526825Y48843184D01*
X-38502408Y48777720D01*
X-38502794Y48755697D01*
X-38514025Y48650608D01*
X-38514273Y48640466D01*
X-38501133Y48412584D01*
X-38499721Y48402539D01*
X-38449538Y48179858D01*
X-38446506Y48170182D01*
X-38360625Y47958684D01*
X-38356059Y47949643D01*
X-38258169Y47789901D01*
X-38247878Y47780590D01*
X-38239241Y47784313D01*
X-37426160Y48597393D01*
X-37419884Y48608887D01*
X-36701332Y48608887D01*
X-36701203Y48607082D01*
X-36697020Y48600573D01*
X-35885741Y47789295D01*
X-35873922Y47782842D01*
X-35862371Y47791665D01*
X-35815792Y47856487D01*
X-35810566Y47865185D01*
X-35709432Y48069812D01*
X-35705695Y48079252D01*
X-35639339Y48297654D01*
X-35637196Y48307568D01*
X-35607168Y48535651D01*
X-35606656Y48542223D01*
X-35605081Y48606692D01*
X-35605271Y48613298D01*
X-35624121Y48842564D01*
X-35625779Y48852580D01*
X-35681385Y49073960D01*
X-35684655Y49083566D01*
X-35775675Y49292896D01*
X-35780464Y49301828D01*
X-35862758Y49429035D01*
X-35873274Y49438091D01*
X-35882689Y49433757D01*
X-36693840Y48622607D01*
X-36701332Y48608887D01*
X-37419884Y48608887D01*
X-37418668Y48611113D01*
X-37418797Y48612918D01*
X-37422980Y48619427D01*
X-38246899Y49443345D01*
X-38244919Y49445325D01*
X-38274973Y49475376D01*
X-38289827Y49543648D01*
X-38285918Y49566901D01*
X-38269611Y49627757D01*
X-38265093Y49644620D01*
X-38244500Y49880000D01*
X-38265093Y50115380D01*
X-38266495Y50120614D01*
X-38267435Y50125944D01*
X-38265953Y50126205D01*
X-38264462Y50189059D01*
X-38225305Y50246925D01*
X-38161078Y50274435D01*
X-38092175Y50262854D01*
X-38058666Y50238994D01*
X-37931299Y50111627D01*
X-37855311Y50058420D01*
X-37835041Y50044227D01*
X-37791417Y49989650D01*
X-37784224Y49920151D01*
X-37815746Y49857797D01*
X-37835536Y49841479D01*
X-37835335Y49841211D01*
X-37879521Y49808035D01*
X-37887839Y49796890D01*
X-37881203Y49784757D01*
X-37072607Y48976160D01*
X-37058887Y48968668D01*
X-37057082Y48968797D01*
X-37050573Y48972980D01*
X-36237719Y49785835D01*
X-36230811Y49798486D01*
X-36238460Y49808984D01*
X-36250820Y49818745D01*
X-36259275Y49824362D01*
X-36275150Y49833126D01*
X-36324327Y49882759D01*
X-36338863Y49951100D01*
X-36314144Y50016451D01*
X-36286344Y50043257D01*
X-36193136Y50108521D01*
X-36193130Y50108526D01*
X-36188701Y50111627D01*
X-36021627Y50278701D01*
X-36018525Y50283132D01*
X-36018521Y50283136D01*
X-35889211Y50467811D01*
X-35889210Y50467813D01*
X-35886103Y50472250D01*
X-35786247Y50686392D01*
X-35760340Y50783075D01*
X-35726495Y50909388D01*
X-35725093Y50914620D01*
X-35704500Y51150000D01*
X-35725093Y51385380D01*
X-35754633Y51495623D01*
X-35784846Y51608381D01*
X-35784848Y51608385D01*
X-35786247Y51613608D01*
X-35886103Y51827750D01*
X-35889211Y51832189D01*
X-36018521Y52016864D01*
X-36018525Y52016868D01*
X-36021627Y52021299D01*
X-36188701Y52188373D01*
X-36193132Y52191475D01*
X-36193136Y52191479D01*
X-36374435Y52318425D01*
X-36418060Y52373002D01*
X-36425254Y52442500D01*
X-36393731Y52504855D01*
X-36374435Y52521575D01*
X-36193136Y52648521D01*
X-36193132Y52648525D01*
X-36188701Y52651627D01*
X-36021627Y52818701D01*
X-36018525Y52823132D01*
X-36018521Y52823136D01*
X-35889211Y53007811D01*
X-35889210Y53007813D01*
X-35886103Y53012250D01*
X-35786247Y53226392D01*
X-35765514Y53303766D01*
X-35726495Y53449388D01*
X-35725093Y53454620D01*
X-35704500Y53690000D01*
X-35725093Y53925380D01*
X-35754633Y54035623D01*
X-35784846Y54148381D01*
X-35784848Y54148385D01*
X-35786247Y54153608D01*
X-35886103Y54367750D01*
X-35889211Y54372189D01*
X-36018521Y54556864D01*
X-36018525Y54556868D01*
X-36021627Y54561299D01*
X-36188701Y54728373D01*
X-36193132Y54731475D01*
X-36193136Y54731479D01*
X-36374435Y54858425D01*
X-36418060Y54913002D01*
X-36425254Y54982500D01*
X-36393731Y55044855D01*
X-36374435Y55061575D01*
X-36193136Y55188521D01*
X-36193132Y55188525D01*
X-36188701Y55191627D01*
X-36021627Y55358701D01*
X-36018525Y55363132D01*
X-36018521Y55363136D01*
X-35889211Y55547811D01*
X-35889210Y55547813D01*
X-35886103Y55552250D01*
X-35786247Y55766392D01*
X-35760340Y55863075D01*
X-35726495Y55989388D01*
X-35725093Y55994620D01*
X-35704500Y56230000D01*
X-35725093Y56465380D01*
X-35745890Y56542994D01*
X-35784846Y56688381D01*
X-35784848Y56688385D01*
X-35786247Y56693608D01*
X-35886103Y56907750D01*
X-35912185Y56944999D01*
X-36018521Y57096864D01*
X-36018525Y57096868D01*
X-36021627Y57101299D01*
X-36188701Y57268373D01*
X-36193132Y57271475D01*
X-36193136Y57271479D01*
X-36377811Y57400789D01*
X-36377813Y57400790D01*
X-36382250Y57403897D01*
X-36596392Y57503753D01*
X-36601615Y57505152D01*
X-36601619Y57505154D01*
X-36819388Y57563505D01*
X-36819387Y57563505D01*
X-36824620Y57564907D01*
X-37060000Y57585500D01*
X-37295380Y57564907D01*
X-37300613Y57563505D01*
X-37300612Y57563505D01*
X-37518381Y57505154D01*
X-37518385Y57505152D01*
X-37523608Y57503753D01*
X-37737750Y57403897D01*
X-37742187Y57400790D01*
X-37742189Y57400789D01*
X-37926864Y57271479D01*
X-37926868Y57271475D01*
X-37931299Y57268373D01*
X-38032819Y57166853D01*
X-38094142Y57133368D01*
X-38163834Y57138352D01*
X-38219767Y57180224D01*
X-38244184Y57245688D01*
X-38244500Y57254534D01*
X-38244500Y58450000D01*
X-38245930Y58459032D01*
X-38262135Y58561342D01*
X-38264347Y58575306D01*
X-38321944Y58688347D01*
X-38411653Y58778056D01*
X-38494705Y58820373D01*
X-38515997Y58831222D01*
X-38515999Y58831223D01*
X-38524694Y58835653D01*
X-38566923Y58842342D01*
X-38645180Y58854737D01*
X-38645185Y58854737D01*
X-38650000Y58855500D01*
X-40550000Y58855500D01*
X-40554815Y58854737D01*
X-40554820Y58854737D01*
X-40633077Y58842342D01*
X-40675306Y58835653D01*
X-40684001Y58831223D01*
X-40684003Y58831222D01*
X-40705295Y58820373D01*
X-40788347Y58778056D01*
X-40878056Y58688347D01*
X-40935653Y58575306D01*
X-40937865Y58561342D01*
X-40954069Y58459032D01*
X-40955500Y58450000D01*
X-40955500Y56550000D01*
X-40954737Y56545185D01*
X-40954737Y56545180D01*
X-40942926Y56470612D01*
X-40935653Y56424694D01*
X-40878056Y56311653D01*
X-40788347Y56221944D01*
X-40733283Y56193888D01*
X-40684003Y56168778D01*
X-40684001Y56168777D01*
X-40675306Y56164347D01*
X-40657337Y56161501D01*
X-40596279Y56151830D01*
X-40533144Y56121901D01*
X-40496213Y56062589D01*
X-40497211Y55992726D01*
X-40527996Y55941676D01*
X-40638373Y55831299D01*
X-40641475Y55826868D01*
X-40641479Y55826864D01*
X-40770789Y55642189D01*
X-40773897Y55637750D01*
X-40873753Y55423608D01*
X-40875152Y55418385D01*
X-40875154Y55418381D01*
X-40905785Y55304065D01*
X-40934907Y55195380D01*
X-40955500Y54960000D01*
X-40934907Y54724620D01*
X-40933505Y54719388D01*
X-40901784Y54601006D01*
X-40873753Y54496392D01*
X-40773897Y54282250D01*
X-40770790Y54277813D01*
X-40770789Y54277811D01*
X-40641479Y54093136D01*
X-40641475Y54093132D01*
X-40638373Y54088701D01*
X-40471299Y53921627D01*
X-40466868Y53918525D01*
X-40466864Y53918521D01*
X-40285565Y53791575D01*
X-40241940Y53736998D01*
X-40234746Y53667500D01*
X-40266269Y53605145D01*
X-40285565Y53588425D01*
X-40466864Y53461479D01*
X-40466868Y53461475D01*
X-40471299Y53458373D01*
X-40638373Y53291299D01*
X-40641475Y53286868D01*
X-40641479Y53286864D01*
X-40717386Y53178457D01*
X-40773897Y53097750D01*
X-40873753Y52883608D01*
X-40875152Y52878385D01*
X-40875154Y52878381D01*
X-40915165Y52729059D01*
X-40934907Y52655380D01*
X-40955500Y52420000D01*
X-40934907Y52184620D01*
X-40933505Y52179388D01*
X-40901784Y52061006D01*
X-40873753Y51956392D01*
X-40773897Y51742250D01*
X-40770790Y51737813D01*
X-40770789Y51737811D01*
X-40641479Y51553136D01*
X-40641475Y51553132D01*
X-40638373Y51548701D01*
X-40471299Y51381627D01*
X-40466868Y51378525D01*
X-40466864Y51378521D01*
X-40285565Y51251575D01*
X-40241940Y51196998D01*
X-40234746Y51127500D01*
X-40266269Y51065145D01*
X-40285565Y51048425D01*
X-40466864Y50921479D01*
X-40466868Y50921475D01*
X-40471299Y50918373D01*
X-40638373Y50751299D01*
X-40641475Y50746868D01*
X-40641479Y50746864D01*
X-40770789Y50562189D01*
X-40773897Y50557750D01*
X-40873753Y50343608D01*
X-40875152Y50338385D01*
X-40875154Y50338381D01*
X-40911165Y50203985D01*
X-40934907Y50115380D01*
X-40955500Y49880000D01*
X-40934907Y49644620D01*
X-40924280Y49604959D01*
X-40879567Y49438091D01*
X-40873753Y49416392D01*
X-40871463Y49411481D01*
X-40821923Y49305240D01*
X-40811431Y49236163D01*
X-40839951Y49172379D01*
X-40898428Y49134140D01*
X-40968295Y49133586D01*
X-41021985Y49165154D01*
X-41444043Y49587213D01*
X-41477528Y49648536D01*
X-41472544Y49718228D01*
X-41441875Y49764691D01*
X-41417970Y49787455D01*
X-41417968Y49787457D01*
X-41412951Y49792235D01*
X-41313575Y49941808D01*
X-41285220Y50016451D01*
X-41252267Y50103201D01*
X-41252267Y50103202D01*
X-41249806Y50109680D01*
X-41248269Y50120612D01*
X-41225356Y50283652D01*
X-41225356Y50283653D01*
X-41224814Y50287509D01*
X-41224670Y50297820D01*
X-41224554Y50306101D01*
X-41224554Y50306108D01*
X-41224500Y50310000D01*
X-41228820Y50348514D01*
X-41243744Y50481569D01*
X-41243745Y50481572D01*
X-41244517Y50488457D01*
X-41303574Y50658045D01*
X-41398735Y50810335D01*
X-41525271Y50937757D01*
X-41676892Y51033979D01*
X-41764416Y51065145D01*
X-41839535Y51091894D01*
X-41839539Y51091895D01*
X-41846063Y51094218D01*
X-42024377Y51115480D01*
X-42031266Y51114756D01*
X-42031270Y51114756D01*
X-42196072Y51097435D01*
X-42196073Y51097435D01*
X-42202969Y51096710D01*
X-42287967Y51067774D01*
X-42366398Y51041074D01*
X-42366401Y51041073D01*
X-42372965Y51038838D01*
X-42525915Y50944743D01*
X-42654218Y50819100D01*
X-42687700Y50767146D01*
X-42739742Y50686392D01*
X-42751496Y50668154D01*
X-42812915Y50499407D01*
X-42835421Y50321247D01*
X-49480160Y50321247D01*
X-49638199Y50377211D01*
X-49873025Y50419040D01*
X-49958708Y50420087D01*
X-50106441Y50421892D01*
X-50106443Y50421892D01*
X-50111531Y50421954D01*
X-50347309Y50385875D01*
X-50574029Y50311772D01*
X-50578543Y50309422D01*
X-50781086Y50203985D01*
X-50781092Y50203981D01*
X-50785601Y50201634D01*
X-50864324Y50142527D01*
X-50909616Y50108521D01*
X-50976345Y50058420D01*
X-50979861Y50054741D01*
X-50979863Y50054739D01*
X-51042063Y49989650D01*
X-51141136Y49885976D01*
X-51144000Y49881777D01*
X-51144002Y49881775D01*
X-51266748Y49701835D01*
X-51275550Y49688932D01*
X-51277695Y49684311D01*
X-51363094Y49500335D01*
X-51375977Y49472582D01*
X-51439719Y49242734D01*
X-51440259Y49237681D01*
X-51440260Y49237676D01*
X-51452899Y49119406D01*
X-51465066Y49005561D01*
X-53600000Y49005561D01*
X-53600000Y55882435D01*
X-50908692Y55882435D01*
X-50899728Y55870765D01*
X-50810286Y55807202D01*
X-50801756Y55802117D01*
X-50586902Y55696397D01*
X-50577675Y55692743D01*
X-50348671Y55622730D01*
X-50338984Y55620600D01*
X-50101736Y55588101D01*
X-50091821Y55587547D01*
X-49852440Y55593396D01*
X-49842560Y55594435D01*
X-49607193Y55638483D01*
X-49597608Y55641087D01*
X-49372312Y55722199D01*
X-49363264Y55726303D01*
X-49153827Y55842395D01*
X-49145567Y55847883D01*
X-49118094Y55869502D01*
X-49109757Y55881218D01*
X-49116149Y55892596D01*
X-49997393Y56773840D01*
X-50011113Y56781332D01*
X-50012919Y56781203D01*
X-50019426Y56777021D01*
X-50902293Y55894154D01*
X-50908692Y55882435D01*
X-53600000Y55882435D01*
X-53600000Y57036509D01*
X-51561160Y57036509D01*
X-51560468Y57026607D01*
X-51524659Y56789832D01*
X-51522394Y56780177D01*
X-51449194Y56552185D01*
X-51445406Y56542994D01*
X-51336696Y56329640D01*
X-51331495Y56321185D01*
X-51279003Y56249463D01*
X-51268167Y56241167D01*
X-51255626Y56247927D01*
X-50376160Y57127393D01*
X-50369884Y57138887D01*
X-49651332Y57138887D01*
X-49651203Y57137081D01*
X-49647021Y57130574D01*
X-48763256Y56246809D01*
X-48751075Y56240158D01*
X-48742479Y56246593D01*
X-48650085Y56386714D01*
X-48645300Y56395418D01*
X-48547140Y56613835D01*
X-48543814Y56623176D01*
X-48481833Y56854490D01*
X-48480043Y56864243D01*
X-48455627Y57104623D01*
X-48455311Y57110261D01*
X-48455030Y57137179D01*
X-48455226Y57142806D01*
X-48474604Y57383653D01*
X-48476191Y57393450D01*
X-48533312Y57626006D01*
X-48536441Y57635411D01*
X-48630006Y57855838D01*
X-48634608Y57864641D01*
X-48739945Y58031914D01*
X-48750350Y58041099D01*
X-48759365Y58037082D01*
X-49643840Y57152607D01*
X-49651332Y57138887D01*
X-50369884Y57138887D01*
X-50368668Y57141113D01*
X-50368797Y57142919D01*
X-50372979Y57149426D01*
X-51256305Y58032752D01*
X-51268673Y58039505D01*
X-51279544Y58031453D01*
X-51314058Y57986310D01*
X-51319433Y57977970D01*
X-51432589Y57766935D01*
X-51436567Y57757829D01*
X-51514527Y57531417D01*
X-51516993Y57521814D01*
X-51557753Y57285839D01*
X-51558652Y57275953D01*
X-51561160Y57036509D01*
X-53600000Y57036509D01*
X-53600000Y59715561D01*
X-51465066Y59715561D01*
X-51464773Y59710479D01*
X-51464773Y59710478D01*
X-51462825Y59676692D01*
X-51451335Y59477434D01*
X-51428806Y59377463D01*
X-51420971Y59342699D01*
X-51398897Y59244746D01*
X-51309159Y59023748D01*
X-51184531Y58820373D01*
X-51181199Y58816527D01*
X-51181198Y58816525D01*
X-51031693Y58643932D01*
X-51031689Y58643928D01*
X-51028360Y58640085D01*
X-50946215Y58571887D01*
X-50934351Y58562037D01*
X-50895344Y58504069D01*
X-50893870Y58434215D01*
X-50909652Y58403632D01*
X-50909934Y58401239D01*
X-50901645Y58385198D01*
X-50022607Y57506160D01*
X-50008887Y57498668D01*
X-50007081Y57498797D01*
X-50000574Y57502979D01*
X-49115451Y58388102D01*
X-49107959Y58401822D01*
X-49108555Y58410152D01*
X-49125542Y58459032D01*
X-49109156Y58526953D01*
X-49077961Y58561342D01*
X-49078565Y58562056D01*
X-49074681Y58565339D01*
X-49070536Y58568295D01*
X-48901581Y58736661D01*
X-48775845Y58911641D01*
X-47975554Y58911641D01*
X-47975554Y58628359D01*
X-47974951Y58624072D01*
X-47974951Y58624065D01*
X-47958086Y58504069D01*
X-47936129Y58347835D01*
X-47923984Y58305480D01*
X-47873022Y58127757D01*
X-47858046Y58075528D01*
X-47856289Y58071582D01*
X-47856288Y58071579D01*
X-47828470Y58009100D01*
X-47742825Y57816738D01*
X-47592709Y57576502D01*
X-47589924Y57573183D01*
X-47449797Y57406187D01*
X-47410619Y57359496D01*
X-47200101Y57169944D01*
X-47196514Y57167524D01*
X-47196512Y57167523D01*
X-46987595Y57026607D01*
X-46965250Y57011535D01*
X-46905176Y56982235D01*
X-46761560Y56912189D01*
X-46710639Y56887353D01*
X-46706516Y56886013D01*
X-46706515Y56886013D01*
X-46445347Y56801155D01*
X-46445343Y56801154D01*
X-46441222Y56799815D01*
X-46336401Y56781332D01*
X-46166512Y56751375D01*
X-46166506Y56751374D01*
X-46162245Y56750623D01*
X-46033429Y56746125D01*
X-45883473Y56740888D01*
X-45883467Y56740888D01*
X-45879137Y56740737D01*
X-45597407Y56770348D01*
X-45593216Y56771393D01*
X-45593210Y56771394D01*
X-45326744Y56837832D01*
X-45326743Y56837832D01*
X-45322541Y56838880D01*
X-45059887Y56944999D01*
X-44814559Y57086639D01*
X-44591330Y57261044D01*
X-44584252Y57268373D01*
X-44397559Y57461701D01*
X-44394547Y57464820D01*
X-44228038Y57693999D01*
X-44095046Y57944121D01*
X-44093566Y57948187D01*
X-44093563Y57948194D01*
X-43999640Y58206245D01*
X-43999638Y58206251D01*
X-43998158Y58210318D01*
X-43982450Y58284218D01*
X-43940162Y58483169D01*
X-43940162Y58483172D01*
X-43939261Y58487409D01*
X-43919500Y58770000D01*
X-43939261Y59052591D01*
X-43946564Y59086949D01*
X-43941247Y59156614D01*
X-43899109Y59212347D01*
X-43833529Y59236452D01*
X-43767537Y59222465D01*
X-43623818Y59146850D01*
X-43615404Y59143192D01*
X-43371515Y59058022D01*
X-43362645Y59055645D01*
X-43108847Y59007460D01*
X-43099736Y59006422D01*
X-42841614Y58996281D01*
X-42832425Y58996602D01*
X-42575636Y59024724D01*
X-42566621Y59026395D01*
X-42316794Y59092169D01*
X-42308122Y59095155D01*
X-42070779Y59197125D01*
X-42062629Y59201368D01*
X-41842959Y59337304D01*
X-41835534Y59342699D01*
X-41827870Y59349187D01*
X-41819564Y59361790D01*
X-41825530Y59371977D01*
X-43252440Y60798887D01*
X-42541332Y60798887D01*
X-42541203Y60797081D01*
X-42537021Y60790574D01*
X-41471868Y59725421D01*
X-41458328Y59718028D01*
X-41453594Y59721294D01*
X-41316225Y59934857D01*
X-41311845Y59942923D01*
X-41205746Y60178456D01*
X-41202604Y60187090D01*
X-41132487Y60435705D01*
X-41130655Y60444708D01*
X-41097865Y60702458D01*
X-41097393Y60708643D01*
X-41095081Y60796890D01*
X-41095230Y60803098D01*
X-41102031Y60894617D01*
X-9651544Y60894617D01*
X-9613751Y60659979D01*
X-9612057Y60655017D01*
X-9594515Y60603635D01*
X-9536964Y60435062D01*
X-9423379Y60226299D01*
X-9420128Y60222176D01*
X-9420126Y60222172D01*
X-9385051Y60177680D01*
X-9276243Y60039659D01*
X-9272345Y60036143D01*
X-9272344Y60036142D01*
X-9160053Y59934857D01*
X-9099764Y59880477D01*
X-9095332Y59877670D01*
X-8903425Y59756116D01*
X-8903422Y59756114D01*
X-8898988Y59753306D01*
X-8894139Y59751283D01*
X-8894136Y59751281D01*
X-8835782Y59726931D01*
X-8679655Y59661782D01*
X-8567188Y59635920D01*
X-8453152Y59609698D01*
X-8453150Y59609698D01*
X-8448037Y59608522D01*
X-8210756Y59595048D01*
X-8205538Y59595638D01*
X-8205533Y59595638D01*
X-8056693Y59612465D01*
X-7974598Y59621746D01*
X-7746314Y59687853D01*
X-7741591Y59690141D01*
X-7741589Y59690142D01*
X-7537163Y59789186D01*
X-7532432Y59791478D01*
X-7402970Y59883992D01*
X-7343332Y59926610D01*
X-7343331Y59926611D01*
X-7339067Y59929658D01*
X-7253727Y60015746D01*
X-7175443Y60094716D01*
X-7175440Y60094720D01*
X-7171749Y60098443D01*
X-7052842Y60267944D01*
X-7038277Y60288707D01*
X-7038277Y60288708D01*
X-7035262Y60293005D01*
X-7033016Y60297746D01*
X-7033013Y60297751D01*
X-6935757Y60503034D01*
X-6935756Y60503038D01*
X-6933507Y60507784D01*
X-6908619Y60596623D01*
X-6870813Y60731573D01*
X-6870812Y60731577D01*
X-6869395Y60736636D01*
X-6852930Y60894617D01*
X-3651544Y60894617D01*
X-3613751Y60659979D01*
X-3612057Y60655017D01*
X-3594515Y60603635D01*
X-3536964Y60435062D01*
X-3423379Y60226299D01*
X-3420128Y60222176D01*
X-3420126Y60222172D01*
X-3385051Y60177680D01*
X-3276243Y60039659D01*
X-3272345Y60036143D01*
X-3272344Y60036142D01*
X-3160053Y59934857D01*
X-3099764Y59880477D01*
X-3095332Y59877670D01*
X-2903425Y59756116D01*
X-2903422Y59756114D01*
X-2898988Y59753306D01*
X-2894139Y59751283D01*
X-2894136Y59751281D01*
X-2835782Y59726931D01*
X-2679655Y59661782D01*
X-2567188Y59635920D01*
X-2453152Y59609698D01*
X-2453150Y59609698D01*
X-2448037Y59608522D01*
X-2210756Y59595048D01*
X-2205538Y59595638D01*
X-2205533Y59595638D01*
X-2056693Y59612465D01*
X-1974598Y59621746D01*
X-1746314Y59687853D01*
X-1741591Y59690141D01*
X-1741589Y59690142D01*
X-1537163Y59789186D01*
X-1532432Y59791478D01*
X-1402970Y59883992D01*
X-1343332Y59926610D01*
X-1343331Y59926611D01*
X-1339067Y59929658D01*
X-1253727Y60015746D01*
X-1175443Y60094716D01*
X-1175440Y60094720D01*
X-1171749Y60098443D01*
X-1052842Y60267944D01*
X-1038277Y60288707D01*
X-1038277Y60288708D01*
X-1035262Y60293005D01*
X-1033016Y60297746D01*
X-1033013Y60297751D01*
X-935757Y60503034D01*
X-935756Y60503038D01*
X-933507Y60507784D01*
X-908619Y60596623D01*
X-870813Y60731573D01*
X-870812Y60731577D01*
X-869395Y60736636D01*
X-844759Y60973018D01*
X-844500Y61000000D01*
X-864594Y61236812D01*
X-924301Y61466852D01*
X-1021913Y61683544D01*
X-1154640Y61880692D01*
X-1249248Y61979866D01*
X-1315067Y62048862D01*
X-1315072Y62048866D01*
X-1318688Y62052657D01*
X-1509364Y62194524D01*
X-1514043Y62196903D01*
X-1716531Y62299854D01*
X-1716536Y62299856D01*
X-1721217Y62302236D01*
X-1726237Y62303795D01*
X-1726240Y62303796D01*
X-1943165Y62371153D01*
X-1948189Y62372713D01*
X-1953399Y62373404D01*
X-1953401Y62373404D01*
X-2178590Y62403251D01*
X-2178596Y62403251D01*
X-2183792Y62403940D01*
X-2327885Y62398530D01*
X-2416043Y62395221D01*
X-2416045Y62395221D01*
X-2421287Y62395024D01*
X-2426421Y62393947D01*
X-2426427Y62393946D01*
X-2648739Y62347300D01*
X-2648742Y62347299D01*
X-2653885Y62346220D01*
X-2658769Y62344291D01*
X-2658773Y62344290D01*
X-2725188Y62318061D01*
X-2874935Y62258923D01*
X-2879419Y62256202D01*
X-2879423Y62256200D01*
X-3058211Y62147708D01*
X-3078115Y62135630D01*
X-3257618Y61979866D01*
X-3408309Y61796084D01*
X-3410905Y61791523D01*
X-3410906Y61791522D01*
X-3523287Y61594098D01*
X-3523289Y61594093D01*
X-3525881Y61589540D01*
X-3606972Y61366139D01*
X-3649262Y61132269D01*
X-3651544Y60894617D01*
X-6852930Y60894617D01*
X-6844759Y60973018D01*
X-6844500Y61000000D01*
X-6864594Y61236812D01*
X-6924301Y61466852D01*
X-6926460Y61471645D01*
X-6944680Y61512094D01*
X-6954266Y61581303D01*
X-6924913Y61644708D01*
X-6865941Y61682178D01*
X-6799526Y61682797D01*
X-6740522Y61666986D01*
X-6729894Y61665113D01*
X-6505395Y61645472D01*
X-6494605Y61645472D01*
X-6270106Y61665113D01*
X-6259475Y61666987D01*
X-6041790Y61725315D01*
X-6031657Y61729004D01*
X-5827411Y61824246D01*
X-5818061Y61829644D01*
X-5753344Y61874960D01*
X-5745101Y61885271D01*
X-5752057Y61898504D01*
X-6852440Y62998887D01*
X-6141332Y62998887D01*
X-6141203Y62997081D01*
X-6137021Y62990574D01*
X-5397793Y62251346D01*
X-5386207Y62245020D01*
X-5374383Y62254167D01*
X-5329644Y62318061D01*
X-5324246Y62327411D01*
X-5229004Y62531657D01*
X-5225315Y62541790D01*
X-5166987Y62759475D01*
X-5165113Y62770106D01*
X-5145472Y62994605D01*
X-5145472Y63005395D01*
X-5165113Y63229894D01*
X-5166987Y63240525D01*
X-5225315Y63458210D01*
X-5229004Y63468343D01*
X-5324246Y63672589D01*
X-5329644Y63681939D01*
X-5374960Y63746656D01*
X-5385271Y63754899D01*
X-5398504Y63747943D01*
X-6133840Y63012607D01*
X-6141332Y62998887D01*
X-6852440Y62998887D01*
X-7602207Y63748654D01*
X-7613793Y63754980D01*
X-7625617Y63745833D01*
X-7670356Y63681939D01*
X-7675754Y63672589D01*
X-7770996Y63468343D01*
X-7774685Y63458210D01*
X-7833013Y63240525D01*
X-7834887Y63229894D01*
X-7854528Y63005395D01*
X-7854528Y62994605D01*
X-7834887Y62770106D01*
X-7833013Y62759475D01*
X-7774685Y62541790D01*
X-7769145Y62526571D01*
X-7771277Y62525795D01*
X-7762234Y62466307D01*
X-7790747Y62402520D01*
X-7849219Y62364274D01*
X-7921881Y62364544D01*
X-7948189Y62372713D01*
X-7953399Y62373404D01*
X-7953401Y62373404D01*
X-8178590Y62403251D01*
X-8178596Y62403251D01*
X-8183792Y62403940D01*
X-8327885Y62398530D01*
X-8416043Y62395221D01*
X-8416045Y62395221D01*
X-8421287Y62395024D01*
X-8426421Y62393947D01*
X-8426427Y62393946D01*
X-8648739Y62347300D01*
X-8648742Y62347299D01*
X-8653885Y62346220D01*
X-8658769Y62344291D01*
X-8658773Y62344290D01*
X-8725188Y62318061D01*
X-8874935Y62258923D01*
X-8879419Y62256202D01*
X-8879423Y62256200D01*
X-9058211Y62147708D01*
X-9078115Y62135630D01*
X-9257618Y61979866D01*
X-9408309Y61796084D01*
X-9410905Y61791523D01*
X-9410906Y61791522D01*
X-9523287Y61594098D01*
X-9523289Y61594093D01*
X-9525881Y61589540D01*
X-9606972Y61366139D01*
X-9649262Y61132269D01*
X-9651544Y60894617D01*
X-41102031Y60894617D01*
X-41114485Y61062202D01*
X-41115843Y61071291D01*
X-41172854Y61323242D01*
X-41175538Y61332019D01*
X-41269167Y61572787D01*
X-41273114Y61581063D01*
X-41401306Y61805352D01*
X-41406437Y61812958D01*
X-41451405Y61870001D01*
X-41463142Y61878337D01*
X-41474494Y61871953D01*
X-42533840Y60812607D01*
X-42541332Y60798887D01*
X-43252440Y60798887D01*
X-44326106Y61872553D01*
X-44339201Y61879703D01*
X-44349081Y61872695D01*
X-44366541Y61851701D01*
X-44371862Y61844242D01*
X-44505878Y61623390D01*
X-44510048Y61615207D01*
X-44609947Y61376972D01*
X-44612854Y61368284D01*
X-44676445Y61117895D01*
X-44678039Y61108854D01*
X-44703919Y60851835D01*
X-44704160Y60842644D01*
X-44692680Y60603635D01*
X-44709125Y60535728D01*
X-44759673Y60487493D01*
X-44828275Y60474243D01*
X-44878537Y60490299D01*
X-45013234Y60568066D01*
X-45059887Y60595001D01*
X-45322541Y60701120D01*
X-45352714Y60708643D01*
X-45593210Y60768606D01*
X-45593216Y60768607D01*
X-45597407Y60769652D01*
X-45879137Y60799263D01*
X-45883467Y60799112D01*
X-45883473Y60799112D01*
X-46033429Y60793875D01*
X-46162245Y60789377D01*
X-46166506Y60788626D01*
X-46166512Y60788625D01*
X-46301972Y60764739D01*
X-46441222Y60740185D01*
X-46445343Y60738846D01*
X-46445347Y60738845D01*
X-46672131Y60665159D01*
X-46710639Y60652647D01*
X-46965250Y60528465D01*
X-46968837Y60526046D01*
X-46968838Y60526045D01*
X-47164141Y60394311D01*
X-47200101Y60370056D01*
X-47410619Y60180504D01*
X-47413404Y60177185D01*
X-47413405Y60177184D01*
X-47525342Y60043783D01*
X-47592709Y59963498D01*
X-47742825Y59723262D01*
X-47858046Y59464472D01*
X-47859237Y59460318D01*
X-47859239Y59460313D01*
X-47887490Y59361790D01*
X-47936129Y59192165D01*
X-47942871Y59144195D01*
X-47973504Y58926226D01*
X-47975554Y58911641D01*
X-48775845Y58911641D01*
X-48762393Y58930362D01*
X-48656710Y59144195D01*
X-48587371Y59372417D01*
X-48556238Y59608899D01*
X-48554500Y59680000D01*
X-48555025Y59686394D01*
X-48573627Y59912646D01*
X-48574044Y59917721D01*
X-48632152Y60149058D01*
X-48644381Y60177184D01*
X-48667743Y60230912D01*
X-48727263Y60367798D01*
X-48817824Y60507784D01*
X-48854060Y60563797D01*
X-48854062Y60563799D01*
X-48856822Y60568066D01*
X-48878395Y60591775D01*
X-48935941Y60655017D01*
X-49017351Y60744485D01*
X-49021336Y60747632D01*
X-49021339Y60747635D01*
X-49200548Y60889165D01*
X-49204539Y60892317D01*
X-49208985Y60894771D01*
X-49208989Y60894774D01*
X-49356038Y60975949D01*
X-49413357Y61007591D01*
X-49638199Y61087211D01*
X-49759702Y61108854D01*
X-49868017Y61128148D01*
X-49868018Y61128148D01*
X-49873025Y61129040D01*
X-49958708Y61130087D01*
X-50106441Y61131892D01*
X-50106443Y61131892D01*
X-50111531Y61131954D01*
X-50347309Y61095875D01*
X-50574029Y61021772D01*
X-50578543Y61019422D01*
X-50781086Y60913985D01*
X-50781092Y60913981D01*
X-50785601Y60911634D01*
X-50811329Y60892317D01*
X-50949434Y60788625D01*
X-50976345Y60768420D01*
X-50979861Y60764741D01*
X-50979863Y60764739D01*
X-51011557Y60731573D01*
X-51141136Y60595976D01*
X-51144000Y60591777D01*
X-51144002Y60591775D01*
X-51238421Y60453361D01*
X-51275550Y60398932D01*
X-51277695Y60394311D01*
X-51331241Y60278956D01*
X-51375977Y60182582D01*
X-51400344Y60094716D01*
X-51435813Y59966817D01*
X-51439719Y59952734D01*
X-51440259Y59947681D01*
X-51440260Y59947676D01*
X-51447066Y59883992D01*
X-51465066Y59715561D01*
X-53600000Y59715561D01*
X-53600000Y62239271D01*
X-43980597Y62239271D01*
X-43976096Y62229649D01*
X-42912607Y61166160D01*
X-42898887Y61158668D01*
X-42897081Y61158797D01*
X-42890574Y61162979D01*
X-41827889Y62225664D01*
X-41821608Y62237167D01*
X-41830870Y62249085D01*
X-41980117Y62352621D01*
X-41988015Y62357274D01*
X-42219706Y62471531D01*
X-42228220Y62474971D01*
X-42474249Y62553725D01*
X-42483169Y62555867D01*
X-42738141Y62597391D01*
X-42747292Y62598191D01*
X-43005584Y62601573D01*
X-43014760Y62601011D01*
X-43270726Y62566176D01*
X-43279694Y62564270D01*
X-43527711Y62491979D01*
X-43536296Y62488770D01*
X-43770909Y62380612D01*
X-43778925Y62376169D01*
X-43971605Y62249842D01*
X-43980597Y62239271D01*
X-53600000Y62239271D01*
X-53600000Y64114729D01*
X-7254899Y64114729D01*
X-7247943Y64101496D01*
X-6512607Y63366160D01*
X-6498887Y63358668D01*
X-6497081Y63358797D01*
X-6490574Y63362979D01*
X-5751346Y64102207D01*
X-5745020Y64113793D01*
X-5754167Y64125617D01*
X-5818061Y64170356D01*
X-5827411Y64175754D01*
X-6031657Y64270996D01*
X-6041790Y64274685D01*
X-6259475Y64333013D01*
X-6270106Y64334887D01*
X-6494605Y64354528D01*
X-6505395Y64354528D01*
X-6729894Y64334887D01*
X-6740525Y64333013D01*
X-6958210Y64274685D01*
X-6968343Y64270996D01*
X-7172589Y64175754D01*
X-7181939Y64170356D01*
X-7246656Y64125040D01*
X-7254899Y64114729D01*
X-53600000Y64114729D01*
X-53600000Y66921167D01*
X-7753023Y66921167D01*
X-7752188Y66915711D01*
X-7752188Y66915709D01*
X-7720413Y66708063D01*
X-7719259Y66700521D01*
X-7646956Y66489342D01*
X-7538400Y66294304D01*
X-7534907Y66290037D01*
X-7404747Y66131014D01*
X-7397020Y66121573D01*
X-7392821Y66117987D01*
X-7231492Y65980197D01*
X-7231488Y65980194D01*
X-7227288Y65976607D01*
X-7222516Y65973819D01*
X-7222514Y65973817D01*
X-7117963Y65912723D01*
X-7034566Y65863990D01*
X-6824947Y65787280D01*
X-6605058Y65748903D01*
X-6473946Y65749590D01*
X-6387371Y65750043D01*
X-6387370Y65750043D01*
X-6381847Y65750072D01*
X-6376419Y65751078D01*
X-6167802Y65789742D01*
X-6167797Y65789743D01*
X-6162371Y65790749D01*
X-6157204Y65792701D01*
X-6157202Y65792702D01*
X-5958730Y65867699D01*
X-5953567Y65869650D01*
X-5948835Y65872482D01*
X-5948831Y65872484D01*
X-5873957Y65917296D01*
X-5762036Y65984279D01*
X-5593830Y66131014D01*
X-5454267Y66305217D01*
X-5451635Y66310064D01*
X-5451632Y66310069D01*
X-5350395Y66496526D01*
X-5347759Y66501381D01*
X-5277672Y66713305D01*
X-5246221Y66934292D01*
X-5244500Y67000000D01*
X-5256886Y67138790D01*
X-5263851Y67216830D01*
X-5263851Y67216832D01*
X-5264342Y67222330D01*
X-5323242Y67437632D01*
X-5383928Y67564864D01*
X-5416962Y67634120D01*
X-5416963Y67634122D01*
X-5419338Y67639101D01*
X-5549593Y67820370D01*
X-5709888Y67975707D01*
X-5714468Y67978785D01*
X-5714471Y67978787D01*
X-5890574Y68097123D01*
X-5890577Y68097124D01*
X-5895158Y68100203D01*
X-6099547Y68189923D01*
X-6316593Y68242031D01*
X-6322108Y68242349D01*
X-6533919Y68254562D01*
X-6533920Y68254562D01*
X-6539436Y68254880D01*
X-6642987Y68242349D01*
X-6755549Y68228728D01*
X-6755553Y68228727D01*
X-6761033Y68228064D01*
X-6974379Y68162431D01*
X-6979283Y68159900D01*
X-6979285Y68159899D01*
X-7029446Y68134009D01*
X-7172731Y68060054D01*
X-7177103Y68056699D01*
X-7177105Y68056698D01*
X-7278640Y67978787D01*
X-7349818Y67924170D01*
X-7500043Y67759074D01*
X-7618659Y67569985D01*
X-7701915Y67362879D01*
X-7747180Y67144304D01*
X-7747324Y67138790D01*
X-7752679Y66934292D01*
X-7753023Y66921167D01*
X-53600000Y66921167D01*
X-53600000Y70062994D01*
X-51004510Y70062994D01*
X-51004338Y70058612D01*
X-51004338Y70058606D01*
X-50997212Y69877235D01*
X-50993389Y69779928D01*
X-50942494Y69501252D01*
X-50852840Y69232528D01*
X-50726218Y68979117D01*
X-50723723Y68975507D01*
X-50723720Y68975502D01*
X-50614752Y68817839D01*
X-50565153Y68746076D01*
X-50562183Y68742864D01*
X-50562179Y68742858D01*
X-50431445Y68601431D01*
X-50372859Y68538053D01*
X-50153173Y68359201D01*
X-50149419Y68356941D01*
X-49932657Y68226439D01*
X-49910478Y68213086D01*
X-49855776Y68189923D01*
X-49653655Y68104336D01*
X-49653652Y68104335D01*
X-49649616Y68102626D01*
X-49645373Y68101501D01*
X-49380041Y68031149D01*
X-49380036Y68031148D01*
X-49375793Y68030023D01*
X-49371436Y68029507D01*
X-49371429Y68029506D01*
X-49205437Y68009860D01*
X-49094472Y67996726D01*
X-49090095Y67996829D01*
X-49090092Y67996829D01*
X-48915142Y68000952D01*
X-48811266Y68003400D01*
X-48806951Y68004118D01*
X-48806943Y68004119D01*
X-48536155Y68049191D01*
X-48536151Y68049192D01*
X-48531825Y68049912D01*
X-48527647Y68051233D01*
X-48527640Y68051235D01*
X-48368702Y68101501D01*
X-48261726Y68135333D01*
X-48006358Y68257959D01*
X-48002715Y68260393D01*
X-48002710Y68260396D01*
X-47850699Y68361967D01*
X-47770815Y68415344D01*
X-47559798Y68604347D01*
X-47377516Y68821197D01*
X-47227608Y69061567D01*
X-47113064Y69320661D01*
X-47036169Y69593310D01*
X-46998457Y69874074D01*
X-46996714Y69929537D01*
X-46994599Y69996836D01*
X-46994599Y69996844D01*
X-46994500Y70000000D01*
X-47014508Y70282577D01*
X-47074131Y70559517D01*
X-47172181Y70825292D01*
X-47200747Y70878235D01*
X-47304614Y71070736D01*
X-47304618Y71070742D01*
X-47306700Y71074601D01*
X-47475006Y71302468D01*
X-47535560Y71363981D01*
X-47670660Y71501221D01*
X-47670666Y71501226D01*
X-47673739Y71504348D01*
X-47898935Y71676212D01*
X-47962943Y71712058D01*
X-48142276Y71812490D01*
X-48142282Y71812493D01*
X-48146100Y71814631D01*
X-48410302Y71916843D01*
X-48414562Y71917830D01*
X-48414564Y71917831D01*
X-48647680Y71971864D01*
X-48686271Y71980809D01*
X-48898224Y71999166D01*
X-48964133Y72004875D01*
X-48964135Y72004875D01*
X-48968499Y72005253D01*
X-49251356Y71989686D01*
X-49255662Y71988830D01*
X-49255666Y71988829D01*
X-49389116Y71962284D01*
X-49529197Y71934420D01*
X-49533331Y71932968D01*
X-49533332Y71932968D01*
X-49576436Y71917831D01*
X-49796480Y71840557D01*
X-50047871Y71709970D01*
X-50278354Y71545264D01*
X-50281524Y71542240D01*
X-50281530Y71542235D01*
X-50391182Y71437632D01*
X-50483330Y71349727D01*
X-50658710Y71127258D01*
X-50800994Y70882298D01*
X-50802638Y70878239D01*
X-50802640Y70878235D01*
X-50890171Y70662131D01*
X-50907344Y70619734D01*
X-50908401Y70615480D01*
X-50908402Y70615476D01*
X-50971073Y70363177D01*
X-50975637Y70344804D01*
X-51004510Y70062994D01*
X-53600000Y70062994D01*
X-53600000Y74476000D01*
X-53580315Y74543039D01*
X-53527511Y74588794D01*
X-53476000Y74600000D01*
X-8639204Y74600000D01*
X-8572165Y74580315D01*
G37*
%TD.AperFunction*%
%TD*%
%TA.AperFunction,Conductor*%
%TO.N,+3.3VA*%
G36*
X-6606961Y58430315D02*
G01*
X-6561206Y58377511D01*
X-6550000Y58326000D01*
X-6550000Y56118593D01*
X-6569685Y56051554D01*
X-6622489Y56005799D01*
X-6659701Y55996462D01*
X-6659579Y55995500D01*
X-6783016Y55979906D01*
X-6935790Y55919419D01*
X-7068721Y55822839D01*
X-7073695Y55816826D01*
X-7168484Y55702246D01*
X-7168486Y55702243D01*
X-7173457Y55696234D01*
X-7243418Y55547561D01*
X-7270500Y55405592D01*
X-7270500Y53615421D01*
X-7270012Y53611559D01*
X-7270012Y53611557D01*
X-7259992Y53532239D01*
X-7254906Y53491984D01*
X-7194419Y53339210D01*
X-7097839Y53206279D01*
X-7091826Y53201305D01*
X-6977246Y53106516D01*
X-6977243Y53106514D01*
X-6971234Y53101543D01*
X-6964175Y53098221D01*
X-6964173Y53098220D01*
X-6829621Y53034904D01*
X-6822561Y53031582D01*
X-6814902Y53030121D01*
X-6814899Y53030120D01*
X-6762339Y53020094D01*
X-6680592Y53004500D01*
X-6674000Y53004500D01*
X-6673647Y53004396D01*
X-6668924Y53003950D01*
X-6669010Y53003035D01*
X-6606961Y52984815D01*
X-6561206Y52932011D01*
X-6550000Y52880500D01*
X-6550000Y51174000D01*
X-6569685Y51106961D01*
X-6622489Y51061206D01*
X-6674000Y51050000D01*
X-10550000Y51050000D01*
X-10550000Y43674000D01*
X-10569685Y43606961D01*
X-10622489Y43561206D01*
X-10674000Y43550000D01*
X-17826000Y43550000D01*
X-17893039Y43569685D01*
X-17938794Y43622489D01*
X-17950000Y43674000D01*
X-17950000Y58326000D01*
X-17930315Y58393039D01*
X-17877511Y58438794D01*
X-17826000Y58450000D01*
X-6674000Y58450000D01*
X-6606961Y58430315D01*
G37*
%TD.AperFunction*%
%TD*%
%TA.AperFunction,Conductor*%
%TO.N,GNDA*%
G36*
X-565879Y58429998D02*
G01*
X-519386Y58376342D01*
X-508000Y58324000D01*
X-508000Y37182955D01*
X-528002Y37114834D01*
X-581658Y37068341D01*
X-651932Y37058237D01*
X-716512Y37087731D01*
X-748882Y37131204D01*
X-770160Y37178440D01*
X-775329Y37187726D01*
X-902050Y37375951D01*
X-908711Y37384237D01*
X-1065337Y37548423D01*
X-1073304Y37555471D01*
X-1255347Y37690915D01*
X-1264377Y37696514D01*
X-1466647Y37799354D01*
X-1476508Y37803357D01*
X-1693201Y37870643D01*
X-1703581Y37872925D01*
X-1732043Y37876698D01*
X-1746207Y37874502D01*
X-1750000Y37861315D01*
X-1750000Y34140116D01*
X-1746027Y34126585D01*
X-1735420Y34125060D01*
X-1601477Y34153164D01*
X-1591297Y34156218D01*
X-1380249Y34239566D01*
X-1370727Y34244293D01*
X-1176740Y34362006D01*
X-1168150Y34368270D01*
X-996774Y34516983D01*
X-989354Y34524613D01*
X-845487Y34700071D01*
X-839462Y34708838D01*
X-743502Y34877416D01*
X-692420Y34926722D01*
X-622789Y34940584D01*
X-556718Y34914601D01*
X-515184Y34857021D01*
X-508000Y34815084D01*
X-508000Y22008591D01*
X-528002Y21940470D01*
X-581658Y21893977D01*
X-651932Y21883873D01*
X-716512Y21913367D01*
X-741718Y21943224D01*
X-769625Y21989212D01*
X-769626Y21989214D01*
X-772535Y21994007D01*
X-780751Y22003310D01*
X-782969Y22005892D01*
X-785259Y22008631D01*
X-789269Y22014747D01*
X-841132Y22063877D01*
X-843574Y22066255D01*
X-1266997Y22489678D01*
X-1279385Y22504092D01*
X-1287271Y22514808D01*
X-1291611Y22520706D01*
X-1330350Y22553618D01*
X-1337867Y22560548D01*
X-1343984Y22566665D01*
X-1346857Y22568938D01*
X-1346866Y22568946D01*
X-1367343Y22585146D01*
X-1370747Y22587937D01*
X-1420794Y22630455D01*
X-1420796Y22630456D01*
X-1426376Y22635197D01*
X-1432894Y22638525D01*
X-1437919Y22641877D01*
X-1443064Y22645054D01*
X-1448802Y22649594D01*
X-1511022Y22678674D01*
X-1514905Y22680489D01*
X-1518855Y22682420D01*
X-1577345Y22712286D01*
X-1577347Y22712287D01*
X-1583865Y22715615D01*
X-1590972Y22717354D01*
X-1596623Y22719456D01*
X-1602373Y22721369D01*
X-1609002Y22724467D01*
X-1616162Y22725956D01*
X-1616173Y22725960D01*
X-1680493Y22739339D01*
X-1684780Y22740309D01*
X-1750172Y22756310D01*
X-1750178Y22756311D01*
X-1755630Y22757645D01*
X-1761234Y22757993D01*
X-1761236Y22757993D01*
X-1768024Y22758414D01*
X-1771421Y22758671D01*
X-1774961Y22758987D01*
X-1782129Y22760478D01*
X-1789446Y22760280D01*
X-1802267Y22759933D01*
X-1848897Y22758671D01*
X-1853516Y22758546D01*
X-1856925Y22758500D01*
X-4334006Y22758500D01*
X-4352956Y22759933D01*
X-4366119Y22761936D01*
X-4366125Y22761936D01*
X-4373354Y22763036D01*
X-4380646Y22762443D01*
X-4380649Y22762443D01*
X-4424019Y22758915D01*
X-4434234Y22758500D01*
X-4442886Y22758500D01*
X-4456455Y22756918D01*
X-4472463Y22755052D01*
X-4476838Y22754619D01*
X-4542307Y22749294D01*
X-4542310Y22749293D01*
X-4549605Y22748700D01*
X-4556566Y22746445D01*
X-4562461Y22745267D01*
X-4568374Y22743869D01*
X-4575643Y22743022D01*
X-4644267Y22718113D01*
X-4648395Y22716696D01*
X-4710868Y22696458D01*
X-4710873Y22696456D01*
X-4717830Y22694202D01*
X-4724084Y22690407D01*
X-4729562Y22687899D01*
X-4734981Y22685185D01*
X-4741864Y22682687D01*
X-4802923Y22642655D01*
X-4806612Y22640328D01*
X-4822881Y22630455D01*
X-4864208Y22605378D01*
X-4864212Y22605375D01*
X-4869006Y22602466D01*
X-4873212Y22598751D01*
X-4878310Y22594249D01*
X-4880894Y22592028D01*
X-4883624Y22589745D01*
X-4889747Y22585731D01*
X-4894782Y22580416D01*
X-4938877Y22533868D01*
X-4941255Y22531426D01*
X-5056337Y22416344D01*
X-5119234Y22382192D01*
X-5182287Y22368790D01*
X-5188317Y22366105D01*
X-5188318Y22366105D01*
X-5350720Y22293799D01*
X-5350722Y22293798D01*
X-5356750Y22291114D01*
X-5362091Y22287234D01*
X-5362092Y22287233D01*
X-5505907Y22182746D01*
X-5505909Y22182744D01*
X-5511251Y22178863D01*
X-5639037Y22036942D01*
X-5734524Y21871554D01*
X-5736566Y21865269D01*
X-5767095Y21771309D01*
X-5793538Y21689927D01*
X-5813500Y21500000D01*
X-5793538Y21310073D01*
X-5734524Y21128446D01*
X-5639037Y20963058D01*
X-5511251Y20821137D01*
X-5505909Y20817256D01*
X-5505907Y20817254D01*
X-5362092Y20712767D01*
X-5356750Y20708886D01*
X-5350722Y20706202D01*
X-5350720Y20706201D01*
X-5188318Y20633895D01*
X-5182287Y20631210D01*
X-5088887Y20611357D01*
X-5001944Y20592876D01*
X-5001939Y20592876D01*
X-4995487Y20591504D01*
X-4804513Y20591504D01*
X-4798061Y20592876D01*
X-4798056Y20592876D01*
X-4711113Y20611357D01*
X-4617713Y20631210D01*
X-4611682Y20633895D01*
X-4449280Y20706201D01*
X-4449278Y20706202D01*
X-4443250Y20708886D01*
X-4437908Y20712767D01*
X-4294093Y20817254D01*
X-4294091Y20817256D01*
X-4288749Y20821137D01*
X-4160963Y20963058D01*
X-4065476Y21128446D01*
X-4057031Y21154439D01*
X-4016956Y21213043D01*
X-3951559Y21240679D01*
X-3937198Y21241500D01*
X-2259500Y21241500D01*
X-2191379Y21221498D01*
X-2144886Y21167842D01*
X-2133500Y21115500D01*
X-2133500Y16176000D01*
X-2153502Y16107879D01*
X-2207158Y16061386D01*
X-2259500Y16050000D01*
X-5447810Y16050000D01*
X-5515931Y16070002D01*
X-5536905Y16086905D01*
X-7126409Y17676409D01*
X-7160435Y17738721D01*
X-7155370Y17809536D01*
X-7112823Y17866372D01*
X-7046303Y17891183D01*
X-7037314Y17891504D01*
X-6902013Y17891504D01*
X-6895561Y17892876D01*
X-6895556Y17892876D01*
X-6808613Y17911357D01*
X-6715213Y17931210D01*
X-6709182Y17933895D01*
X-6546780Y18006201D01*
X-6546778Y18006202D01*
X-6540750Y18008886D01*
X-6535408Y18012767D01*
X-6391593Y18117254D01*
X-6391591Y18117256D01*
X-6386249Y18121137D01*
X-6258463Y18263058D01*
X-6162976Y18428446D01*
X-6103962Y18610073D01*
X-6084000Y18800000D01*
X-6103962Y18989927D01*
X-6109549Y19007124D01*
X-6160934Y19165269D01*
X-6162976Y19171554D01*
X-6258463Y19336942D01*
X-6281419Y19362438D01*
X-6381827Y19473952D01*
X-6381828Y19473953D01*
X-6386249Y19478863D01*
X-6391591Y19482744D01*
X-6391593Y19482746D01*
X-6535408Y19587233D01*
X-6535409Y19587234D01*
X-6540750Y19591114D01*
X-6546778Y19593798D01*
X-6546780Y19593799D01*
X-6709182Y19666105D01*
X-6709183Y19666105D01*
X-6715213Y19668790D01*
X-6808613Y19688643D01*
X-6895556Y19707124D01*
X-6895561Y19707124D01*
X-6902013Y19708496D01*
X-7092987Y19708496D01*
X-7099439Y19707124D01*
X-7099444Y19707124D01*
X-7186387Y19688643D01*
X-7279787Y19668790D01*
X-7285817Y19666105D01*
X-7285818Y19666105D01*
X-7448220Y19593799D01*
X-7448222Y19593798D01*
X-7454250Y19591114D01*
X-7459591Y19587234D01*
X-7459592Y19587233D01*
X-7603407Y19482746D01*
X-7603409Y19482744D01*
X-7608751Y19478863D01*
X-7613172Y19473953D01*
X-7618075Y19469538D01*
X-7619201Y19470789D01*
X-7672500Y19437951D01*
X-7705694Y19433500D01*
X-10121617Y19433500D01*
X-10132521Y19434014D01*
X-10139912Y19435666D01*
X-10147837Y19435417D01*
X-10147838Y19435417D01*
X-10206853Y19433562D01*
X-10210811Y19433500D01*
X-10239578Y19433500D01*
X-10243502Y19433004D01*
X-10243504Y19433004D01*
X-10243852Y19432960D01*
X-10255698Y19432027D01*
X-10299883Y19430638D01*
X-10319339Y19424986D01*
X-10338679Y19420981D01*
X-10358788Y19418440D01*
X-10366160Y19415521D01*
X-10366165Y19415520D01*
X-10399899Y19402164D01*
X-10411128Y19398319D01*
X-10453579Y19385986D01*
X-10471012Y19375676D01*
X-10488759Y19366982D01*
X-10507600Y19359522D01*
X-10514015Y19354861D01*
X-10543371Y19333533D01*
X-10553288Y19327018D01*
X-10591342Y19304513D01*
X-10591759Y19304145D01*
X-10605842Y19290062D01*
X-10620867Y19277228D01*
X-10637083Y19265446D01*
X-10665029Y19231665D01*
X-10673019Y19222885D01*
X-10850503Y19045401D01*
X-10912815Y19011375D01*
X-10939598Y19008496D01*
X-10995487Y19008496D01*
X-11001939Y19007124D01*
X-11001944Y19007124D01*
X-11082846Y18989927D01*
X-11182287Y18968790D01*
X-11188317Y18966105D01*
X-11188318Y18966105D01*
X-11350720Y18893799D01*
X-11350722Y18893798D01*
X-11356750Y18891114D01*
X-11362091Y18887234D01*
X-11362092Y18887233D01*
X-11505907Y18782746D01*
X-11505909Y18782744D01*
X-11511251Y18778863D01*
X-11515672Y18773953D01*
X-11515673Y18773952D01*
X-11590260Y18691114D01*
X-11639037Y18636942D01*
X-11650760Y18616637D01*
X-11652860Y18613000D01*
X-11704243Y18564007D01*
X-11761979Y18550000D01*
X-12824000Y18550000D01*
X-12892121Y18570002D01*
X-12938614Y18623658D01*
X-12950000Y18676000D01*
X-12950000Y23515500D01*
X-12929998Y23583621D01*
X-12876342Y23630114D01*
X-12824000Y23641500D01*
X-12733194Y23641500D01*
X-12665073Y23621498D01*
X-12645849Y23605158D01*
X-12645575Y23605462D01*
X-12640673Y23601048D01*
X-12636251Y23596137D01*
X-12630909Y23592256D01*
X-12630907Y23592254D01*
X-12525263Y23515500D01*
X-12481750Y23483886D01*
X-12475722Y23481202D01*
X-12475720Y23481201D01*
X-12313318Y23408895D01*
X-12307287Y23406210D01*
X-12213887Y23386357D01*
X-12126944Y23367876D01*
X-12126939Y23367876D01*
X-12120487Y23366504D01*
X-11929513Y23366504D01*
X-11923061Y23367876D01*
X-11923056Y23367876D01*
X-11836113Y23386357D01*
X-11742713Y23406210D01*
X-11736682Y23408895D01*
X-11574280Y23481201D01*
X-11574278Y23481202D01*
X-11568250Y23483886D01*
X-11524737Y23515500D01*
X-11419093Y23592254D01*
X-11419091Y23592256D01*
X-11413749Y23596137D01*
X-11285963Y23738058D01*
X-11190476Y23903446D01*
X-11131462Y24085073D01*
X-11111500Y24275000D01*
X-11131462Y24464927D01*
X-11190476Y24646554D01*
X-11285963Y24811942D01*
X-11413749Y24953863D01*
X-11419091Y24957744D01*
X-11419093Y24957746D01*
X-11562908Y25062233D01*
X-11562909Y25062234D01*
X-11568250Y25066114D01*
X-11574278Y25068798D01*
X-11574280Y25068799D01*
X-11736682Y25141105D01*
X-11736683Y25141105D01*
X-11742713Y25143790D01*
X-11836113Y25163643D01*
X-11923056Y25182124D01*
X-11923061Y25182124D01*
X-11929513Y25183496D01*
X-12120487Y25183496D01*
X-12126939Y25182124D01*
X-12126944Y25182124D01*
X-12213887Y25163643D01*
X-12307287Y25143790D01*
X-12313317Y25141105D01*
X-12313318Y25141105D01*
X-12475720Y25068799D01*
X-12475722Y25068798D01*
X-12481750Y25066114D01*
X-12487091Y25062234D01*
X-12487092Y25062233D01*
X-12630907Y24957746D01*
X-12630909Y24957744D01*
X-12636251Y24953863D01*
X-12640672Y24948953D01*
X-12645575Y24944538D01*
X-12646701Y24945789D01*
X-12700000Y24912951D01*
X-12733194Y24908500D01*
X-13534088Y24908500D01*
X-13602209Y24928502D01*
X-13636615Y24961261D01*
X-14483683Y26147156D01*
X-15048393Y26937751D01*
X-15060967Y26959733D01*
X-15063439Y26965284D01*
X-15065476Y26971554D01*
X-15160963Y27136942D01*
X-15288749Y27278863D01*
X-15289527Y27279429D01*
X-15304119Y27295766D01*
X-17926530Y30967142D01*
X-17950000Y31040378D01*
X-17950000Y34606027D01*
X-11308500Y34606027D01*
X-11308500Y33441073D01*
X-11293292Y33261840D01*
X-11291952Y33256676D01*
X-11291951Y33256672D01*
X-11260896Y33137025D01*
X-11233245Y33030490D01*
X-11135077Y32812565D01*
X-11001594Y32614296D01*
X-10836613Y32441351D01*
X-10644852Y32298677D01*
X-10640101Y32296261D01*
X-10640097Y32296259D01*
X-10517467Y32233911D01*
X-10431793Y32190352D01*
X-10203528Y32119474D01*
X-10198239Y32118773D01*
X-9971868Y32088769D01*
X-9971865Y32088769D01*
X-9966585Y32088069D01*
X-9961256Y32088269D01*
X-9961255Y32088269D01*
X-9864684Y32091895D01*
X-9727738Y32097036D01*
X-9613260Y32121056D01*
X-9499043Y32145021D01*
X-9499040Y32145022D01*
X-9493816Y32146118D01*
X-9271508Y32233911D01*
X-9159527Y32301863D01*
X-9071732Y32355138D01*
X-9071729Y32355140D01*
X-9067171Y32357906D01*
X-8886647Y32514557D01*
X-8883264Y32518683D01*
X-8883259Y32518688D01*
X-8738483Y32695257D01*
X-8735098Y32699385D01*
X-8616857Y32907104D01*
X-8535304Y33131777D01*
X-8492773Y33366978D01*
X-8491500Y33393973D01*
X-8491500Y34558927D01*
X-8495496Y34606027D01*
X-5808500Y34606027D01*
X-5808500Y33441073D01*
X-5793292Y33261840D01*
X-5791952Y33256676D01*
X-5791951Y33256672D01*
X-5760896Y33137025D01*
X-5733245Y33030490D01*
X-5635077Y32812565D01*
X-5501594Y32614296D01*
X-5336613Y32441351D01*
X-5144852Y32298677D01*
X-5140101Y32296261D01*
X-5140097Y32296259D01*
X-5017467Y32233911D01*
X-4931793Y32190352D01*
X-4703528Y32119474D01*
X-4698239Y32118773D01*
X-4471868Y32088769D01*
X-4471865Y32088769D01*
X-4466585Y32088069D01*
X-4461256Y32088269D01*
X-4461255Y32088269D01*
X-4364684Y32091895D01*
X-4227738Y32097036D01*
X-4113260Y32121056D01*
X-3999043Y32145021D01*
X-3999040Y32145022D01*
X-3993816Y32146118D01*
X-3771508Y32233911D01*
X-3659527Y32301863D01*
X-3571732Y32355138D01*
X-3571729Y32355140D01*
X-3567171Y32357906D01*
X-3386647Y32514557D01*
X-3383264Y32518683D01*
X-3383259Y32518688D01*
X-3238483Y32695257D01*
X-3235098Y32699385D01*
X-3116857Y32907104D01*
X-3035304Y33131777D01*
X-2992773Y33366978D01*
X-2991500Y33393973D01*
X-2991500Y34241950D01*
X-2971498Y34310071D01*
X-2917842Y34356564D01*
X-2847568Y34366668D01*
X-2790287Y34343039D01*
X-2744646Y34309081D01*
X-2735623Y34303486D01*
X-2533353Y34200646D01*
X-2523492Y34196643D01*
X-2306799Y34129357D01*
X-2296419Y34127075D01*
X-2267957Y34123302D01*
X-2253793Y34125498D01*
X-2250000Y34138685D01*
X-2250000Y35731885D01*
X-2254475Y35747124D01*
X-2255865Y35748329D01*
X-2263548Y35750000D01*
X-3381885Y35750000D01*
X-3397124Y35745525D01*
X-3398329Y35744135D01*
X-3400579Y35733790D01*
X-3434604Y35671478D01*
X-3496915Y35637452D01*
X-3567731Y35642516D01*
X-3598913Y35659483D01*
X-3650866Y35698137D01*
X-3655148Y35701323D01*
X-3659899Y35703739D01*
X-3659903Y35703741D01*
X-3863451Y35807230D01*
X-3863452Y35807230D01*
X-3868207Y35809648D01*
X-4096472Y35880526D01*
X-4117790Y35883352D01*
X-4328132Y35911231D01*
X-4328135Y35911231D01*
X-4333415Y35911931D01*
X-4338744Y35911731D01*
X-4338745Y35911731D01*
X-4435316Y35908105D01*
X-4572262Y35902964D01*
X-4658684Y35884831D01*
X-4800957Y35854979D01*
X-4800960Y35854978D01*
X-4806184Y35853882D01*
X-5028492Y35766089D01*
X-5059745Y35747124D01*
X-5228268Y35644862D01*
X-5228271Y35644860D01*
X-5232829Y35642094D01*
X-5413353Y35485443D01*
X-5416736Y35481317D01*
X-5416741Y35481312D01*
X-5495134Y35385704D01*
X-5564902Y35300615D01*
X-5683143Y35092896D01*
X-5764696Y34868223D01*
X-5807227Y34633022D01*
X-5808500Y34606027D01*
X-8495496Y34606027D01*
X-8506708Y34738160D01*
X-8508049Y34743328D01*
X-8565414Y34964345D01*
X-8565416Y34964350D01*
X-8566755Y34969510D01*
X-8664923Y35187435D01*
X-8798406Y35385704D01*
X-8963387Y35558649D01*
X-9155148Y35701323D01*
X-9159899Y35703739D01*
X-9159903Y35703741D01*
X-9363451Y35807230D01*
X-9363452Y35807230D01*
X-9368207Y35809648D01*
X-9596472Y35880526D01*
X-9617790Y35883352D01*
X-9828132Y35911231D01*
X-9828135Y35911231D01*
X-9833415Y35911931D01*
X-9838744Y35911731D01*
X-9838745Y35911731D01*
X-9935316Y35908105D01*
X-10072262Y35902964D01*
X-10158684Y35884831D01*
X-10300957Y35854979D01*
X-10300960Y35854978D01*
X-10306184Y35853882D01*
X-10528492Y35766089D01*
X-10559745Y35747124D01*
X-10728268Y35644862D01*
X-10728271Y35644860D01*
X-10732829Y35642094D01*
X-10913353Y35485443D01*
X-10916736Y35481317D01*
X-10916741Y35481312D01*
X-10995134Y35385704D01*
X-11064902Y35300615D01*
X-11183143Y35092896D01*
X-11264696Y34868223D01*
X-11307227Y34633022D01*
X-11308500Y34606027D01*
X-17950000Y34606027D01*
X-17950000Y36604545D01*
X-3400000Y36604545D01*
X-3400000Y36268115D01*
X-3395525Y36252876D01*
X-3394135Y36251671D01*
X-3386452Y36250000D01*
X-2268115Y36250000D01*
X-2252876Y36254475D01*
X-2251671Y36255865D01*
X-2250000Y36263548D01*
X-2250000Y37859884D01*
X-2253973Y37873415D01*
X-2264580Y37874940D01*
X-2398523Y37846836D01*
X-2408703Y37843782D01*
X-2619751Y37760434D01*
X-2629273Y37755707D01*
X-2823260Y37637994D01*
X-2831850Y37631730D01*
X-3003226Y37483017D01*
X-3010646Y37475387D01*
X-3154513Y37299929D01*
X-3160538Y37291162D01*
X-3272784Y37093973D01*
X-3277250Y37084309D01*
X-3354669Y36871024D01*
X-3357439Y36860757D01*
X-3398026Y36636306D01*
X-3398961Y36628076D01*
X-3399930Y36607521D01*
X-3400000Y36604545D01*
X-17950000Y36604545D01*
X-17950000Y42874000D01*
X-17929998Y42942121D01*
X-17876342Y42988614D01*
X-17824000Y43000000D01*
X-10000000Y43000000D01*
X-10000000Y50374000D01*
X-9979998Y50442121D01*
X-9926342Y50488614D01*
X-9874000Y50500000D01*
X-6000000Y50500000D01*
X-6000000Y52770500D01*
X-5979998Y52838621D01*
X-5926342Y52885114D01*
X-5874000Y52896500D01*
X-5337114Y52896500D01*
X-5241894Y52907602D01*
X-5211629Y52911130D01*
X-5211628Y52911130D01*
X-5204357Y52911978D01*
X-5197479Y52914474D01*
X-5197477Y52914475D01*
X-5045015Y52969816D01*
X-5038136Y52972313D01*
X-4890253Y53069269D01*
X-4768642Y53197645D01*
X-4685318Y53341098D01*
X-4633807Y53389957D01*
X-4564059Y53403211D01*
X-4498217Y53376651D01*
X-4485194Y53364784D01*
X-4374793Y53249053D01*
X-4366819Y53241999D01*
X-4188842Y53109581D01*
X-4179812Y53103982D01*
X-3982064Y53003441D01*
X-3972213Y52999441D01*
X-3760356Y52933658D01*
X-3749972Y52931375D01*
X-3727957Y52928457D01*
X-3713793Y52930653D01*
X-3710000Y52943838D01*
X-3710000Y54236452D01*
X-3210000Y54236452D01*
X-3210000Y52945660D01*
X-3206027Y52932129D01*
X-3195420Y52930604D01*
X-3070105Y52956897D01*
X-3059909Y52959957D01*
X-2853596Y53041434D01*
X-2844064Y53046165D01*
X-2654415Y53161247D01*
X-2645825Y53167511D01*
X-2478281Y53312898D01*
X-2470861Y53320529D01*
X-2330210Y53492063D01*
X-2324186Y53500830D01*
X-2214449Y53693610D01*
X-2209984Y53703274D01*
X-2134296Y53911791D01*
X-2131525Y53922058D01*
X-2091841Y54141517D01*
X-2090906Y54149747D01*
X-2090070Y54167481D01*
X-2090000Y54170457D01*
X-2090000Y54231885D01*
X-2094475Y54247124D01*
X-2095865Y54248329D01*
X-2103548Y54250000D01*
X-3191885Y54250000D01*
X-3207124Y54245525D01*
X-3208329Y54244135D01*
X-3210000Y54236452D01*
X-3710000Y54236452D01*
X-3710000Y56054340D01*
X-3710535Y56056162D01*
X-3210000Y56056162D01*
X-3210000Y54768115D01*
X-3205525Y54752876D01*
X-3204135Y54751671D01*
X-3196452Y54750000D01*
X-2108115Y54750000D01*
X-2092876Y54754475D01*
X-2091671Y54755865D01*
X-2090000Y54763548D01*
X-2090000Y54781266D01*
X-2090225Y54786574D01*
X-2104207Y54951362D01*
X-2105997Y54961834D01*
X-2161727Y55176551D01*
X-2165263Y55186592D01*
X-2256373Y55388850D01*
X-2261542Y55398136D01*
X-2385430Y55582153D01*
X-2392091Y55590439D01*
X-2545213Y55750952D01*
X-2553181Y55758001D01*
X-2731158Y55890419D01*
X-2740188Y55896018D01*
X-2937936Y55996559D01*
X-2947787Y56000559D01*
X-3159644Y56066342D01*
X-3170028Y56068625D01*
X-3192043Y56071543D01*
X-3206207Y56069347D01*
X-3210000Y56056162D01*
X-3710535Y56056162D01*
X-3713973Y56067871D01*
X-3724580Y56069396D01*
X-3849895Y56043103D01*
X-3860091Y56040043D01*
X-4066404Y55958566D01*
X-4075936Y55953835D01*
X-4265585Y55838753D01*
X-4274175Y55832489D01*
X-4441719Y55687102D01*
X-4449134Y55679477D01*
X-4478953Y55643110D01*
X-4537613Y55603116D01*
X-4608584Y55601185D01*
X-4669332Y55637930D01*
X-4691004Y55673704D01*
X-4691537Y55673437D01*
X-4694816Y55679984D01*
X-4697313Y55686864D01*
X-4794269Y55834747D01*
X-4922645Y55956358D01*
X-5075555Y56045175D01*
X-5244796Y56096433D01*
X-5251236Y56097008D01*
X-5251237Y56097008D01*
X-5321185Y56103251D01*
X-5321191Y56103251D01*
X-5323978Y56103500D01*
X-5874000Y56103500D01*
X-5942121Y56123502D01*
X-5988614Y56177158D01*
X-6000000Y56229500D01*
X-6000000Y58324000D01*
X-5979998Y58392121D01*
X-5926342Y58438614D01*
X-5874000Y58450000D01*
X-634000Y58450000D01*
X-565879Y58429998D01*
G37*
%TD.AperFunction*%
%TD*%
M02*
