%TF.GenerationSoftware,KiCad,Pcbnew,(5.99.0-8361-gd4c36230d2)*%
%TF.CreationDate,2021-01-14T13:58:05+01:00*%
%TF.ProjectId,mp3,6d70332e-6b69-4636-9164-5f7063625858,rev?*%
%TF.SameCoordinates,PXae85bc0PY7459280*%
%TF.FileFunction,Legend,Bot*%
%TF.FilePolarity,Positive*%
%FSLAX46Y46*%
G04 Gerber Fmt 4.6, Leading zero omitted, Abs format (unit mm)*
G04 Created by KiCad (PCBNEW (5.99.0-8361-gd4c36230d2)) date 2021-01-14 13:58:05*
%MOMM*%
%LPD*%
G01*
G04 APERTURE LIST*
%ADD10C,0.500000*%
%ADD11C,0.150000*%
G04 APERTURE END LIST*
D10*
X-21642858Y65971429D02*
X-24642858Y65971429D01*
X-22500000Y64971429D01*
X-24642858Y63971429D01*
X-21642858Y63971429D01*
X-21642858Y62542858D02*
X-24642858Y62542858D01*
X-24642858Y61400000D01*
X-24500000Y61114286D01*
X-24357143Y60971429D01*
X-24071429Y60828572D01*
X-23642858Y60828572D01*
X-23357143Y60971429D01*
X-23214286Y61114286D01*
X-23071429Y61400000D01*
X-23071429Y62542858D01*
X-24642858Y59828572D02*
X-24642858Y57971429D01*
X-23500000Y58971429D01*
X-23500000Y58542858D01*
X-23357143Y58257143D01*
X-23214286Y58114286D01*
X-22928572Y57971429D01*
X-22214286Y57971429D01*
X-21928572Y58114286D01*
X-21785715Y58257143D01*
X-21642858Y58542858D01*
X-21642858Y59400000D01*
X-21785715Y59685715D01*
X-21928572Y59828572D01*
X-21642858Y54400000D02*
X-24642858Y54400000D01*
X-24642858Y53257143D01*
X-24500000Y52971429D01*
X-24357143Y52828572D01*
X-24071429Y52685715D01*
X-23642858Y52685715D01*
X-23357143Y52828572D01*
X-23214286Y52971429D01*
X-23071429Y53257143D01*
X-23071429Y54400000D01*
X-21642858Y50971429D02*
X-21785715Y51257143D01*
X-22071429Y51400000D01*
X-24642858Y51400000D01*
X-21642858Y48542858D02*
X-23214286Y48542858D01*
X-23500000Y48685715D01*
X-23642858Y48971429D01*
X-23642858Y49542858D01*
X-23500000Y49828572D01*
X-21785715Y48542858D02*
X-21642858Y48828572D01*
X-21642858Y49542858D01*
X-21785715Y49828572D01*
X-22071429Y49971429D01*
X-22357143Y49971429D01*
X-22642858Y49828572D01*
X-22785715Y49542858D01*
X-22785715Y48828572D01*
X-22928572Y48542858D01*
X-23642858Y47400000D02*
X-21642858Y46685715D01*
X-23642858Y45971429D02*
X-21642858Y46685715D01*
X-20928572Y46971429D01*
X-20785715Y47114286D01*
X-20642858Y47400000D01*
X-21785715Y43685715D02*
X-21642858Y43971429D01*
X-21642858Y44542858D01*
X-21785715Y44828572D01*
X-22071429Y44971429D01*
X-23214286Y44971429D01*
X-23500000Y44828572D01*
X-23642858Y44542858D01*
X-23642858Y43971429D01*
X-23500000Y43685715D01*
X-23214286Y43542858D01*
X-22928572Y43542858D01*
X-22642858Y44971429D01*
X-21642858Y42257143D02*
X-23642858Y42257143D01*
X-23071429Y42257143D02*
X-23357143Y42114286D01*
X-23500000Y41971429D01*
X-23642858Y41685715D01*
X-23642858Y41400000D01*
X-21642858Y38114286D02*
X-23642858Y38114286D01*
X-23071429Y38114286D02*
X-23357143Y37971429D01*
X-23500000Y37828572D01*
X-23642858Y37542858D01*
X-23642858Y37257143D01*
X-21642858Y34685715D02*
X-21642858Y36400000D01*
X-21642858Y35542858D02*
X-24642858Y35542858D01*
X-24214286Y35828572D01*
X-23928572Y36114286D01*
X-23785715Y36400000D01*
D11*
X-19347620Y61966667D02*
X-20347620Y61966667D01*
X-20347620Y61728572D01*
X-20300000Y61585715D01*
X-20204762Y61490477D01*
X-20109524Y61442858D01*
X-19919048Y61395239D01*
X-19776191Y61395239D01*
X-19585715Y61442858D01*
X-19490477Y61490477D01*
X-19395239Y61585715D01*
X-19347620Y61728572D01*
X-19347620Y61966667D01*
X-19395239Y60585715D02*
X-19347620Y60680953D01*
X-19347620Y60871429D01*
X-19395239Y60966667D01*
X-19490477Y61014286D01*
X-19871429Y61014286D01*
X-19966667Y60966667D01*
X-20014286Y60871429D01*
X-20014286Y60680953D01*
X-19966667Y60585715D01*
X-19871429Y60538096D01*
X-19776191Y60538096D01*
X-19680953Y61014286D01*
X-19395239Y60157143D02*
X-19347620Y60061905D01*
X-19347620Y59871429D01*
X-19395239Y59776191D01*
X-19490477Y59728572D01*
X-19538096Y59728572D01*
X-19633334Y59776191D01*
X-19680953Y59871429D01*
X-19680953Y60014286D01*
X-19728572Y60109524D01*
X-19823810Y60157143D01*
X-19871429Y60157143D01*
X-19966667Y60109524D01*
X-20014286Y60014286D01*
X-20014286Y59871429D01*
X-19966667Y59776191D01*
X-19347620Y59300000D02*
X-20014286Y59300000D01*
X-20347620Y59300000D02*
X-20300000Y59347620D01*
X-20252381Y59300000D01*
X-20300000Y59252381D01*
X-20347620Y59300000D01*
X-20252381Y59300000D01*
X-20014286Y58395239D02*
X-19204762Y58395239D01*
X-19109524Y58442858D01*
X-19061905Y58490477D01*
X-19014286Y58585715D01*
X-19014286Y58728572D01*
X-19061905Y58823810D01*
X-19395239Y58395239D02*
X-19347620Y58490477D01*
X-19347620Y58680953D01*
X-19395239Y58776191D01*
X-19442858Y58823810D01*
X-19538096Y58871429D01*
X-19823810Y58871429D01*
X-19919048Y58823810D01*
X-19966667Y58776191D01*
X-20014286Y58680953D01*
X-20014286Y58490477D01*
X-19966667Y58395239D01*
X-20014286Y57919048D02*
X-19347620Y57919048D01*
X-19919048Y57919048D02*
X-19966667Y57871429D01*
X-20014286Y57776191D01*
X-20014286Y57633334D01*
X-19966667Y57538096D01*
X-19871429Y57490477D01*
X-19347620Y57490477D01*
X-19395239Y56633334D02*
X-19347620Y56728572D01*
X-19347620Y56919048D01*
X-19395239Y57014286D01*
X-19490477Y57061905D01*
X-19871429Y57061905D01*
X-19966667Y57014286D01*
X-20014286Y56919048D01*
X-20014286Y56728572D01*
X-19966667Y56633334D01*
X-19871429Y56585715D01*
X-19776191Y56585715D01*
X-19680953Y57061905D01*
X-19347620Y55728572D02*
X-20347620Y55728572D01*
X-19395239Y55728572D02*
X-19347620Y55823810D01*
X-19347620Y56014286D01*
X-19395239Y56109524D01*
X-19442858Y56157143D01*
X-19538096Y56204762D01*
X-19823810Y56204762D01*
X-19919048Y56157143D01*
X-19966667Y56109524D01*
X-20014286Y56014286D01*
X-20014286Y55823810D01*
X-19966667Y55728572D01*
X-19347620Y54490477D02*
X-20347620Y54490477D01*
X-19966667Y54490477D02*
X-20014286Y54395239D01*
X-20014286Y54204762D01*
X-19966667Y54109524D01*
X-19919048Y54061905D01*
X-19823810Y54014286D01*
X-19538096Y54014286D01*
X-19442858Y54061905D01*
X-19395239Y54109524D01*
X-19347620Y54204762D01*
X-19347620Y54395239D01*
X-19395239Y54490477D01*
X-20014286Y53680953D02*
X-19347620Y53442858D01*
X-20014286Y53204762D02*
X-19347620Y53442858D01*
X-19109524Y53538096D01*
X-19061905Y53585715D01*
X-19014286Y53680953D01*
X-19347620Y52061905D02*
X-20347620Y52061905D01*
X-19633334Y51728572D01*
X-20347620Y51395239D01*
X-19347620Y51395239D01*
X-19347620Y50490477D02*
X-19871429Y50490477D01*
X-19966667Y50538096D01*
X-20014286Y50633334D01*
X-20014286Y50823810D01*
X-19966667Y50919048D01*
X-19395239Y50490477D02*
X-19347620Y50585715D01*
X-19347620Y50823810D01*
X-19395239Y50919048D01*
X-19490477Y50966667D01*
X-19585715Y50966667D01*
X-19680953Y50919048D01*
X-19728572Y50823810D01*
X-19728572Y50585715D01*
X-19776191Y50490477D01*
X-20014286Y50157143D02*
X-20014286Y49776191D01*
X-20347620Y50014286D02*
X-19490477Y50014286D01*
X-19395239Y49966667D01*
X-19347620Y49871429D01*
X-19347620Y49776191D01*
X-19395239Y49490477D02*
X-19347620Y49395239D01*
X-19347620Y49204762D01*
X-19395239Y49109524D01*
X-19490477Y49061905D01*
X-19538096Y49061905D01*
X-19633334Y49109524D01*
X-19680953Y49204762D01*
X-19680953Y49347620D01*
X-19728572Y49442858D01*
X-19823810Y49490477D01*
X-19871429Y49490477D01*
X-19966667Y49442858D01*
X-20014286Y49347620D01*
X-20014286Y49204762D01*
X-19966667Y49109524D01*
X-20014286Y47966667D02*
X-19347620Y47728572D01*
X-20014286Y47490477D01*
X-19347620Y46680953D02*
X-19871429Y46680953D01*
X-19966667Y46728572D01*
X-20014286Y46823810D01*
X-20014286Y47014286D01*
X-19966667Y47109524D01*
X-19395239Y46680953D02*
X-19347620Y46776191D01*
X-19347620Y47014286D01*
X-19395239Y47109524D01*
X-19490477Y47157143D01*
X-19585715Y47157143D01*
X-19680953Y47109524D01*
X-19728572Y47014286D01*
X-19728572Y46776191D01*
X-19776191Y46680953D01*
X-20014286Y46204762D02*
X-19347620Y46204762D01*
X-19919048Y46204762D02*
X-19966667Y46157143D01*
X-20014286Y46061905D01*
X-20014286Y45919048D01*
X-19966667Y45823810D01*
X-19871429Y45776191D01*
X-19347620Y45776191D01*
X-19347620Y43966667D02*
X-19823810Y44300000D01*
X-19347620Y44538096D02*
X-20347620Y44538096D01*
X-20347620Y44157143D01*
X-20300000Y44061905D01*
X-20252381Y44014286D01*
X-20157143Y43966667D01*
X-20014286Y43966667D01*
X-19919048Y44014286D01*
X-19871429Y44061905D01*
X-19823810Y44157143D01*
X-19823810Y44538096D01*
X-19395239Y43157143D02*
X-19347620Y43252381D01*
X-19347620Y43442858D01*
X-19395239Y43538096D01*
X-19490477Y43585715D01*
X-19871429Y43585715D01*
X-19966667Y43538096D01*
X-20014286Y43442858D01*
X-20014286Y43252381D01*
X-19966667Y43157143D01*
X-19871429Y43109524D01*
X-19776191Y43109524D01*
X-19680953Y43585715D01*
X-19395239Y42300000D02*
X-19347620Y42395239D01*
X-19347620Y42585715D01*
X-19395239Y42680953D01*
X-19490477Y42728572D01*
X-19871429Y42728572D01*
X-19966667Y42680953D01*
X-20014286Y42585715D01*
X-20014286Y42395239D01*
X-19966667Y42300000D01*
X-19871429Y42252381D01*
X-19776191Y42252381D01*
X-19680953Y42728572D01*
X-20014286Y41823810D02*
X-19347620Y41823810D01*
X-19919048Y41823810D02*
X-19966667Y41776191D01*
X-20014286Y41680953D01*
X-20014286Y41538096D01*
X-19966667Y41442858D01*
X-19871429Y41395239D01*
X-19347620Y41395239D01*
X-19395239Y40538096D02*
X-19347620Y40633334D01*
X-19347620Y40823810D01*
X-19395239Y40919048D01*
X-19490477Y40966667D01*
X-19871429Y40966667D01*
X-19966667Y40919048D01*
X-20014286Y40823810D01*
X-20014286Y40633334D01*
X-19966667Y40538096D01*
X-19871429Y40490477D01*
X-19776191Y40490477D01*
X-19680953Y40966667D01*
X-20014286Y40061905D02*
X-19347620Y40061905D01*
X-19919048Y40061905D02*
X-19966667Y40014286D01*
X-20014286Y39919048D01*
X-20014286Y39776191D01*
X-19966667Y39680953D01*
X-19871429Y39633334D01*
X-19347620Y39633334D01*
M02*
