%TF.GenerationSoftware,KiCad,Pcbnew,(5.99.0-8361-gd4c36230d2)*%
%TF.CreationDate,2021-01-14T13:58:05+01:00*%
%TF.ProjectId,mp3,6d70332e-6b69-4636-9164-5f7063625858,rev?*%
%TF.SameCoordinates,PXae85bc0PY7459280*%
%TF.FileFunction,Other,User*%
%FSLAX46Y46*%
G04 Gerber Fmt 4.6, Leading zero omitted, Abs format (unit mm)*
G04 Created by KiCad (PCBNEW (5.99.0-8361-gd4c36230d2)) date 2021-01-14 13:58:05*
%MOMM*%
%LPD*%
G01*
G04 APERTURE LIST*
%ADD10C,0.080000*%
%ADD11C,0.150000*%
G04 APERTURE END LIST*
D10*
X-15930953Y24178810D02*
X-15645239Y24178810D01*
X-15788096Y23678810D02*
X-15788096Y24178810D01*
X-15478572Y23678810D02*
X-15478572Y24178810D01*
X-15288096Y24178810D01*
X-15240477Y24155000D01*
X-15216667Y24131191D01*
X-15192858Y24083572D01*
X-15192858Y24012143D01*
X-15216667Y23964524D01*
X-15240477Y23940715D01*
X-15288096Y23916905D01*
X-15478572Y23916905D01*
X-14907143Y23964524D02*
X-14954762Y23988334D01*
X-14978572Y24012143D01*
X-15002381Y24059762D01*
X-15002381Y24083572D01*
X-14978572Y24131191D01*
X-14954762Y24155000D01*
X-14907143Y24178810D01*
X-14811905Y24178810D01*
X-14764286Y24155000D01*
X-14740477Y24131191D01*
X-14716667Y24083572D01*
X-14716667Y24059762D01*
X-14740477Y24012143D01*
X-14764286Y23988334D01*
X-14811905Y23964524D01*
X-14907143Y23964524D01*
X-14954762Y23940715D01*
X-14978572Y23916905D01*
X-15002381Y23869286D01*
X-15002381Y23774048D01*
X-14978572Y23726429D01*
X-14954762Y23702620D01*
X-14907143Y23678810D01*
X-14811905Y23678810D01*
X-14764286Y23702620D01*
X-14740477Y23726429D01*
X-14716667Y23774048D01*
X-14716667Y23869286D01*
X-14740477Y23916905D01*
X-14764286Y23940715D01*
X-14811905Y23964524D01*
X-16919048Y22873810D02*
X-16919048Y23373810D01*
X-16704762Y23326191D02*
X-16680953Y23350000D01*
X-16633334Y23373810D01*
X-16514286Y23373810D01*
X-16466667Y23350000D01*
X-16442858Y23326191D01*
X-16419048Y23278572D01*
X-16419048Y23230953D01*
X-16442858Y23159524D01*
X-16728572Y22873810D01*
X-16419048Y22873810D01*
X-16228572Y22897620D02*
X-16157143Y22873810D01*
X-16038096Y22873810D01*
X-15990477Y22897620D01*
X-15966667Y22921429D01*
X-15942858Y22969048D01*
X-15942858Y23016667D01*
X-15966667Y23064286D01*
X-15990477Y23088096D01*
X-16038096Y23111905D01*
X-16133334Y23135715D01*
X-16180953Y23159524D01*
X-16204762Y23183334D01*
X-16228572Y23230953D01*
X-16228572Y23278572D01*
X-16204762Y23326191D01*
X-16180953Y23350000D01*
X-16133334Y23373810D01*
X-16014286Y23373810D01*
X-15942858Y23350000D01*
X-15847620Y22826191D02*
X-15466667Y22826191D01*
X-15109524Y22873810D02*
X-15347620Y22873810D01*
X-15347620Y23373810D01*
X-14657143Y22873810D02*
X-14823810Y23111905D01*
X-14942858Y22873810D02*
X-14942858Y23373810D01*
X-14752381Y23373810D01*
X-14704762Y23350000D01*
X-14680953Y23326191D01*
X-14657143Y23278572D01*
X-14657143Y23207143D01*
X-14680953Y23159524D01*
X-14704762Y23135715D01*
X-14752381Y23111905D01*
X-14942858Y23111905D01*
X-14157143Y22921429D02*
X-14180953Y22897620D01*
X-14252381Y22873810D01*
X-14300000Y22873810D01*
X-14371429Y22897620D01*
X-14419048Y22945239D01*
X-14442858Y22992858D01*
X-14466667Y23088096D01*
X-14466667Y23159524D01*
X-14442858Y23254762D01*
X-14419048Y23302381D01*
X-14371429Y23350000D01*
X-14300000Y23373810D01*
X-14252381Y23373810D01*
X-14180953Y23350000D01*
X-14157143Y23326191D01*
X-13942858Y22873810D02*
X-13942858Y23373810D01*
X-13657143Y22873810D02*
X-13871429Y23159524D01*
X-13657143Y23373810D02*
X-13942858Y23088096D01*
X-16990477Y21878334D02*
X-17014286Y21902143D01*
X-17061905Y21973572D01*
X-17085715Y22021191D01*
X-17109524Y22092620D01*
X-17133334Y22211667D01*
X-17133334Y22306905D01*
X-17109524Y22425953D01*
X-17085715Y22497381D01*
X-17061905Y22545000D01*
X-17014286Y22616429D01*
X-16990477Y22640239D01*
X-16538096Y22068810D02*
X-16823810Y22068810D01*
X-16680953Y22068810D02*
X-16680953Y22568810D01*
X-16728572Y22497381D01*
X-16776191Y22449762D01*
X-16823810Y22425953D01*
X-16061905Y22068810D02*
X-16347620Y22068810D01*
X-16204762Y22068810D02*
X-16204762Y22568810D01*
X-16252381Y22497381D01*
X-16300000Y22449762D01*
X-16347620Y22425953D01*
X-15823810Y22092620D02*
X-15823810Y22068810D01*
X-15847620Y22021191D01*
X-15871429Y21997381D01*
X-15252381Y22521191D02*
X-15228572Y22545000D01*
X-15180953Y22568810D01*
X-15061905Y22568810D01*
X-15014286Y22545000D01*
X-14990477Y22521191D01*
X-14966667Y22473572D01*
X-14966667Y22425953D01*
X-14990477Y22354524D01*
X-15276191Y22068810D01*
X-14966667Y22068810D01*
X-14776191Y22521191D02*
X-14752381Y22545000D01*
X-14704762Y22568810D01*
X-14585715Y22568810D01*
X-14538096Y22545000D01*
X-14514286Y22521191D01*
X-14490477Y22473572D01*
X-14490477Y22425953D01*
X-14514286Y22354524D01*
X-14800000Y22068810D01*
X-14490477Y22068810D01*
X-14276191Y22116429D02*
X-14252381Y22092620D01*
X-14276191Y22068810D01*
X-14300000Y22092620D01*
X-14276191Y22116429D01*
X-14276191Y22068810D01*
X-14014286Y22068810D02*
X-13919048Y22068810D01*
X-13871429Y22092620D01*
X-13847620Y22116429D01*
X-13800000Y22187858D01*
X-13776191Y22283096D01*
X-13776191Y22473572D01*
X-13800000Y22521191D01*
X-13823810Y22545000D01*
X-13871429Y22568810D01*
X-13966667Y22568810D01*
X-14014286Y22545000D01*
X-14038096Y22521191D01*
X-14061905Y22473572D01*
X-14061905Y22354524D01*
X-14038096Y22306905D01*
X-14014286Y22283096D01*
X-13966667Y22259286D01*
X-13871429Y22259286D01*
X-13823810Y22283096D01*
X-13800000Y22306905D01*
X-13776191Y22354524D01*
X-13609524Y21878334D02*
X-13585715Y21902143D01*
X-13538096Y21973572D01*
X-13514286Y22021191D01*
X-13490477Y22092620D01*
X-13466667Y22211667D01*
X-13466667Y22306905D01*
X-13490477Y22425953D01*
X-13514286Y22497381D01*
X-13538096Y22545000D01*
X-13585715Y22616429D01*
X-13609524Y22640239D01*
X-21430953Y31378810D02*
X-21145239Y31378810D01*
X-21288096Y30878810D02*
X-21288096Y31378810D01*
X-20978572Y30878810D02*
X-20978572Y31378810D01*
X-20788096Y31378810D01*
X-20740477Y31355000D01*
X-20716667Y31331191D01*
X-20692858Y31283572D01*
X-20692858Y31212143D01*
X-20716667Y31164524D01*
X-20740477Y31140715D01*
X-20788096Y31116905D01*
X-20978572Y31116905D01*
X-20526191Y31378810D02*
X-20192858Y31378810D01*
X-20407143Y30878810D01*
X-21716667Y30335715D02*
X-21645239Y30311905D01*
X-21621429Y30288096D01*
X-21597620Y30240477D01*
X-21597620Y30169048D01*
X-21621429Y30121429D01*
X-21645239Y30097620D01*
X-21692858Y30073810D01*
X-21883334Y30073810D01*
X-21883334Y30573810D01*
X-21716667Y30573810D01*
X-21669048Y30550000D01*
X-21645239Y30526191D01*
X-21621429Y30478572D01*
X-21621429Y30430953D01*
X-21645239Y30383334D01*
X-21669048Y30359524D01*
X-21716667Y30335715D01*
X-21883334Y30335715D01*
X-21288096Y30573810D02*
X-21192858Y30573810D01*
X-21145239Y30550000D01*
X-21097620Y30502381D01*
X-21073810Y30407143D01*
X-21073810Y30240477D01*
X-21097620Y30145239D01*
X-21145239Y30097620D01*
X-21192858Y30073810D01*
X-21288096Y30073810D01*
X-21335715Y30097620D01*
X-21383334Y30145239D01*
X-21407143Y30240477D01*
X-21407143Y30407143D01*
X-21383334Y30502381D01*
X-21335715Y30550000D01*
X-21288096Y30573810D01*
X-20764286Y30573810D02*
X-20669048Y30573810D01*
X-20621429Y30550000D01*
X-20573810Y30502381D01*
X-20550000Y30407143D01*
X-20550000Y30240477D01*
X-20573810Y30145239D01*
X-20621429Y30097620D01*
X-20669048Y30073810D01*
X-20764286Y30073810D01*
X-20811905Y30097620D01*
X-20859524Y30145239D01*
X-20883334Y30240477D01*
X-20883334Y30407143D01*
X-20859524Y30502381D01*
X-20811905Y30550000D01*
X-20764286Y30573810D01*
X-20407143Y30573810D02*
X-20121429Y30573810D01*
X-20264286Y30073810D02*
X-20264286Y30573810D01*
X-19859524Y30573810D02*
X-19811905Y30573810D01*
X-19764286Y30550000D01*
X-19740477Y30526191D01*
X-19716667Y30478572D01*
X-19692858Y30383334D01*
X-19692858Y30264286D01*
X-19716667Y30169048D01*
X-19740477Y30121429D01*
X-19764286Y30097620D01*
X-19811905Y30073810D01*
X-19859524Y30073810D01*
X-19907143Y30097620D01*
X-19930953Y30121429D01*
X-19954762Y30169048D01*
X-19978572Y30264286D01*
X-19978572Y30383334D01*
X-19954762Y30478572D01*
X-19930953Y30526191D01*
X-19907143Y30550000D01*
X-19859524Y30573810D01*
X-22490477Y29078334D02*
X-22514286Y29102143D01*
X-22561905Y29173572D01*
X-22585715Y29221191D01*
X-22609524Y29292620D01*
X-22633334Y29411667D01*
X-22633334Y29506905D01*
X-22609524Y29625953D01*
X-22585715Y29697381D01*
X-22561905Y29745000D01*
X-22514286Y29816429D01*
X-22490477Y29840239D01*
X-22038096Y29268810D02*
X-22323810Y29268810D01*
X-22180953Y29268810D02*
X-22180953Y29768810D01*
X-22228572Y29697381D01*
X-22276191Y29649762D01*
X-22323810Y29625953D01*
X-21871429Y29768810D02*
X-21538096Y29768810D01*
X-21752381Y29268810D01*
X-21323810Y29292620D02*
X-21323810Y29268810D01*
X-21347620Y29221191D01*
X-21371429Y29197381D01*
X-20776191Y29768810D02*
X-20466667Y29768810D01*
X-20633334Y29578334D01*
X-20561905Y29578334D01*
X-20514286Y29554524D01*
X-20490477Y29530715D01*
X-20466667Y29483096D01*
X-20466667Y29364048D01*
X-20490477Y29316429D01*
X-20514286Y29292620D01*
X-20561905Y29268810D01*
X-20704762Y29268810D01*
X-20752381Y29292620D01*
X-20776191Y29316429D01*
X-20157143Y29768810D02*
X-20109524Y29768810D01*
X-20061905Y29745000D01*
X-20038096Y29721191D01*
X-20014286Y29673572D01*
X-19990477Y29578334D01*
X-19990477Y29459286D01*
X-20014286Y29364048D01*
X-20038096Y29316429D01*
X-20061905Y29292620D01*
X-20109524Y29268810D01*
X-20157143Y29268810D01*
X-20204762Y29292620D01*
X-20228572Y29316429D01*
X-20252381Y29364048D01*
X-20276191Y29459286D01*
X-20276191Y29578334D01*
X-20252381Y29673572D01*
X-20228572Y29721191D01*
X-20204762Y29745000D01*
X-20157143Y29768810D01*
X-19776191Y29316429D02*
X-19752381Y29292620D01*
X-19776191Y29268810D01*
X-19800000Y29292620D01*
X-19776191Y29316429D01*
X-19776191Y29268810D01*
X-19276191Y29268810D02*
X-19561905Y29268810D01*
X-19419048Y29268810D02*
X-19419048Y29768810D01*
X-19466667Y29697381D01*
X-19514286Y29649762D01*
X-19561905Y29625953D01*
X-19109524Y29078334D02*
X-19085715Y29102143D01*
X-19038096Y29173572D01*
X-19014286Y29221191D01*
X-18990477Y29292620D01*
X-18966667Y29411667D01*
X-18966667Y29506905D01*
X-18990477Y29625953D01*
X-19014286Y29697381D01*
X-19038096Y29745000D01*
X-19085715Y29816429D01*
X-19109524Y29840239D01*
X-13469048Y13778810D02*
X-13183334Y13778810D01*
X-13326191Y13278810D02*
X-13326191Y13778810D01*
X-13016667Y13278810D02*
X-13016667Y13778810D01*
X-12826191Y13778810D01*
X-12778572Y13755000D01*
X-12754762Y13731191D01*
X-12730953Y13683572D01*
X-12730953Y13612143D01*
X-12754762Y13564524D01*
X-12778572Y13540715D01*
X-12826191Y13516905D01*
X-13016667Y13516905D01*
X-12254762Y13278810D02*
X-12540477Y13278810D01*
X-12397620Y13278810D02*
X-12397620Y13778810D01*
X-12445239Y13707381D01*
X-12492858Y13659762D01*
X-12540477Y13635953D01*
X-11778572Y13278810D02*
X-12064286Y13278810D01*
X-11921429Y13278810D02*
X-11921429Y13778810D01*
X-11969048Y13707381D01*
X-12016667Y13659762D01*
X-12064286Y13635953D01*
X-14004762Y12473810D02*
X-14004762Y12973810D01*
X-13790477Y12926191D02*
X-13766667Y12950000D01*
X-13719048Y12973810D01*
X-13600000Y12973810D01*
X-13552381Y12950000D01*
X-13528572Y12926191D01*
X-13504762Y12878572D01*
X-13504762Y12830953D01*
X-13528572Y12759524D01*
X-13814286Y12473810D01*
X-13504762Y12473810D01*
X-13314286Y12497620D02*
X-13242858Y12473810D01*
X-13123810Y12473810D01*
X-13076191Y12497620D01*
X-13052381Y12521429D01*
X-13028572Y12569048D01*
X-13028572Y12616667D01*
X-13052381Y12664286D01*
X-13076191Y12688096D01*
X-13123810Y12711905D01*
X-13219048Y12735715D01*
X-13266667Y12759524D01*
X-13290477Y12783334D01*
X-13314286Y12830953D01*
X-13314286Y12878572D01*
X-13290477Y12926191D01*
X-13266667Y12950000D01*
X-13219048Y12973810D01*
X-13100000Y12973810D01*
X-13028572Y12950000D01*
X-12933334Y12426191D02*
X-12552381Y12426191D01*
X-12457143Y12497620D02*
X-12385715Y12473810D01*
X-12266667Y12473810D01*
X-12219048Y12497620D01*
X-12195239Y12521429D01*
X-12171429Y12569048D01*
X-12171429Y12616667D01*
X-12195239Y12664286D01*
X-12219048Y12688096D01*
X-12266667Y12711905D01*
X-12361905Y12735715D01*
X-12409524Y12759524D01*
X-12433334Y12783334D01*
X-12457143Y12830953D01*
X-12457143Y12878572D01*
X-12433334Y12926191D01*
X-12409524Y12950000D01*
X-12361905Y12973810D01*
X-12242858Y12973810D01*
X-12171429Y12950000D01*
X-11671429Y12521429D02*
X-11695239Y12497620D01*
X-11766667Y12473810D01*
X-11814286Y12473810D01*
X-11885715Y12497620D01*
X-11933334Y12545239D01*
X-11957143Y12592858D01*
X-11980953Y12688096D01*
X-11980953Y12759524D01*
X-11957143Y12854762D01*
X-11933334Y12902381D01*
X-11885715Y12950000D01*
X-11814286Y12973810D01*
X-11766667Y12973810D01*
X-11695239Y12950000D01*
X-11671429Y12926191D01*
X-11457143Y12473810D02*
X-11457143Y12973810D01*
X-11171429Y12473810D02*
X-11385715Y12759524D01*
X-11171429Y12973810D02*
X-11457143Y12688096D01*
X-14409524Y11478334D02*
X-14433334Y11502143D01*
X-14480953Y11573572D01*
X-14504762Y11621191D01*
X-14528572Y11692620D01*
X-14552381Y11811667D01*
X-14552381Y11906905D01*
X-14528572Y12025953D01*
X-14504762Y12097381D01*
X-14480953Y12145000D01*
X-14433334Y12216429D01*
X-14409524Y12240239D01*
X-14195239Y11668810D02*
X-14100000Y11668810D01*
X-14052381Y11692620D01*
X-14028572Y11716429D01*
X-13980953Y11787858D01*
X-13957143Y11883096D01*
X-13957143Y12073572D01*
X-13980953Y12121191D01*
X-14004762Y12145000D01*
X-14052381Y12168810D01*
X-14147620Y12168810D01*
X-14195239Y12145000D01*
X-14219048Y12121191D01*
X-14242858Y12073572D01*
X-14242858Y11954524D01*
X-14219048Y11906905D01*
X-14195239Y11883096D01*
X-14147620Y11859286D01*
X-14052381Y11859286D01*
X-14004762Y11883096D01*
X-13980953Y11906905D01*
X-13957143Y11954524D01*
X-13742858Y11716429D02*
X-13719048Y11692620D01*
X-13742858Y11668810D01*
X-13766667Y11692620D01*
X-13742858Y11716429D01*
X-13742858Y11668810D01*
X-13552381Y12168810D02*
X-13242858Y12168810D01*
X-13409524Y11978334D01*
X-13338096Y11978334D01*
X-13290477Y11954524D01*
X-13266667Y11930715D01*
X-13242858Y11883096D01*
X-13242858Y11764048D01*
X-13266667Y11716429D01*
X-13290477Y11692620D01*
X-13338096Y11668810D01*
X-13480953Y11668810D01*
X-13528572Y11692620D01*
X-13552381Y11716429D01*
X-13004762Y11692620D02*
X-13004762Y11668810D01*
X-13028572Y11621191D01*
X-13052381Y11597381D01*
X-12147620Y11668810D02*
X-12433334Y11668810D01*
X-12290477Y11668810D02*
X-12290477Y12168810D01*
X-12338096Y12097381D01*
X-12385715Y12049762D01*
X-12433334Y12025953D01*
X-11980953Y12168810D02*
X-11671429Y12168810D01*
X-11838096Y11978334D01*
X-11766667Y11978334D01*
X-11719048Y11954524D01*
X-11695239Y11930715D01*
X-11671429Y11883096D01*
X-11671429Y11764048D01*
X-11695239Y11716429D01*
X-11719048Y11692620D01*
X-11766667Y11668810D01*
X-11909524Y11668810D01*
X-11957143Y11692620D01*
X-11980953Y11716429D01*
X-11457143Y11716429D02*
X-11433334Y11692620D01*
X-11457143Y11668810D01*
X-11480953Y11692620D01*
X-11457143Y11716429D01*
X-11457143Y11668810D01*
X-11242858Y12121191D02*
X-11219048Y12145000D01*
X-11171429Y12168810D01*
X-11052381Y12168810D01*
X-11004762Y12145000D01*
X-10980953Y12121191D01*
X-10957143Y12073572D01*
X-10957143Y12025953D01*
X-10980953Y11954524D01*
X-11266667Y11668810D01*
X-10957143Y11668810D01*
X-10790477Y11478334D02*
X-10766667Y11502143D01*
X-10719048Y11573572D01*
X-10695239Y11621191D01*
X-10671429Y11692620D01*
X-10647620Y11811667D01*
X-10647620Y11906905D01*
X-10671429Y12025953D01*
X-10695239Y12097381D01*
X-10719048Y12145000D01*
X-10766667Y12216429D01*
X-10790477Y12240239D01*
X-35130953Y15578810D02*
X-34845239Y15578810D01*
X-34988096Y15078810D02*
X-34988096Y15578810D01*
X-34678572Y15078810D02*
X-34678572Y15578810D01*
X-34488096Y15578810D01*
X-34440477Y15555000D01*
X-34416667Y15531191D01*
X-34392858Y15483572D01*
X-34392858Y15412143D01*
X-34416667Y15364524D01*
X-34440477Y15340715D01*
X-34488096Y15316905D01*
X-34678572Y15316905D01*
X-34202381Y15531191D02*
X-34178572Y15555000D01*
X-34130953Y15578810D01*
X-34011905Y15578810D01*
X-33964286Y15555000D01*
X-33940477Y15531191D01*
X-33916667Y15483572D01*
X-33916667Y15435953D01*
X-33940477Y15364524D01*
X-34226191Y15078810D01*
X-33916667Y15078810D01*
X-36107143Y14297620D02*
X-36035715Y14273810D01*
X-35916667Y14273810D01*
X-35869048Y14297620D01*
X-35845239Y14321429D01*
X-35821429Y14369048D01*
X-35821429Y14416667D01*
X-35845239Y14464286D01*
X-35869048Y14488096D01*
X-35916667Y14511905D01*
X-36011905Y14535715D01*
X-36059524Y14559524D01*
X-36083334Y14583334D01*
X-36107143Y14630953D01*
X-36107143Y14678572D01*
X-36083334Y14726191D01*
X-36059524Y14750000D01*
X-36011905Y14773810D01*
X-35892858Y14773810D01*
X-35821429Y14750000D01*
X-35607143Y14273810D02*
X-35607143Y14773810D01*
X-35416667Y14773810D01*
X-35369048Y14750000D01*
X-35345239Y14726191D01*
X-35321429Y14678572D01*
X-35321429Y14607143D01*
X-35345239Y14559524D01*
X-35369048Y14535715D01*
X-35416667Y14511905D01*
X-35607143Y14511905D01*
X-35107143Y14273810D02*
X-35107143Y14773810D01*
X-34988096Y14226191D02*
X-34607143Y14226191D01*
X-34488096Y14273810D02*
X-34488096Y14773810D01*
X-34321429Y14416667D01*
X-34154762Y14773810D01*
X-34154762Y14273810D01*
X-33916667Y14273810D02*
X-33916667Y14773810D01*
X-33702381Y14297620D02*
X-33630953Y14273810D01*
X-33511905Y14273810D01*
X-33464286Y14297620D01*
X-33440477Y14321429D01*
X-33416667Y14369048D01*
X-33416667Y14416667D01*
X-33440477Y14464286D01*
X-33464286Y14488096D01*
X-33511905Y14511905D01*
X-33607143Y14535715D01*
X-33654762Y14559524D01*
X-33678572Y14583334D01*
X-33702381Y14630953D01*
X-33702381Y14678572D01*
X-33678572Y14726191D01*
X-33654762Y14750000D01*
X-33607143Y14773810D01*
X-33488096Y14773810D01*
X-33416667Y14750000D01*
X-33107143Y14773810D02*
X-33011905Y14773810D01*
X-32964286Y14750000D01*
X-32916667Y14702381D01*
X-32892858Y14607143D01*
X-32892858Y14440477D01*
X-32916667Y14345239D01*
X-32964286Y14297620D01*
X-33011905Y14273810D01*
X-33107143Y14273810D01*
X-33154762Y14297620D01*
X-33202381Y14345239D01*
X-33226191Y14440477D01*
X-33226191Y14607143D01*
X-33202381Y14702381D01*
X-33154762Y14750000D01*
X-33107143Y14773810D01*
X-36190477Y13278334D02*
X-36214286Y13302143D01*
X-36261905Y13373572D01*
X-36285715Y13421191D01*
X-36309524Y13492620D01*
X-36333334Y13611667D01*
X-36333334Y13706905D01*
X-36309524Y13825953D01*
X-36285715Y13897381D01*
X-36261905Y13945000D01*
X-36214286Y14016429D01*
X-36190477Y14040239D01*
X-36047620Y13968810D02*
X-35738096Y13968810D01*
X-35904762Y13778334D01*
X-35833334Y13778334D01*
X-35785715Y13754524D01*
X-35761905Y13730715D01*
X-35738096Y13683096D01*
X-35738096Y13564048D01*
X-35761905Y13516429D01*
X-35785715Y13492620D01*
X-35833334Y13468810D01*
X-35976191Y13468810D01*
X-36023810Y13492620D01*
X-36047620Y13516429D01*
X-35261905Y13468810D02*
X-35547620Y13468810D01*
X-35404762Y13468810D02*
X-35404762Y13968810D01*
X-35452381Y13897381D01*
X-35500000Y13849762D01*
X-35547620Y13825953D01*
X-35047620Y13516429D02*
X-35023810Y13492620D01*
X-35047620Y13468810D01*
X-35071429Y13492620D01*
X-35047620Y13516429D01*
X-35047620Y13468810D01*
X-34571429Y13968810D02*
X-34809524Y13968810D01*
X-34833334Y13730715D01*
X-34809524Y13754524D01*
X-34761905Y13778334D01*
X-34642858Y13778334D01*
X-34595239Y13754524D01*
X-34571429Y13730715D01*
X-34547620Y13683096D01*
X-34547620Y13564048D01*
X-34571429Y13516429D01*
X-34595239Y13492620D01*
X-34642858Y13468810D01*
X-34761905Y13468810D01*
X-34809524Y13492620D01*
X-34833334Y13516429D01*
X-34309524Y13492620D02*
X-34309524Y13468810D01*
X-34333334Y13421191D01*
X-34357143Y13397381D01*
X-33452381Y13468810D02*
X-33738096Y13468810D01*
X-33595239Y13468810D02*
X-33595239Y13968810D01*
X-33642858Y13897381D01*
X-33690477Y13849762D01*
X-33738096Y13825953D01*
X-33023810Y13968810D02*
X-33119048Y13968810D01*
X-33166667Y13945000D01*
X-33190477Y13921191D01*
X-33238096Y13849762D01*
X-33261905Y13754524D01*
X-33261905Y13564048D01*
X-33238096Y13516429D01*
X-33214286Y13492620D01*
X-33166667Y13468810D01*
X-33071429Y13468810D01*
X-33023810Y13492620D01*
X-33000000Y13516429D01*
X-32976191Y13564048D01*
X-32976191Y13683096D01*
X-33000000Y13730715D01*
X-33023810Y13754524D01*
X-33071429Y13778334D01*
X-33166667Y13778334D01*
X-33214286Y13754524D01*
X-33238096Y13730715D01*
X-33261905Y13683096D01*
X-32809524Y13278334D02*
X-32785715Y13302143D01*
X-32738096Y13373572D01*
X-32714286Y13421191D01*
X-32690477Y13492620D01*
X-32666667Y13611667D01*
X-32666667Y13706905D01*
X-32690477Y13825953D01*
X-32714286Y13897381D01*
X-32738096Y13945000D01*
X-32785715Y14016429D01*
X-32809524Y14040239D01*
X-23030953Y16678810D02*
X-22745239Y16678810D01*
X-22888096Y16178810D02*
X-22888096Y16678810D01*
X-22578572Y16178810D02*
X-22578572Y16678810D01*
X-22388096Y16678810D01*
X-22340477Y16655000D01*
X-22316667Y16631191D01*
X-22292858Y16583572D01*
X-22292858Y16512143D01*
X-22316667Y16464524D01*
X-22340477Y16440715D01*
X-22388096Y16416905D01*
X-22578572Y16416905D01*
X-21816667Y16178810D02*
X-22102381Y16178810D01*
X-21959524Y16178810D02*
X-21959524Y16678810D01*
X-22007143Y16607381D01*
X-22054762Y16559762D01*
X-22102381Y16535953D01*
X-23804762Y15397620D02*
X-23733334Y15373810D01*
X-23614286Y15373810D01*
X-23566667Y15397620D01*
X-23542858Y15421429D01*
X-23519048Y15469048D01*
X-23519048Y15516667D01*
X-23542858Y15564286D01*
X-23566667Y15588096D01*
X-23614286Y15611905D01*
X-23709524Y15635715D01*
X-23757143Y15659524D01*
X-23780953Y15683334D01*
X-23804762Y15730953D01*
X-23804762Y15778572D01*
X-23780953Y15826191D01*
X-23757143Y15850000D01*
X-23709524Y15873810D01*
X-23590477Y15873810D01*
X-23519048Y15850000D01*
X-23304762Y15373810D02*
X-23304762Y15873810D01*
X-23114286Y15873810D01*
X-23066667Y15850000D01*
X-23042858Y15826191D01*
X-23019048Y15778572D01*
X-23019048Y15707143D01*
X-23042858Y15659524D01*
X-23066667Y15635715D01*
X-23114286Y15611905D01*
X-23304762Y15611905D01*
X-22804762Y15373810D02*
X-22804762Y15873810D01*
X-22685715Y15326191D02*
X-22304762Y15326191D01*
X-21900000Y15421429D02*
X-21923810Y15397620D01*
X-21995239Y15373810D01*
X-22042858Y15373810D01*
X-22114286Y15397620D01*
X-22161905Y15445239D01*
X-22185715Y15492858D01*
X-22209524Y15588096D01*
X-22209524Y15659524D01*
X-22185715Y15754762D01*
X-22161905Y15802381D01*
X-22114286Y15850000D01*
X-22042858Y15873810D01*
X-21995239Y15873810D01*
X-21923810Y15850000D01*
X-21900000Y15826191D01*
X-21447620Y15373810D02*
X-21685715Y15373810D01*
X-21685715Y15873810D01*
X-21280953Y15373810D02*
X-21280953Y15873810D01*
X-20995239Y15373810D02*
X-21209524Y15659524D01*
X-20995239Y15873810D02*
X-21280953Y15588096D01*
X-24447620Y14378334D02*
X-24471429Y14402143D01*
X-24519048Y14473572D01*
X-24542858Y14521191D01*
X-24566667Y14592620D01*
X-24590477Y14711667D01*
X-24590477Y14806905D01*
X-24566667Y14925953D01*
X-24542858Y14997381D01*
X-24519048Y15045000D01*
X-24471429Y15116429D01*
X-24447620Y15140239D01*
X-24280953Y15021191D02*
X-24257143Y15045000D01*
X-24209524Y15068810D01*
X-24090477Y15068810D01*
X-24042858Y15045000D01*
X-24019048Y15021191D01*
X-23995239Y14973572D01*
X-23995239Y14925953D01*
X-24019048Y14854524D01*
X-24304762Y14568810D01*
X-23995239Y14568810D01*
X-23542858Y15068810D02*
X-23780953Y15068810D01*
X-23804762Y14830715D01*
X-23780953Y14854524D01*
X-23733334Y14878334D01*
X-23614286Y14878334D01*
X-23566667Y14854524D01*
X-23542858Y14830715D01*
X-23519048Y14783096D01*
X-23519048Y14664048D01*
X-23542858Y14616429D01*
X-23566667Y14592620D01*
X-23614286Y14568810D01*
X-23733334Y14568810D01*
X-23780953Y14592620D01*
X-23804762Y14616429D01*
X-23304762Y14616429D02*
X-23280953Y14592620D01*
X-23304762Y14568810D01*
X-23328572Y14592620D01*
X-23304762Y14616429D01*
X-23304762Y14568810D01*
X-22852381Y14902143D02*
X-22852381Y14568810D01*
X-22971429Y15092620D02*
X-23090477Y14735477D01*
X-22780953Y14735477D01*
X-22566667Y14592620D02*
X-22566667Y14568810D01*
X-22590477Y14521191D01*
X-22614286Y14497381D01*
X-21709524Y14568810D02*
X-21995239Y14568810D01*
X-21852381Y14568810D02*
X-21852381Y15068810D01*
X-21900000Y14997381D01*
X-21947620Y14949762D01*
X-21995239Y14925953D01*
X-21280953Y15068810D02*
X-21376191Y15068810D01*
X-21423810Y15045000D01*
X-21447620Y15021191D01*
X-21495239Y14949762D01*
X-21519048Y14854524D01*
X-21519048Y14664048D01*
X-21495239Y14616429D01*
X-21471429Y14592620D01*
X-21423810Y14568810D01*
X-21328572Y14568810D01*
X-21280953Y14592620D01*
X-21257143Y14616429D01*
X-21233334Y14664048D01*
X-21233334Y14783096D01*
X-21257143Y14830715D01*
X-21280953Y14854524D01*
X-21328572Y14878334D01*
X-21423810Y14878334D01*
X-21471429Y14854524D01*
X-21495239Y14830715D01*
X-21519048Y14783096D01*
X-21019048Y14616429D02*
X-20995239Y14592620D01*
X-21019048Y14568810D01*
X-21042858Y14592620D01*
X-21019048Y14616429D01*
X-21019048Y14568810D01*
X-20757143Y14568810D02*
X-20661905Y14568810D01*
X-20614286Y14592620D01*
X-20590477Y14616429D01*
X-20542858Y14687858D01*
X-20519048Y14783096D01*
X-20519048Y14973572D01*
X-20542858Y15021191D01*
X-20566667Y15045000D01*
X-20614286Y15068810D01*
X-20709524Y15068810D01*
X-20757143Y15045000D01*
X-20780953Y15021191D01*
X-20804762Y14973572D01*
X-20804762Y14854524D01*
X-20780953Y14806905D01*
X-20757143Y14783096D01*
X-20709524Y14759286D01*
X-20614286Y14759286D01*
X-20566667Y14783096D01*
X-20542858Y14806905D01*
X-20519048Y14854524D01*
X-20352381Y14378334D02*
X-20328572Y14402143D01*
X-20280953Y14473572D01*
X-20257143Y14521191D01*
X-20233334Y14592620D01*
X-20209524Y14711667D01*
X-20209524Y14806905D01*
X-20233334Y14925953D01*
X-20257143Y14997381D01*
X-20280953Y15045000D01*
X-20328572Y15116429D01*
X-20352381Y15140239D01*
X-28130953Y23178810D02*
X-27845239Y23178810D01*
X-27988096Y22678810D02*
X-27988096Y23178810D01*
X-27678572Y22678810D02*
X-27678572Y23178810D01*
X-27488096Y23178810D01*
X-27440477Y23155000D01*
X-27416667Y23131191D01*
X-27392858Y23083572D01*
X-27392858Y23012143D01*
X-27416667Y22964524D01*
X-27440477Y22940715D01*
X-27488096Y22916905D01*
X-27678572Y22916905D01*
X-26964286Y23178810D02*
X-27059524Y23178810D01*
X-27107143Y23155000D01*
X-27130953Y23131191D01*
X-27178572Y23059762D01*
X-27202381Y22964524D01*
X-27202381Y22774048D01*
X-27178572Y22726429D01*
X-27154762Y22702620D01*
X-27107143Y22678810D01*
X-27011905Y22678810D01*
X-26964286Y22702620D01*
X-26940477Y22726429D01*
X-26916667Y22774048D01*
X-26916667Y22893096D01*
X-26940477Y22940715D01*
X-26964286Y22964524D01*
X-27011905Y22988334D01*
X-27107143Y22988334D01*
X-27154762Y22964524D01*
X-27178572Y22940715D01*
X-27202381Y22893096D01*
X-28321429Y21873810D02*
X-28321429Y22373810D01*
X-28035715Y21873810D01*
X-28035715Y22373810D01*
X-27511905Y21873810D02*
X-27678572Y22111905D01*
X-27797620Y21873810D02*
X-27797620Y22373810D01*
X-27607143Y22373810D01*
X-27559524Y22350000D01*
X-27535715Y22326191D01*
X-27511905Y22278572D01*
X-27511905Y22207143D01*
X-27535715Y22159524D01*
X-27559524Y22135715D01*
X-27607143Y22111905D01*
X-27797620Y22111905D01*
X-27321429Y21897620D02*
X-27250000Y21873810D01*
X-27130953Y21873810D01*
X-27083334Y21897620D01*
X-27059524Y21921429D01*
X-27035715Y21969048D01*
X-27035715Y22016667D01*
X-27059524Y22064286D01*
X-27083334Y22088096D01*
X-27130953Y22111905D01*
X-27226191Y22135715D01*
X-27273810Y22159524D01*
X-27297620Y22183334D01*
X-27321429Y22230953D01*
X-27321429Y22278572D01*
X-27297620Y22326191D01*
X-27273810Y22350000D01*
X-27226191Y22373810D01*
X-27107143Y22373810D01*
X-27035715Y22350000D01*
X-26892858Y22373810D02*
X-26607143Y22373810D01*
X-26750000Y21873810D02*
X-26750000Y22373810D01*
X-29547620Y20878334D02*
X-29571429Y20902143D01*
X-29619048Y20973572D01*
X-29642858Y21021191D01*
X-29666667Y21092620D01*
X-29690477Y21211667D01*
X-29690477Y21306905D01*
X-29666667Y21425953D01*
X-29642858Y21497381D01*
X-29619048Y21545000D01*
X-29571429Y21616429D01*
X-29547620Y21640239D01*
X-29380953Y21521191D02*
X-29357143Y21545000D01*
X-29309524Y21568810D01*
X-29190477Y21568810D01*
X-29142858Y21545000D01*
X-29119048Y21521191D01*
X-29095239Y21473572D01*
X-29095239Y21425953D01*
X-29119048Y21354524D01*
X-29404762Y21068810D01*
X-29095239Y21068810D01*
X-28642858Y21568810D02*
X-28880953Y21568810D01*
X-28904762Y21330715D01*
X-28880953Y21354524D01*
X-28833334Y21378334D01*
X-28714286Y21378334D01*
X-28666667Y21354524D01*
X-28642858Y21330715D01*
X-28619048Y21283096D01*
X-28619048Y21164048D01*
X-28642858Y21116429D01*
X-28666667Y21092620D01*
X-28714286Y21068810D01*
X-28833334Y21068810D01*
X-28880953Y21092620D01*
X-28904762Y21116429D01*
X-28404762Y21116429D02*
X-28380953Y21092620D01*
X-28404762Y21068810D01*
X-28428572Y21092620D01*
X-28404762Y21116429D01*
X-28404762Y21068810D01*
X-27928572Y21568810D02*
X-28166667Y21568810D01*
X-28190477Y21330715D01*
X-28166667Y21354524D01*
X-28119048Y21378334D01*
X-28000000Y21378334D01*
X-27952381Y21354524D01*
X-27928572Y21330715D01*
X-27904762Y21283096D01*
X-27904762Y21164048D01*
X-27928572Y21116429D01*
X-27952381Y21092620D01*
X-28000000Y21068810D01*
X-28119048Y21068810D01*
X-28166667Y21092620D01*
X-28190477Y21116429D01*
X-27666667Y21092620D02*
X-27666667Y21068810D01*
X-27690477Y21021191D01*
X-27714286Y20997381D01*
X-26809524Y21068810D02*
X-27095239Y21068810D01*
X-26952381Y21068810D02*
X-26952381Y21568810D01*
X-27000000Y21497381D01*
X-27047620Y21449762D01*
X-27095239Y21425953D01*
X-26571429Y21068810D02*
X-26476191Y21068810D01*
X-26428572Y21092620D01*
X-26404762Y21116429D01*
X-26357143Y21187858D01*
X-26333334Y21283096D01*
X-26333334Y21473572D01*
X-26357143Y21521191D01*
X-26380953Y21545000D01*
X-26428572Y21568810D01*
X-26523810Y21568810D01*
X-26571429Y21545000D01*
X-26595239Y21521191D01*
X-26619048Y21473572D01*
X-26619048Y21354524D01*
X-26595239Y21306905D01*
X-26571429Y21283096D01*
X-26523810Y21259286D01*
X-26428572Y21259286D01*
X-26380953Y21283096D01*
X-26357143Y21306905D01*
X-26333334Y21354524D01*
X-26119048Y21116429D02*
X-26095239Y21092620D01*
X-26119048Y21068810D01*
X-26142858Y21092620D01*
X-26119048Y21116429D01*
X-26119048Y21068810D01*
X-25809524Y21354524D02*
X-25857143Y21378334D01*
X-25880953Y21402143D01*
X-25904762Y21449762D01*
X-25904762Y21473572D01*
X-25880953Y21521191D01*
X-25857143Y21545000D01*
X-25809524Y21568810D01*
X-25714286Y21568810D01*
X-25666667Y21545000D01*
X-25642858Y21521191D01*
X-25619048Y21473572D01*
X-25619048Y21449762D01*
X-25642858Y21402143D01*
X-25666667Y21378334D01*
X-25714286Y21354524D01*
X-25809524Y21354524D01*
X-25857143Y21330715D01*
X-25880953Y21306905D01*
X-25904762Y21259286D01*
X-25904762Y21164048D01*
X-25880953Y21116429D01*
X-25857143Y21092620D01*
X-25809524Y21068810D01*
X-25714286Y21068810D01*
X-25666667Y21092620D01*
X-25642858Y21116429D01*
X-25619048Y21164048D01*
X-25619048Y21259286D01*
X-25642858Y21306905D01*
X-25666667Y21330715D01*
X-25714286Y21354524D01*
X-25452381Y20878334D02*
X-25428572Y20902143D01*
X-25380953Y20973572D01*
X-25357143Y21021191D01*
X-25333334Y21092620D01*
X-25309524Y21211667D01*
X-25309524Y21306905D01*
X-25333334Y21425953D01*
X-25357143Y21497381D01*
X-25380953Y21545000D01*
X-25428572Y21616429D01*
X-25452381Y21640239D01*
X-21530953Y34178810D02*
X-21245239Y34178810D01*
X-21388096Y33678810D02*
X-21388096Y34178810D01*
X-21078572Y33678810D02*
X-21078572Y34178810D01*
X-20888096Y34178810D01*
X-20840477Y34155000D01*
X-20816667Y34131191D01*
X-20792858Y34083572D01*
X-20792858Y34012143D01*
X-20816667Y33964524D01*
X-20840477Y33940715D01*
X-20888096Y33916905D01*
X-21078572Y33916905D01*
X-20364286Y34012143D02*
X-20364286Y33678810D01*
X-20483334Y34202620D02*
X-20602381Y33845477D01*
X-20292858Y33845477D01*
X-22150000Y33064286D02*
X-21769048Y33064286D01*
X-21959524Y32873810D02*
X-21959524Y33254762D01*
X-21578572Y33373810D02*
X-21269048Y33373810D01*
X-21435715Y33183334D01*
X-21364286Y33183334D01*
X-21316667Y33159524D01*
X-21292858Y33135715D01*
X-21269048Y33088096D01*
X-21269048Y32969048D01*
X-21292858Y32921429D01*
X-21316667Y32897620D01*
X-21364286Y32873810D01*
X-21507143Y32873810D01*
X-21554762Y32897620D01*
X-21578572Y32921429D01*
X-21054762Y32921429D02*
X-21030953Y32897620D01*
X-21054762Y32873810D01*
X-21078572Y32897620D01*
X-21054762Y32921429D01*
X-21054762Y32873810D01*
X-20864286Y33373810D02*
X-20554762Y33373810D01*
X-20721429Y33183334D01*
X-20650000Y33183334D01*
X-20602381Y33159524D01*
X-20578572Y33135715D01*
X-20554762Y33088096D01*
X-20554762Y32969048D01*
X-20578572Y32921429D01*
X-20602381Y32897620D01*
X-20650000Y32873810D01*
X-20792858Y32873810D01*
X-20840477Y32897620D01*
X-20864286Y32921429D01*
X-20411905Y33373810D02*
X-20245239Y32873810D01*
X-20078572Y33373810D01*
X-19911905Y32873810D02*
X-19911905Y33373810D01*
X-19792858Y33373810D01*
X-19721429Y33350000D01*
X-19673810Y33302381D01*
X-19650000Y33254762D01*
X-19626191Y33159524D01*
X-19626191Y33088096D01*
X-19650000Y32992858D01*
X-19673810Y32945239D01*
X-19721429Y32897620D01*
X-19792858Y32873810D01*
X-19911905Y32873810D01*
X-22590477Y31878334D02*
X-22614286Y31902143D01*
X-22661905Y31973572D01*
X-22685715Y32021191D01*
X-22709524Y32092620D01*
X-22733334Y32211667D01*
X-22733334Y32306905D01*
X-22709524Y32425953D01*
X-22685715Y32497381D01*
X-22661905Y32545000D01*
X-22614286Y32616429D01*
X-22590477Y32640239D01*
X-22138096Y32068810D02*
X-22423810Y32068810D01*
X-22280953Y32068810D02*
X-22280953Y32568810D01*
X-22328572Y32497381D01*
X-22376191Y32449762D01*
X-22423810Y32425953D01*
X-21971429Y32568810D02*
X-21638096Y32568810D01*
X-21852381Y32068810D01*
X-21423810Y32092620D02*
X-21423810Y32068810D01*
X-21447620Y32021191D01*
X-21471429Y31997381D01*
X-20876191Y32568810D02*
X-20566667Y32568810D01*
X-20733334Y32378334D01*
X-20661905Y32378334D01*
X-20614286Y32354524D01*
X-20590477Y32330715D01*
X-20566667Y32283096D01*
X-20566667Y32164048D01*
X-20590477Y32116429D01*
X-20614286Y32092620D01*
X-20661905Y32068810D01*
X-20804762Y32068810D01*
X-20852381Y32092620D01*
X-20876191Y32116429D01*
X-20376191Y32521191D02*
X-20352381Y32545000D01*
X-20304762Y32568810D01*
X-20185715Y32568810D01*
X-20138096Y32545000D01*
X-20114286Y32521191D01*
X-20090477Y32473572D01*
X-20090477Y32425953D01*
X-20114286Y32354524D01*
X-20400000Y32068810D01*
X-20090477Y32068810D01*
X-19876191Y32116429D02*
X-19852381Y32092620D01*
X-19876191Y32068810D01*
X-19900000Y32092620D01*
X-19876191Y32116429D01*
X-19876191Y32068810D01*
X-19661905Y32521191D02*
X-19638096Y32545000D01*
X-19590477Y32568810D01*
X-19471429Y32568810D01*
X-19423810Y32545000D01*
X-19400000Y32521191D01*
X-19376191Y32473572D01*
X-19376191Y32425953D01*
X-19400000Y32354524D01*
X-19685715Y32068810D01*
X-19376191Y32068810D01*
X-19209524Y31878334D02*
X-19185715Y31902143D01*
X-19138096Y31973572D01*
X-19114286Y32021191D01*
X-19090477Y32092620D01*
X-19066667Y32211667D01*
X-19066667Y32306905D01*
X-19090477Y32425953D01*
X-19114286Y32497381D01*
X-19138096Y32545000D01*
X-19185715Y32616429D01*
X-19209524Y32640239D01*
X-21330953Y28578810D02*
X-21045239Y28578810D01*
X-21188096Y28078810D02*
X-21188096Y28578810D01*
X-20878572Y28078810D02*
X-20878572Y28578810D01*
X-20688096Y28578810D01*
X-20640477Y28555000D01*
X-20616667Y28531191D01*
X-20592858Y28483572D01*
X-20592858Y28412143D01*
X-20616667Y28364524D01*
X-20640477Y28340715D01*
X-20688096Y28316905D01*
X-20878572Y28316905D01*
X-20354762Y28078810D02*
X-20259524Y28078810D01*
X-20211905Y28102620D01*
X-20188096Y28126429D01*
X-20140477Y28197858D01*
X-20116667Y28293096D01*
X-20116667Y28483572D01*
X-20140477Y28531191D01*
X-20164286Y28555000D01*
X-20211905Y28578810D01*
X-20307143Y28578810D01*
X-20354762Y28555000D01*
X-20378572Y28531191D01*
X-20402381Y28483572D01*
X-20402381Y28364524D01*
X-20378572Y28316905D01*
X-20354762Y28293096D01*
X-20307143Y28269286D01*
X-20211905Y28269286D01*
X-20164286Y28293096D01*
X-20140477Y28316905D01*
X-20116667Y28364524D01*
X-21854762Y27273810D02*
X-21854762Y27773810D01*
X-21640477Y27726191D02*
X-21616667Y27750000D01*
X-21569048Y27773810D01*
X-21450000Y27773810D01*
X-21402381Y27750000D01*
X-21378572Y27726191D01*
X-21354762Y27678572D01*
X-21354762Y27630953D01*
X-21378572Y27559524D01*
X-21664286Y27273810D01*
X-21354762Y27273810D01*
X-21164286Y27297620D02*
X-21092858Y27273810D01*
X-20973810Y27273810D01*
X-20926191Y27297620D01*
X-20902381Y27321429D01*
X-20878572Y27369048D01*
X-20878572Y27416667D01*
X-20902381Y27464286D01*
X-20926191Y27488096D01*
X-20973810Y27511905D01*
X-21069048Y27535715D01*
X-21116667Y27559524D01*
X-21140477Y27583334D01*
X-21164286Y27630953D01*
X-21164286Y27678572D01*
X-21140477Y27726191D01*
X-21116667Y27750000D01*
X-21069048Y27773810D01*
X-20950000Y27773810D01*
X-20878572Y27750000D01*
X-20783334Y27226191D02*
X-20402381Y27226191D01*
X-20307143Y27297620D02*
X-20235715Y27273810D01*
X-20116667Y27273810D01*
X-20069048Y27297620D01*
X-20045239Y27321429D01*
X-20021429Y27369048D01*
X-20021429Y27416667D01*
X-20045239Y27464286D01*
X-20069048Y27488096D01*
X-20116667Y27511905D01*
X-20211905Y27535715D01*
X-20259524Y27559524D01*
X-20283334Y27583334D01*
X-20307143Y27630953D01*
X-20307143Y27678572D01*
X-20283334Y27726191D01*
X-20259524Y27750000D01*
X-20211905Y27773810D01*
X-20092858Y27773810D01*
X-20021429Y27750000D01*
X-19807143Y27273810D02*
X-19807143Y27773810D01*
X-19688096Y27773810D01*
X-19616667Y27750000D01*
X-19569048Y27702381D01*
X-19545239Y27654762D01*
X-19521429Y27559524D01*
X-19521429Y27488096D01*
X-19545239Y27392858D01*
X-19569048Y27345239D01*
X-19616667Y27297620D01*
X-19688096Y27273810D01*
X-19807143Y27273810D01*
X-22390477Y26278334D02*
X-22414286Y26302143D01*
X-22461905Y26373572D01*
X-22485715Y26421191D01*
X-22509524Y26492620D01*
X-22533334Y26611667D01*
X-22533334Y26706905D01*
X-22509524Y26825953D01*
X-22485715Y26897381D01*
X-22461905Y26945000D01*
X-22414286Y27016429D01*
X-22390477Y27040239D01*
X-21938096Y26468810D02*
X-22223810Y26468810D01*
X-22080953Y26468810D02*
X-22080953Y26968810D01*
X-22128572Y26897381D01*
X-22176191Y26849762D01*
X-22223810Y26825953D01*
X-21771429Y26968810D02*
X-21438096Y26968810D01*
X-21652381Y26468810D01*
X-21223810Y26492620D02*
X-21223810Y26468810D01*
X-21247620Y26421191D01*
X-21271429Y26397381D01*
X-20676191Y26968810D02*
X-20366667Y26968810D01*
X-20533334Y26778334D01*
X-20461905Y26778334D01*
X-20414286Y26754524D01*
X-20390477Y26730715D01*
X-20366667Y26683096D01*
X-20366667Y26564048D01*
X-20390477Y26516429D01*
X-20414286Y26492620D01*
X-20461905Y26468810D01*
X-20604762Y26468810D01*
X-20652381Y26492620D01*
X-20676191Y26516429D01*
X-20057143Y26968810D02*
X-20009524Y26968810D01*
X-19961905Y26945000D01*
X-19938096Y26921191D01*
X-19914286Y26873572D01*
X-19890477Y26778334D01*
X-19890477Y26659286D01*
X-19914286Y26564048D01*
X-19938096Y26516429D01*
X-19961905Y26492620D01*
X-20009524Y26468810D01*
X-20057143Y26468810D01*
X-20104762Y26492620D01*
X-20128572Y26516429D01*
X-20152381Y26564048D01*
X-20176191Y26659286D01*
X-20176191Y26778334D01*
X-20152381Y26873572D01*
X-20128572Y26921191D01*
X-20104762Y26945000D01*
X-20057143Y26968810D01*
X-19676191Y26516429D02*
X-19652381Y26492620D01*
X-19676191Y26468810D01*
X-19700000Y26492620D01*
X-19676191Y26516429D01*
X-19676191Y26468810D01*
X-19176191Y26468810D02*
X-19461905Y26468810D01*
X-19319048Y26468810D02*
X-19319048Y26968810D01*
X-19366667Y26897381D01*
X-19414286Y26849762D01*
X-19461905Y26825953D01*
X-19009524Y26278334D02*
X-18985715Y26302143D01*
X-18938096Y26373572D01*
X-18914286Y26421191D01*
X-18890477Y26492620D01*
X-18866667Y26611667D01*
X-18866667Y26706905D01*
X-18890477Y26825953D01*
X-18914286Y26897381D01*
X-18938096Y26945000D01*
X-18985715Y27016429D01*
X-19009524Y27040239D01*
X-16430953Y43978810D02*
X-16145239Y43978810D01*
X-16288096Y43478810D02*
X-16288096Y43978810D01*
X-15978572Y43478810D02*
X-15978572Y43978810D01*
X-15788096Y43978810D01*
X-15740477Y43955000D01*
X-15716667Y43931191D01*
X-15692858Y43883572D01*
X-15692858Y43812143D01*
X-15716667Y43764524D01*
X-15740477Y43740715D01*
X-15788096Y43716905D01*
X-15978572Y43716905D01*
X-15264286Y43812143D02*
X-15264286Y43478810D01*
X-15383334Y44002620D02*
X-15502381Y43645477D01*
X-15192858Y43645477D01*
X-17014286Y42864286D02*
X-16633334Y42864286D01*
X-16823810Y42673810D02*
X-16823810Y43054762D01*
X-16442858Y43173810D02*
X-16133334Y43173810D01*
X-16300000Y42983334D01*
X-16228572Y42983334D01*
X-16180953Y42959524D01*
X-16157143Y42935715D01*
X-16133334Y42888096D01*
X-16133334Y42769048D01*
X-16157143Y42721429D01*
X-16180953Y42697620D01*
X-16228572Y42673810D01*
X-16371429Y42673810D01*
X-16419048Y42697620D01*
X-16442858Y42721429D01*
X-15919048Y42721429D02*
X-15895239Y42697620D01*
X-15919048Y42673810D01*
X-15942858Y42697620D01*
X-15919048Y42721429D01*
X-15919048Y42673810D01*
X-15728572Y43173810D02*
X-15419048Y43173810D01*
X-15585715Y42983334D01*
X-15514286Y42983334D01*
X-15466667Y42959524D01*
X-15442858Y42935715D01*
X-15419048Y42888096D01*
X-15419048Y42769048D01*
X-15442858Y42721429D01*
X-15466667Y42697620D01*
X-15514286Y42673810D01*
X-15657143Y42673810D01*
X-15704762Y42697620D01*
X-15728572Y42721429D01*
X-15276191Y43173810D02*
X-15109524Y42673810D01*
X-14942858Y43173810D01*
X-14800000Y42816667D02*
X-14561905Y42816667D01*
X-14847620Y42673810D02*
X-14680953Y43173810D01*
X-14514286Y42673810D01*
X-17490477Y41678334D02*
X-17514286Y41702143D01*
X-17561905Y41773572D01*
X-17585715Y41821191D01*
X-17609524Y41892620D01*
X-17633334Y42011667D01*
X-17633334Y42106905D01*
X-17609524Y42225953D01*
X-17585715Y42297381D01*
X-17561905Y42345000D01*
X-17514286Y42416429D01*
X-17490477Y42440239D01*
X-17038096Y41868810D02*
X-17323810Y41868810D01*
X-17180953Y41868810D02*
X-17180953Y42368810D01*
X-17228572Y42297381D01*
X-17276191Y42249762D01*
X-17323810Y42225953D01*
X-16847620Y42321191D02*
X-16823810Y42345000D01*
X-16776191Y42368810D01*
X-16657143Y42368810D01*
X-16609524Y42345000D01*
X-16585715Y42321191D01*
X-16561905Y42273572D01*
X-16561905Y42225953D01*
X-16585715Y42154524D01*
X-16871429Y41868810D01*
X-16561905Y41868810D01*
X-16347620Y41916429D02*
X-16323810Y41892620D01*
X-16347620Y41868810D01*
X-16371429Y41892620D01*
X-16347620Y41916429D01*
X-16347620Y41868810D01*
X-15895239Y42202143D02*
X-15895239Y41868810D01*
X-16014286Y42392620D02*
X-16133334Y42035477D01*
X-15823810Y42035477D01*
X-15609524Y41892620D02*
X-15609524Y41868810D01*
X-15633334Y41821191D01*
X-15657143Y41797381D01*
X-14800000Y42202143D02*
X-14800000Y41868810D01*
X-14919048Y42392620D02*
X-15038096Y42035477D01*
X-14728572Y42035477D01*
X-14561905Y42321191D02*
X-14538096Y42345000D01*
X-14490477Y42368810D01*
X-14371429Y42368810D01*
X-14323810Y42345000D01*
X-14300000Y42321191D01*
X-14276191Y42273572D01*
X-14276191Y42225953D01*
X-14300000Y42154524D01*
X-14585715Y41868810D01*
X-14276191Y41868810D01*
X-14109524Y41678334D02*
X-14085715Y41702143D01*
X-14038096Y41773572D01*
X-14014286Y41821191D01*
X-13990477Y41892620D01*
X-13966667Y42011667D01*
X-13966667Y42106905D01*
X-13990477Y42225953D01*
X-14014286Y42297381D01*
X-14038096Y42345000D01*
X-14085715Y42416429D01*
X-14109524Y42440239D01*
X-15469048Y20178810D02*
X-15183334Y20178810D01*
X-15326191Y19678810D02*
X-15326191Y20178810D01*
X-15016667Y19678810D02*
X-15016667Y20178810D01*
X-14826191Y20178810D01*
X-14778572Y20155000D01*
X-14754762Y20131191D01*
X-14730953Y20083572D01*
X-14730953Y20012143D01*
X-14754762Y19964524D01*
X-14778572Y19940715D01*
X-14826191Y19916905D01*
X-15016667Y19916905D01*
X-14254762Y19678810D02*
X-14540477Y19678810D01*
X-14397620Y19678810D02*
X-14397620Y20178810D01*
X-14445239Y20107381D01*
X-14492858Y20059762D01*
X-14540477Y20035953D01*
X-13945239Y20178810D02*
X-13897620Y20178810D01*
X-13850000Y20155000D01*
X-13826191Y20131191D01*
X-13802381Y20083572D01*
X-13778572Y19988334D01*
X-13778572Y19869286D01*
X-13802381Y19774048D01*
X-13826191Y19726429D01*
X-13850000Y19702620D01*
X-13897620Y19678810D01*
X-13945239Y19678810D01*
X-13992858Y19702620D01*
X-14016667Y19726429D01*
X-14040477Y19774048D01*
X-14064286Y19869286D01*
X-14064286Y19988334D01*
X-14040477Y20083572D01*
X-14016667Y20131191D01*
X-13992858Y20155000D01*
X-13945239Y20178810D01*
X-16016667Y18873810D02*
X-16016667Y19373810D01*
X-15802381Y19326191D02*
X-15778572Y19350000D01*
X-15730953Y19373810D01*
X-15611905Y19373810D01*
X-15564286Y19350000D01*
X-15540477Y19326191D01*
X-15516667Y19278572D01*
X-15516667Y19230953D01*
X-15540477Y19159524D01*
X-15826191Y18873810D01*
X-15516667Y18873810D01*
X-15326191Y18897620D02*
X-15254762Y18873810D01*
X-15135715Y18873810D01*
X-15088096Y18897620D01*
X-15064286Y18921429D01*
X-15040477Y18969048D01*
X-15040477Y19016667D01*
X-15064286Y19064286D01*
X-15088096Y19088096D01*
X-15135715Y19111905D01*
X-15230953Y19135715D01*
X-15278572Y19159524D01*
X-15302381Y19183334D01*
X-15326191Y19230953D01*
X-15326191Y19278572D01*
X-15302381Y19326191D01*
X-15278572Y19350000D01*
X-15230953Y19373810D01*
X-15111905Y19373810D01*
X-15040477Y19350000D01*
X-14945239Y18826191D02*
X-14564286Y18826191D01*
X-14278572Y19135715D02*
X-14207143Y19111905D01*
X-14183334Y19088096D01*
X-14159524Y19040477D01*
X-14159524Y18969048D01*
X-14183334Y18921429D01*
X-14207143Y18897620D01*
X-14254762Y18873810D01*
X-14445239Y18873810D01*
X-14445239Y19373810D01*
X-14278572Y19373810D01*
X-14230953Y19350000D01*
X-14207143Y19326191D01*
X-14183334Y19278572D01*
X-14183334Y19230953D01*
X-14207143Y19183334D01*
X-14230953Y19159524D01*
X-14278572Y19135715D01*
X-14445239Y19135715D01*
X-13659524Y18921429D02*
X-13683334Y18897620D01*
X-13754762Y18873810D01*
X-13802381Y18873810D01*
X-13873810Y18897620D01*
X-13921429Y18945239D01*
X-13945239Y18992858D01*
X-13969048Y19088096D01*
X-13969048Y19159524D01*
X-13945239Y19254762D01*
X-13921429Y19302381D01*
X-13873810Y19350000D01*
X-13802381Y19373810D01*
X-13754762Y19373810D01*
X-13683334Y19350000D01*
X-13659524Y19326191D01*
X-13445239Y18873810D02*
X-13445239Y19373810D01*
X-13159524Y18873810D02*
X-13373810Y19159524D01*
X-13159524Y19373810D02*
X-13445239Y19088096D01*
X-16647620Y17878334D02*
X-16671429Y17902143D01*
X-16719048Y17973572D01*
X-16742858Y18021191D01*
X-16766667Y18092620D01*
X-16790477Y18211667D01*
X-16790477Y18306905D01*
X-16766667Y18425953D01*
X-16742858Y18497381D01*
X-16719048Y18545000D01*
X-16671429Y18616429D01*
X-16647620Y18640239D01*
X-16195239Y18068810D02*
X-16480953Y18068810D01*
X-16338096Y18068810D02*
X-16338096Y18568810D01*
X-16385715Y18497381D01*
X-16433334Y18449762D01*
X-16480953Y18425953D01*
X-16004762Y18521191D02*
X-15980953Y18545000D01*
X-15933334Y18568810D01*
X-15814286Y18568810D01*
X-15766667Y18545000D01*
X-15742858Y18521191D01*
X-15719048Y18473572D01*
X-15719048Y18425953D01*
X-15742858Y18354524D01*
X-16028572Y18068810D01*
X-15719048Y18068810D01*
X-15504762Y18116429D02*
X-15480953Y18092620D01*
X-15504762Y18068810D01*
X-15528572Y18092620D01*
X-15504762Y18116429D01*
X-15504762Y18068810D01*
X-15314286Y18568810D02*
X-15004762Y18568810D01*
X-15171429Y18378334D01*
X-15100000Y18378334D01*
X-15052381Y18354524D01*
X-15028572Y18330715D01*
X-15004762Y18283096D01*
X-15004762Y18164048D01*
X-15028572Y18116429D01*
X-15052381Y18092620D01*
X-15100000Y18068810D01*
X-15242858Y18068810D01*
X-15290477Y18092620D01*
X-15314286Y18116429D01*
X-14766667Y18092620D02*
X-14766667Y18068810D01*
X-14790477Y18021191D01*
X-14814286Y17997381D01*
X-14195239Y18521191D02*
X-14171429Y18545000D01*
X-14123810Y18568810D01*
X-14004762Y18568810D01*
X-13957143Y18545000D01*
X-13933334Y18521191D01*
X-13909524Y18473572D01*
X-13909524Y18425953D01*
X-13933334Y18354524D01*
X-14219048Y18068810D01*
X-13909524Y18068810D01*
X-13600000Y18568810D02*
X-13552381Y18568810D01*
X-13504762Y18545000D01*
X-13480953Y18521191D01*
X-13457143Y18473572D01*
X-13433334Y18378334D01*
X-13433334Y18259286D01*
X-13457143Y18164048D01*
X-13480953Y18116429D01*
X-13504762Y18092620D01*
X-13552381Y18068810D01*
X-13600000Y18068810D01*
X-13647620Y18092620D01*
X-13671429Y18116429D01*
X-13695239Y18164048D01*
X-13719048Y18259286D01*
X-13719048Y18378334D01*
X-13695239Y18473572D01*
X-13671429Y18521191D01*
X-13647620Y18545000D01*
X-13600000Y18568810D01*
X-13219048Y18116429D02*
X-13195239Y18092620D01*
X-13219048Y18068810D01*
X-13242858Y18092620D01*
X-13219048Y18116429D01*
X-13219048Y18068810D01*
X-12719048Y18068810D02*
X-13004762Y18068810D01*
X-12861905Y18068810D02*
X-12861905Y18568810D01*
X-12909524Y18497381D01*
X-12957143Y18449762D01*
X-13004762Y18425953D01*
X-12552381Y17878334D02*
X-12528572Y17902143D01*
X-12480953Y17973572D01*
X-12457143Y18021191D01*
X-12433334Y18092620D01*
X-12409524Y18211667D01*
X-12409524Y18306905D01*
X-12433334Y18425953D01*
X-12457143Y18497381D01*
X-12480953Y18545000D01*
X-12528572Y18616429D01*
X-12552381Y18640239D01*
X-29130953Y14078810D02*
X-28845239Y14078810D01*
X-28988096Y13578810D02*
X-28988096Y14078810D01*
X-28678572Y13578810D02*
X-28678572Y14078810D01*
X-28488096Y14078810D01*
X-28440477Y14055000D01*
X-28416667Y14031191D01*
X-28392858Y13983572D01*
X-28392858Y13912143D01*
X-28416667Y13864524D01*
X-28440477Y13840715D01*
X-28488096Y13816905D01*
X-28678572Y13816905D01*
X-28226191Y14078810D02*
X-27916667Y14078810D01*
X-28083334Y13888334D01*
X-28011905Y13888334D01*
X-27964286Y13864524D01*
X-27940477Y13840715D01*
X-27916667Y13793096D01*
X-27916667Y13674048D01*
X-27940477Y13626429D01*
X-27964286Y13602620D01*
X-28011905Y13578810D01*
X-28154762Y13578810D01*
X-28202381Y13602620D01*
X-28226191Y13626429D01*
X-30107143Y12797620D02*
X-30035715Y12773810D01*
X-29916667Y12773810D01*
X-29869048Y12797620D01*
X-29845239Y12821429D01*
X-29821429Y12869048D01*
X-29821429Y12916667D01*
X-29845239Y12964286D01*
X-29869048Y12988096D01*
X-29916667Y13011905D01*
X-30011905Y13035715D01*
X-30059524Y13059524D01*
X-30083334Y13083334D01*
X-30107143Y13130953D01*
X-30107143Y13178572D01*
X-30083334Y13226191D01*
X-30059524Y13250000D01*
X-30011905Y13273810D01*
X-29892858Y13273810D01*
X-29821429Y13250000D01*
X-29607143Y12773810D02*
X-29607143Y13273810D01*
X-29416667Y13273810D01*
X-29369048Y13250000D01*
X-29345239Y13226191D01*
X-29321429Y13178572D01*
X-29321429Y13107143D01*
X-29345239Y13059524D01*
X-29369048Y13035715D01*
X-29416667Y13011905D01*
X-29607143Y13011905D01*
X-29107143Y12773810D02*
X-29107143Y13273810D01*
X-28988096Y12726191D02*
X-28607143Y12726191D01*
X-28488096Y12773810D02*
X-28488096Y13273810D01*
X-28321429Y12916667D01*
X-28154762Y13273810D01*
X-28154762Y12773810D01*
X-27821429Y13273810D02*
X-27726191Y13273810D01*
X-27678572Y13250000D01*
X-27630953Y13202381D01*
X-27607143Y13107143D01*
X-27607143Y12940477D01*
X-27630953Y12845239D01*
X-27678572Y12797620D01*
X-27726191Y12773810D01*
X-27821429Y12773810D01*
X-27869048Y12797620D01*
X-27916667Y12845239D01*
X-27940477Y12940477D01*
X-27940477Y13107143D01*
X-27916667Y13202381D01*
X-27869048Y13250000D01*
X-27821429Y13273810D01*
X-27416667Y12797620D02*
X-27345239Y12773810D01*
X-27226191Y12773810D01*
X-27178572Y12797620D01*
X-27154762Y12821429D01*
X-27130953Y12869048D01*
X-27130953Y12916667D01*
X-27154762Y12964286D01*
X-27178572Y12988096D01*
X-27226191Y13011905D01*
X-27321429Y13035715D01*
X-27369048Y13059524D01*
X-27392858Y13083334D01*
X-27416667Y13130953D01*
X-27416667Y13178572D01*
X-27392858Y13226191D01*
X-27369048Y13250000D01*
X-27321429Y13273810D01*
X-27202381Y13273810D01*
X-27130953Y13250000D01*
X-26916667Y12773810D02*
X-26916667Y13273810D01*
X-29833334Y11778334D02*
X-29857143Y11802143D01*
X-29904762Y11873572D01*
X-29928572Y11921191D01*
X-29952381Y11992620D01*
X-29976191Y12111667D01*
X-29976191Y12206905D01*
X-29952381Y12325953D01*
X-29928572Y12397381D01*
X-29904762Y12445000D01*
X-29857143Y12516429D01*
X-29833334Y12540239D01*
X-29666667Y12421191D02*
X-29642858Y12445000D01*
X-29595239Y12468810D01*
X-29476191Y12468810D01*
X-29428572Y12445000D01*
X-29404762Y12421191D01*
X-29380953Y12373572D01*
X-29380953Y12325953D01*
X-29404762Y12254524D01*
X-29690477Y11968810D01*
X-29380953Y11968810D01*
X-29142858Y11968810D02*
X-29047620Y11968810D01*
X-29000000Y11992620D01*
X-28976191Y12016429D01*
X-28928572Y12087858D01*
X-28904762Y12183096D01*
X-28904762Y12373572D01*
X-28928572Y12421191D01*
X-28952381Y12445000D01*
X-29000000Y12468810D01*
X-29095239Y12468810D01*
X-29142858Y12445000D01*
X-29166667Y12421191D01*
X-29190477Y12373572D01*
X-29190477Y12254524D01*
X-29166667Y12206905D01*
X-29142858Y12183096D01*
X-29095239Y12159286D01*
X-29000000Y12159286D01*
X-28952381Y12183096D01*
X-28928572Y12206905D01*
X-28904762Y12254524D01*
X-28666667Y11992620D02*
X-28666667Y11968810D01*
X-28690477Y11921191D01*
X-28714286Y11897381D01*
X-27809524Y11968810D02*
X-28095239Y11968810D01*
X-27952381Y11968810D02*
X-27952381Y12468810D01*
X-28000000Y12397381D01*
X-28047620Y12349762D01*
X-28095239Y12325953D01*
X-27380953Y12468810D02*
X-27476191Y12468810D01*
X-27523810Y12445000D01*
X-27547620Y12421191D01*
X-27595239Y12349762D01*
X-27619048Y12254524D01*
X-27619048Y12064048D01*
X-27595239Y12016429D01*
X-27571429Y11992620D01*
X-27523810Y11968810D01*
X-27428572Y11968810D01*
X-27380953Y11992620D01*
X-27357143Y12016429D01*
X-27333334Y12064048D01*
X-27333334Y12183096D01*
X-27357143Y12230715D01*
X-27380953Y12254524D01*
X-27428572Y12278334D01*
X-27523810Y12278334D01*
X-27571429Y12254524D01*
X-27595239Y12230715D01*
X-27619048Y12183096D01*
X-27166667Y11778334D02*
X-27142858Y11802143D01*
X-27095239Y11873572D01*
X-27071429Y11921191D01*
X-27047620Y11992620D01*
X-27023810Y12111667D01*
X-27023810Y12206905D01*
X-27047620Y12325953D01*
X-27071429Y12397381D01*
X-27095239Y12445000D01*
X-27142858Y12516429D01*
X-27166667Y12540239D01*
D11*
X-24800000Y19800000D02*
X-26200000Y19800000D01*
X-25500000Y19100000D02*
X-25500000Y20500000D01*
X-25400000Y17600000D02*
X-25400000Y16200000D01*
X-24700000Y16900000D02*
X-26100000Y16900000D01*
X-8600000Y13200000D02*
X-10000000Y13200000D01*
X-9300000Y12500000D02*
X-9300000Y13900000D01*
X-28300000Y16000000D02*
X-29700000Y16000000D01*
X-29000000Y15300000D02*
X-29000000Y16700000D01*
X-11600000Y20100000D02*
X-13000000Y20100000D01*
X-12300000Y19400000D02*
X-12300000Y20800000D01*
X-17700000Y32200000D02*
X-16300000Y32200000D01*
X-17000000Y32900000D02*
X-17000000Y31500000D01*
X-30800000Y16000000D02*
X-32200000Y16000000D01*
X-31500000Y15300000D02*
X-31500000Y16700000D01*
X-11700000Y42000000D02*
X-13100000Y42000000D01*
X-12400000Y41300000D02*
X-12400000Y42700000D01*
X-16300000Y28000000D02*
X-17700000Y28000000D01*
X-17000000Y27300000D02*
X-17000000Y28700000D01*
X-16300000Y30100000D02*
X-17700000Y30100000D01*
X-17000000Y29400000D02*
X-17000000Y30800000D01*
X-11100000Y22900000D02*
X-12500000Y22900000D01*
X-11800000Y22200000D02*
X-11800000Y23600000D01*
M02*
