%TF.GenerationSoftware,KiCad,Pcbnew,(5.99.0-8361-gd4c36230d2)*%
%TF.CreationDate,2021-01-14T14:19:16+01:00*%
%TF.ProjectId,mp3,6d70332e-6b69-4636-9164-5f7063625858,rev?*%
%TF.SameCoordinates,PXae85bc0PY7459280*%
%TF.FileFunction,Soldermask,Bot*%
%TF.FilePolarity,Negative*%
%FSLAX46Y46*%
G04 Gerber Fmt 4.6, Leading zero omitted, Abs format (unit mm)*
G04 Created by KiCad (PCBNEW (5.99.0-8361-gd4c36230d2)) date 2021-01-14 14:19:16*
%MOMM*%
%LPD*%
G01*
G04 APERTURE LIST*
G04 Aperture macros list*
%AMRoundRect*
0 Rectangle with rounded corners*
0 $1 Rounding radius*
0 $2 $3 $4 $5 $6 $7 $8 $9 X,Y pos of 4 corners*
0 Add a 4 corners polygon primitive as box body*
4,1,4,$2,$3,$4,$5,$6,$7,$8,$9,$2,$3,0*
0 Add four circle primitives for the rounded corners*
1,1,$1+$1,$2,$3*
1,1,$1+$1,$4,$5*
1,1,$1+$1,$6,$7*
1,1,$1+$1,$8,$9*
0 Add four rect primitives between the rounded corners*
20,1,$1+$1,$2,$3,$4,$5,0*
20,1,$1+$1,$4,$5,$6,$7,0*
20,1,$1+$1,$6,$7,$8,$9,0*
20,1,$1+$1,$8,$9,$2,$3,0*%
G04 Aperture macros list end*
%ADD10C,0.100000*%
%ADD11C,2.000000*%
%ADD12C,1.700000*%
%ADD13C,3.200000*%
%ADD14C,1.500000*%
%ADD15O,1.800000X2.800000*%
%ADD16C,3.250000*%
%ADD17R,1.900000X1.900000*%
%ADD18C,1.900000*%
%ADD19C,2.100000*%
%ADD20C,2.600000*%
%ADD21RoundRect,0.250000X-0.620000X-0.845000X0.620000X-0.845000X0.620000X0.845000X-0.620000X0.845000X0*%
%ADD22O,1.740000X2.190000*%
G04 APERTURE END LIST*
D10*
X-6500000Y57000000D02*
X-8000000Y56500000D01*
X-8000000Y56500000D02*
X-8000000Y52500000D01*
X-8000000Y52500000D02*
X-6500000Y52000000D01*
X-6500000Y52000000D02*
X-6500000Y51000000D01*
X-6500000Y51000000D02*
X-10500000Y51000000D01*
X-10500000Y51000000D02*
X-10500000Y43500000D01*
X-10500000Y43500000D02*
X-18000000Y43500000D01*
X-18000000Y43500000D02*
X-18000000Y58500000D01*
X-18000000Y58500000D02*
X-17000000Y58500000D01*
X-17000000Y58500000D02*
X-6500000Y58500000D01*
X-6500000Y58500000D02*
X-6500000Y57000000D01*
G36*
X-6500000Y57000000D02*
G01*
X-8000000Y56500000D01*
X-8000000Y52500000D01*
X-6500000Y52000000D01*
X-6500000Y51000000D01*
X-10500000Y51000000D01*
X-10500000Y43500000D01*
X-18000000Y43500000D01*
X-18000000Y58500000D01*
X-6500000Y58500000D01*
X-6500000Y57000000D01*
G37*
X-6500000Y57000000D02*
X-8000000Y56500000D01*
X-8000000Y52500000D01*
X-6500000Y52000000D01*
X-6500000Y51000000D01*
X-10500000Y51000000D01*
X-10500000Y43500000D01*
X-18000000Y43500000D01*
X-18000000Y58500000D01*
X-6500000Y58500000D01*
X-6500000Y57000000D01*
D11*
%TO.C,SW1*%
X-8250000Y61000000D03*
X-2250000Y73000000D03*
X-2250000Y61000000D03*
X-8250000Y73000000D03*
D12*
X-6500000Y63000000D03*
X-6500000Y67000000D03*
X-6500000Y71000000D03*
%TD*%
D13*
%TO.C,H2*%
X-5000000Y5000000D03*
%TD*%
D14*
%TO.C,Y1*%
X-31500000Y28000000D03*
X-31500000Y23120000D03*
%TD*%
D13*
%TO.C,H1*%
X-49000000Y70000000D03*
%TD*%
D15*
%TO.C,J4*%
X-9900000Y34000000D03*
X-2000000Y36000000D03*
X-4400000Y34000000D03*
%TD*%
D16*
%TO.C,J6*%
X-45950000Y47340000D03*
X-45950000Y58770000D03*
D17*
X-39600000Y57500000D03*
D18*
X-37060000Y56230000D03*
X-39600000Y54960000D03*
X-37060000Y53690000D03*
X-39600000Y52420000D03*
X-37060000Y51150000D03*
X-39600000Y49880000D03*
X-37060000Y48610000D03*
D19*
X-50010000Y59680000D03*
X-50010000Y57140000D03*
X-50010000Y48970000D03*
X-50010000Y46430000D03*
D20*
X-42900000Y45310000D03*
X-42900000Y60800000D03*
%TD*%
D14*
%TO.C,Y2*%
X-41576000Y21228000D03*
X-46456000Y21228000D03*
%TD*%
D21*
%TO.C,J2*%
X-32500000Y35500000D03*
D22*
X-29960000Y35500000D03*
%TD*%
D21*
%TO.C,J3*%
X-6000000Y54500000D03*
D22*
X-3460000Y54500000D03*
%TD*%
M02*
