M48
; DRILL file {KiCad (5.99.0-8361-gd4c36230d2)} date 01/14/21 13:58:50
; FORMAT={-:-/ absolute / metric / decimal}
; #@! TF.CreationDate,2021-01-14T13:58:50+01:00
; #@! TF.GenerationSoftware,Kicad,Pcbnew,(5.99.0-8361-gd4c36230d2)
; #@! TF.FileFunction,Plated,1,2,PTH
FMAT,2
METRIC
T1C0.400
T2C0.800
T3C0.900
T4C1.000
T5C1.100
T6C1.190
T7C1.200
T8C1.600
%
G90
G05
T1
X-47.9Y42.6
X-47.7Y33.9
X-47.3Y38.8
X-47.3Y36.2
X-46.3Y31.2
X-45.0Y29.0
X-43.1Y47.9
X-42.1Y43.0
X-42.1Y42.0
X-42.1Y41.1
X-42.03Y50.31
X-40.8Y37.5
X-40.8Y34.1
X-40.3Y47.7
X-38.2Y42.2
X-37.5Y29.5
X-36.8Y45.2
X-35.0Y39.8
X-34.5Y37.0
X-31.7Y25.6
X-30.3Y38.4
X-30.0Y52.5
X-30.0Y48.5
X-30.0Y45.0
X-29.4Y38.4
X-29.2Y4.8
X-28.5Y38.4
X-27.0Y36.5
X-27.0Y4.8
X-26.8Y28.0
X-26.0Y42.6
X-25.9Y40.0
X-25.6Y60.8
X-25.5Y52.5
X-25.5Y48.5
X-25.5Y45.0
X-24.4Y9.2
X-23.76Y71.0
X-23.5Y12.0
X-23.19Y15.26
X-23.1Y34.0
X-23.0Y28.0
X-22.3Y24.1
X-21.9Y13.8
X-21.2Y4.2
X-21.0Y52.5
X-21.0Y48.5
X-21.0Y45.0
X-20.8Y38.7
X-20.34Y12.87
X-18.1Y17.9
X-17.45Y14.05
X-17.0Y57.5
X-17.0Y53.0
X-17.0Y21.5
X-16.5Y49.0
X-16.5Y47.0
X-16.5Y45.0
X-16.4Y11.0
X-15.9Y26.6
X-15.5Y48.0
X-15.5Y46.0
X-15.0Y40.0
X-14.9Y15.9
X-14.675Y24.275
X-14.5Y49.0
X-14.5Y47.0
X-14.5Y45.0
X-14.5Y2.0
X-13.5Y48.0
X-13.5Y46.0
X-13.0Y11.0
X-12.5Y49.0
X-12.5Y47.0
X-12.5Y45.0
X-12.025Y24.275
X-12.0Y57.5
X-12.0Y53.0
X-11.75Y17.25
X-11.5Y48.0
X-11.5Y46.0
X-11.0Y22.0
X-10.9Y18.1
X-10.8Y31.55
X-10.8Y30.25
X-9.1Y31.6
X-9.05Y21.2
X-9.0Y30.2
X-9.0Y25.2
X-8.5Y39.5
X-8.0Y20.0
X-7.65Y47.1
X-6.997Y18.8
X-6.82Y15.82
X-5.4Y18.95
X-5.25Y31.5
X-5.25Y30.2
X-4.9Y21.5
X-4.87Y15.5
X-4.65Y43.15
X-3.55Y31.55
X-3.55Y30.25
X-3.2Y19.0
X-2.0Y51.5
X-1.5Y47.0
X-1.375Y14.625
X-1.35Y30.1
X-0.95Y22.8
T2
X-46.456Y21.228
X-41.576Y21.228
X-31.5Y28.0
X-31.5Y23.12
T3
X-39.6Y57.5
X-39.6Y54.96
X-39.6Y52.42
X-39.6Y49.88
X-37.06Y56.23
X-37.06Y53.69
X-37.06Y51.15
X-37.06Y48.61
X-6.5Y71.0
X-6.5Y67.0
X-6.5Y63.0
T5
X-50.01Y59.68
X-50.01Y57.14
X-50.01Y48.97
X-50.01Y46.43
T6
X-32.5Y35.5
X-29.96Y35.5
X-6.0Y54.5
X-3.46Y54.5
T7
X-8.25Y73.0
X-8.25Y61.0
X-2.25Y73.0
X-2.25Y61.0
T8
X-42.9Y60.8
X-42.9Y45.31
T4
G00X-9.9Y34.5
M15
G01X-9.9Y33.5
M16
G05
G00X-4.4Y34.5
M15
G01X-4.4Y33.5
M16
G05
G00X-2.0Y36.5
M15
G01X-2.0Y35.5
M16
G05
T0
M30
